<svg width="364" height="96" viewBox="0 0 364 96" fill="none" xmlns="http://www.w3.org/2000/svg">
<rect width="364" height="96" rx="48" fill="#3456F7"/>
<path d="M53.7319 50.428V32.532C53.7319 31.0118 53.128 29.5538 52.053 28.4789C50.9781 27.4039 49.5201 26.8 47.9999 26.8C46.4797 26.8 45.0217 27.4039 43.9468 28.4789C42.8718 29.5538 42.2679 31.0118 42.2679 32.532V50.428C40.4432 51.6561 39.0611 53.4377 38.3254 55.5105C37.5896 57.5832 37.5389 59.8375 38.1809 61.9412C38.8229 64.0449 40.1236 65.8868 41.8913 67.1956C43.6591 68.5043 45.8004 69.2107 47.9999 69.2107C50.1994 69.2107 52.3407 68.5043 54.1084 67.1956C55.8762 65.8868 57.1768 64.0449 57.8188 61.9412C58.4608 59.8375 58.4102 57.5832 57.6744 55.5105C56.9386 53.4377 55.5566 51.6561 53.7319 50.428ZM47.9999 66.8C46.2696 66.8005 44.5875 66.2301 43.2145 65.1771C41.8414 64.1242 40.8542 62.6476 40.4059 60.9764C39.9576 59.3052 40.0733 57.5327 40.7351 55.934C41.3968 54.3352 42.5676 52.9995 44.0659 52.134C44.2484 52.0286 44.4 51.877 44.5053 51.6944C44.6106 51.5119 44.666 51.3048 44.6659 51.094V32.532C44.6669 31.6483 45.0186 30.8011 45.6437 30.1764C46.2688 29.5517 47.1162 29.2005 47.9999 29.2C48.4351 29.1973 48.8665 29.2809 49.2692 29.4461C49.6719 29.6112 50.0379 29.8545 50.3459 30.162C50.6589 30.4721 50.9072 30.8413 51.0764 31.2482C51.2457 31.655 51.3325 32.0914 51.3319 32.532V51.094C51.3318 51.3048 51.3871 51.5119 51.4925 51.6944C51.5978 51.877 51.7494 52.0286 51.9319 52.134C53.43 52.9994 54.6007 54.335 55.2625 55.9335C55.9243 57.5321 56.0401 59.3043 55.5921 60.9754C55.1441 62.6465 54.1572 64.1231 52.7845 65.1762C51.4118 66.2293 49.73 66.8001 47.9999 66.8ZM53.9999 58.958C54 60.0933 53.6781 61.2054 53.0714 62.165C52.4647 63.1246 51.5982 63.8924 50.5725 64.3792C49.5469 64.866 48.4041 65.0518 47.2771 64.9151C46.15 64.7783 45.0849 64.3246 44.2055 63.6066C43.326 62.8886 42.6683 61.9358 42.3087 60.859C41.9492 59.7821 41.9025 58.6253 42.1742 57.5229C42.4459 56.4206 43.0248 55.418 43.8436 54.6315C44.6624 53.8451 45.6875 53.3071 46.7999 53.08V39C46.7999 38.6817 46.9263 38.3765 47.1514 38.1515C47.3764 37.9264 47.6816 37.8 47.9999 37.8C48.3181 37.8 48.6234 37.9264 48.8484 38.1515C49.0735 38.3765 49.1999 38.6817 49.1999 39V53.08C50.5548 53.3566 51.7726 54.0926 52.6472 55.1637C53.5219 56.2348 53.9997 57.5752 53.9999 58.958Z" fill="white"/>
<path d="M100.434 25.1562L93.3672 41H91.0938L98.1367 25.7188H88.9023V23.9375H100.434V25.1562ZM114.074 41H102.895V39.4414L108.801 32.8789C109.676 31.8867 110.277 31.082 110.605 30.4648C110.941 29.8398 111.109 29.1953 111.109 28.5312C111.109 27.6406 110.84 26.9102 110.301 26.3398C109.762 25.7695 109.043 25.4844 108.145 25.4844C107.066 25.4844 106.227 25.793 105.625 26.4102C105.031 27.0195 104.734 27.8711 104.734 28.9648H102.566C102.566 27.3945 103.07 26.125 104.078 25.1562C105.094 24.1875 106.449 23.7031 108.145 23.7031C109.73 23.7031 110.984 24.1211 111.906 24.957C112.828 25.7852 113.289 26.8906 113.289 28.2734C113.289 29.9531 112.219 31.9531 110.078 34.2734L105.508 39.2305H114.074V41ZM116.641 39.8633C116.641 39.4883 116.75 39.1758 116.969 38.9258C117.195 38.6758 117.531 38.5508 117.977 38.5508C118.422 38.5508 118.758 38.6758 118.984 38.9258C119.219 39.1758 119.336 39.4883 119.336 39.8633C119.336 40.2227 119.219 40.5234 118.984 40.7656C118.758 41.0078 118.422 41.1289 117.977 41.1289C117.531 41.1289 117.195 41.0078 116.969 40.7656C116.75 40.5234 116.641 40.2227 116.641 39.8633ZM123.695 32.4453L124.562 23.9375H133.305V25.9414H126.402L125.887 30.5938C126.723 30.1016 127.672 29.8555 128.734 29.8555C130.289 29.8555 131.523 30.3711 132.438 31.4023C133.352 32.4258 133.809 33.8125 133.809 35.5625C133.809 37.3203 133.332 38.707 132.379 39.7227C131.434 40.7305 130.109 41.2344 128.406 41.2344C126.898 41.2344 125.668 40.8164 124.715 39.9805C123.762 39.1445 123.219 37.9883 123.086 36.5117H125.137C125.27 37.4883 125.617 38.2266 126.18 38.7266C126.742 39.2188 127.484 39.4648 128.406 39.4648C129.414 39.4648 130.203 39.1211 130.773 38.4336C131.352 37.7461 131.641 36.7969 131.641 35.5859C131.641 34.4453 131.328 33.5312 130.703 32.8438C130.086 32.1484 129.262 31.8008 128.23 31.8008C127.285 31.8008 126.543 32.0078 126.004 32.4219L125.43 32.8906L123.695 32.4453ZM136.281 26.75C136.281 25.9375 136.57 25.2266 137.148 24.6172C137.734 24.0078 138.441 23.7031 139.27 23.7031C140.082 23.7031 140.773 24.0078 141.344 24.6172C141.922 25.2188 142.211 25.9297 142.211 26.75C142.211 27.5781 141.922 28.2852 141.344 28.8711C140.773 29.457 140.082 29.75 139.27 29.75C138.449 29.75 137.746 29.457 137.16 28.8711C136.574 28.2852 136.281 27.5781 136.281 26.75ZM139.27 28.25C139.691 28.25 140.047 28.1133 140.336 27.8398C140.625 27.5586 140.77 27.1953 140.77 26.75C140.77 26.2969 140.625 25.9258 140.336 25.6367C140.047 25.3398 139.691 25.1914 139.27 25.1914C138.84 25.1914 138.477 25.3477 138.18 25.6602C137.891 25.9648 137.746 26.3281 137.746 26.75C137.746 27.1719 137.891 27.5273 138.18 27.8164C138.477 28.1055 138.84 28.25 139.27 28.25Z" fill="white"/>
<path d="M149.695 37.2324H146.115V41H144.99V32.4688H150.275V33.3945H146.115V36.3125H149.695V37.2324Z" fill="white" fill-opacity="0.4"/>
<path d="M97.8047 58.8594H94.1484V69H92.6562V58.8594H89.0078V57.625H97.8047V58.8594ZM101.992 69.1562C100.846 69.1562 99.9141 68.7812 99.1953 68.0312C98.4766 67.276 98.1172 66.2682 98.1172 65.0078V64.7422C98.1172 63.9036 98.276 63.1562 98.5938 62.5C98.9167 61.8385 99.3646 61.3229 99.9375 60.9531C100.516 60.5781 101.141 60.3906 101.812 60.3906C102.911 60.3906 103.766 60.7526 104.375 61.4766C104.984 62.2005 105.289 63.237 105.289 64.5859V65.1875H99.5625C99.5833 66.0208 99.8255 66.6953 100.289 67.2109C100.758 67.7214 101.352 67.9766 102.07 67.9766C102.581 67.9766 103.013 67.8724 103.367 67.6641C103.721 67.4557 104.031 67.1797 104.297 66.8359L105.18 67.5234C104.471 68.612 103.409 69.1562 101.992 69.1562ZM101.812 61.5781C101.229 61.5781 100.74 61.7917 100.344 62.2188C99.9479 62.6406 99.7031 63.2344 99.6094 64H103.844V63.8906C103.802 63.1562 103.604 62.5885 103.25 62.1875C102.896 61.7812 102.417 61.5781 101.812 61.5781ZM108.328 60.5469L108.367 61.4844C108.987 60.7552 109.823 60.3906 110.875 60.3906C112.057 60.3906 112.862 60.8438 113.289 61.75C113.57 61.3438 113.935 61.0156 114.383 60.7656C114.836 60.5156 115.37 60.3906 115.984 60.3906C117.839 60.3906 118.781 61.3724 118.812 63.3359V69H117.367V63.4219C117.367 62.8177 117.229 62.3672 116.953 62.0703C116.677 61.7682 116.214 61.6172 115.562 61.6172C115.026 61.6172 114.581 61.7786 114.227 62.1016C113.872 62.4193 113.667 62.849 113.609 63.3906V69H112.156V63.4609C112.156 62.2318 111.555 61.6172 110.352 61.6172C109.404 61.6172 108.755 62.0208 108.406 62.8281V69H106.961V60.5469H108.328ZM128.141 64.8672C128.141 66.1536 127.846 67.1901 127.258 67.9766C126.669 68.763 125.872 69.1562 124.867 69.1562C123.841 69.1562 123.034 68.8307 122.445 68.1797V72.25H121V60.5469H122.32L122.391 61.4844C122.979 60.7552 123.797 60.3906 124.844 60.3906C125.859 60.3906 126.661 60.7734 127.25 61.5391C127.844 62.3047 128.141 63.3698 128.141 64.7344V64.8672ZM126.695 64.7031C126.695 63.75 126.492 62.9974 126.086 62.4453C125.68 61.8932 125.122 61.6172 124.414 61.6172C123.539 61.6172 122.883 62.0052 122.445 62.7812V66.8203C122.878 67.5911 123.539 67.9766 124.43 67.9766C125.122 67.9766 125.672 67.7031 126.078 67.1562C126.49 66.6042 126.695 65.7865 126.695 64.7031ZM133.492 69.1562C132.346 69.1562 131.414 68.7812 130.695 68.0312C129.977 67.276 129.617 66.2682 129.617 65.0078V64.7422C129.617 63.9036 129.776 63.1562 130.094 62.5C130.417 61.8385 130.865 61.3229 131.438 60.9531C132.016 60.5781 132.641 60.3906 133.312 60.3906C134.411 60.3906 135.266 60.7526 135.875 61.4766C136.484 62.2005 136.789 63.237 136.789 64.5859V65.1875H131.062C131.083 66.0208 131.326 66.6953 131.789 67.2109C132.258 67.7214 132.852 67.9766 133.57 67.9766C134.081 67.9766 134.513 67.8724 134.867 67.6641C135.221 67.4557 135.531 67.1797 135.797 66.8359L136.68 67.5234C135.971 68.612 134.909 69.1562 133.492 69.1562ZM133.312 61.5781C132.729 61.5781 132.24 61.7917 131.844 62.2188C131.448 62.6406 131.203 63.2344 131.109 64H135.344V63.8906C135.302 63.1562 135.104 62.5885 134.75 62.1875C134.396 61.7812 133.917 61.5781 133.312 61.5781ZM142.555 61.8438C142.336 61.8073 142.099 61.7891 141.844 61.7891C140.896 61.7891 140.253 62.1927 139.914 63V69H138.469V60.5469H139.875L139.898 61.5234C140.372 60.7682 141.044 60.3906 141.914 60.3906C142.195 60.3906 142.409 60.4271 142.555 60.5V61.8438ZM148.797 69C148.714 68.8333 148.646 68.5365 148.594 68.1094C147.922 68.8073 147.12 69.1562 146.188 69.1562C145.354 69.1562 144.669 68.9219 144.133 68.4531C143.602 67.9792 143.336 67.3802 143.336 66.6562C143.336 65.776 143.669 65.0938 144.336 64.6094C145.008 64.1198 145.951 63.875 147.164 63.875H148.57V63.2109C148.57 62.7057 148.419 62.3047 148.117 62.0078C147.815 61.7057 147.37 61.5547 146.781 61.5547C146.266 61.5547 145.833 61.6849 145.484 61.9453C145.135 62.2057 144.961 62.5208 144.961 62.8906H143.508C143.508 62.4688 143.656 62.0625 143.953 61.6719C144.255 61.276 144.661 60.9635 145.172 60.7344C145.688 60.5052 146.253 60.3906 146.867 60.3906C147.841 60.3906 148.604 60.6354 149.156 61.125C149.708 61.6094 149.995 62.2786 150.016 63.1328V67.0234C150.016 67.7995 150.115 68.4167 150.312 68.875V69H148.797ZM146.398 67.8984C146.852 67.8984 147.281 67.7812 147.688 67.5469C148.094 67.3125 148.388 67.0078 148.57 66.6328V64.8984H147.438C145.667 64.8984 144.781 65.4167 144.781 66.4531C144.781 66.9062 144.932 67.2604 145.234 67.5156C145.536 67.7708 145.924 67.8984 146.398 67.8984ZM154.242 58.5V60.5469H155.82V61.6641H154.242V66.9062C154.242 67.2448 154.312 67.5 154.453 67.6719C154.594 67.8385 154.833 67.9219 155.172 67.9219C155.339 67.9219 155.568 67.8906 155.859 67.8281V69C155.479 69.1042 155.109 69.1562 154.75 69.1562C154.104 69.1562 153.617 68.9609 153.289 68.5703C152.961 68.1797 152.797 67.625 152.797 66.9062V61.6641H151.258V60.5469H152.797V58.5H154.242ZM162.734 68.1641C162.172 68.8255 161.346 69.1562 160.258 69.1562C159.357 69.1562 158.669 68.8958 158.195 68.375C157.727 67.849 157.49 67.0729 157.484 66.0469V60.5469H158.93V66.0078C158.93 67.2891 159.451 67.9297 160.492 67.9297C161.596 67.9297 162.331 67.5182 162.695 66.6953V60.5469H164.141V69H162.766L162.734 68.1641ZM170.43 61.8438C170.211 61.8073 169.974 61.7891 169.719 61.7891C168.771 61.7891 168.128 62.1927 167.789 63V69H166.344V60.5469H167.75L167.773 61.5234C168.247 60.7682 168.919 60.3906 169.789 60.3906C170.07 60.3906 170.284 60.4271 170.43 60.5V61.8438ZM175.117 69.1562C173.971 69.1562 173.039 68.7812 172.32 68.0312C171.602 67.276 171.242 66.2682 171.242 65.0078V64.7422C171.242 63.9036 171.401 63.1562 171.719 62.5C172.042 61.8385 172.49 61.3229 173.062 60.9531C173.641 60.5781 174.266 60.3906 174.938 60.3906C176.036 60.3906 176.891 60.7526 177.5 61.4766C178.109 62.2005 178.414 63.237 178.414 64.5859V65.1875H172.688C172.708 66.0208 172.951 66.6953 173.414 67.2109C173.883 67.7214 174.477 67.9766 175.195 67.9766C175.706 67.9766 176.138 67.8724 176.492 67.6641C176.846 67.4557 177.156 67.1797 177.422 66.8359L178.305 67.5234C177.596 68.612 176.534 69.1562 175.117 69.1562ZM174.938 61.5781C174.354 61.5781 173.865 61.7917 173.469 62.2188C173.073 62.6406 172.828 63.2344 172.734 64H176.969V63.8906C176.927 63.1562 176.729 62.5885 176.375 62.1875C176.021 61.7812 175.542 61.5781 174.938 61.5781Z" fill="white"/>
<path d="M275.688 27.7422H270.758V31.7734H276.484V33H269.258V21.625H276.406V22.8594H270.758V26.5156H275.688V27.7422ZM280.961 27.6328L282.836 24.5469H284.523L281.758 28.7266L284.609 33H282.938L280.984 29.8359L279.031 33H277.352L280.203 28.7266L277.438 24.5469H279.109L280.961 27.6328ZM289.297 31.9766C289.812 31.9766 290.263 31.8203 290.648 31.5078C291.034 31.1953 291.247 30.8047 291.289 30.3359H292.656C292.63 30.8203 292.464 31.2812 292.156 31.7188C291.849 32.1562 291.438 32.5052 290.922 32.7656C290.411 33.026 289.87 33.1562 289.297 33.1562C288.146 33.1562 287.229 32.7734 286.547 32.0078C285.87 31.237 285.531 30.1849 285.531 28.8516V28.6094C285.531 27.7865 285.682 27.0547 285.984 26.4141C286.286 25.7734 286.719 25.276 287.281 24.9219C287.849 24.5677 288.518 24.3906 289.289 24.3906C290.237 24.3906 291.023 24.6745 291.648 25.2422C292.279 25.8099 292.615 26.5469 292.656 27.4531H291.289C291.247 26.9062 291.039 26.4583 290.664 26.1094C290.294 25.7552 289.836 25.5781 289.289 25.5781C288.555 25.5781 287.984 25.8438 287.578 26.375C287.177 26.901 286.977 27.6641 286.977 28.6641V28.9375C286.977 29.9115 287.177 30.6615 287.578 31.1875C287.979 31.7135 288.552 31.9766 289.297 31.9766ZM297.789 33.1562C296.643 33.1562 295.711 32.7812 294.992 32.0312C294.273 31.276 293.914 30.2682 293.914 29.0078V28.7422C293.914 27.9036 294.073 27.1562 294.391 26.5C294.714 25.8385 295.161 25.3229 295.734 24.9531C296.312 24.5781 296.938 24.3906 297.609 24.3906C298.708 24.3906 299.562 24.7526 300.172 25.4766C300.781 26.2005 301.086 27.237 301.086 28.5859V29.1875H295.359C295.38 30.0208 295.622 30.6953 296.086 31.2109C296.555 31.7214 297.148 31.9766 297.867 31.9766C298.378 31.9766 298.81 31.8724 299.164 31.6641C299.518 31.4557 299.828 31.1797 300.094 30.8359L300.977 31.5234C300.268 32.612 299.206 33.1562 297.789 33.1562ZM297.609 25.5781C297.026 25.5781 296.536 25.7917 296.141 26.2188C295.745 26.6406 295.5 27.2344 295.406 28H299.641V27.8906C299.599 27.1562 299.401 26.5885 299.047 26.1875C298.693 25.7812 298.214 25.5781 297.609 25.5781ZM304.336 33H302.891V21H304.336V33ZM308.227 33H306.781V21H308.227V33ZM314.055 33.1562C312.909 33.1562 311.977 32.7812 311.258 32.0312C310.539 31.276 310.18 30.2682 310.18 29.0078V28.7422C310.18 27.9036 310.339 27.1562 310.656 26.5C310.979 25.8385 311.427 25.3229 312 24.9531C312.578 24.5781 313.203 24.3906 313.875 24.3906C314.974 24.3906 315.828 24.7526 316.438 25.4766C317.047 26.2005 317.352 27.237 317.352 28.5859V29.1875H311.625C311.646 30.0208 311.888 30.6953 312.352 31.2109C312.82 31.7214 313.414 31.9766 314.133 31.9766C314.643 31.9766 315.076 31.8724 315.43 31.6641C315.784 31.4557 316.094 31.1797 316.359 30.8359L317.242 31.5234C316.534 32.612 315.471 33.1562 314.055 33.1562ZM313.875 25.5781C313.292 25.5781 312.802 25.7917 312.406 26.2188C312.01 26.6406 311.766 27.2344 311.672 28H315.906V27.8906C315.865 27.1562 315.667 26.5885 315.312 26.1875C314.958 25.7812 314.479 25.5781 313.875 25.5781ZM320.398 24.5469L320.445 25.6094C321.091 24.7969 321.935 24.3906 322.977 24.3906C324.763 24.3906 325.664 25.3984 325.68 27.4141V33H324.234V27.4062C324.229 26.7969 324.089 26.3464 323.812 26.0547C323.542 25.763 323.117 25.6172 322.539 25.6172C322.07 25.6172 321.659 25.7422 321.305 25.9922C320.951 26.2422 320.674 26.5703 320.477 26.9766V33H319.031V24.5469H320.398ZM329.82 22.5V24.5469H331.398V25.6641H329.82V30.9062C329.82 31.2448 329.891 31.5 330.031 31.6719C330.172 31.8385 330.411 31.9219 330.75 31.9219C330.917 31.9219 331.146 31.8906 331.438 31.8281V33C331.057 33.1042 330.688 33.1562 330.328 33.1562C329.682 33.1562 329.195 32.9609 328.867 32.5703C328.539 32.1797 328.375 31.625 328.375 30.9062V25.6641H326.836V24.5469H328.375V22.5H329.82Z" fill="#22FFD0"/>
<path fill-rule="evenodd" clip-rule="evenodd" d="M303 73L310.966 50.3741H315.216L312.87 57.0377H320.308L324.546 45H328.796L320.831 67.6264H316.58L319.148 60.333H311.71L307.25 73H303Z" fill="white"/>
</svg>
