<svg width="488" height="266" viewBox="0 0 488 266" fill="none" xmlns="http://www.w3.org/2000/svg">
<g filter="url(#filter0_dddddd_3298_18168)">
<rect x="81" y="1" width="362" height="94" rx="47" fill="white" stroke="#F0F0F0" stroke-width="2"/>
<path d="M124.926 38.9258V40.7656H124.527C122.84 40.7969 121.496 41.2969 120.496 42.2656C119.496 43.2344 118.918 44.5977 118.762 46.3555C119.66 45.3242 120.887 44.8086 122.441 44.8086C123.926 44.8086 125.109 45.332 125.992 46.3789C126.883 47.4258 127.328 48.7773 127.328 50.4336C127.328 52.1914 126.848 53.5977 125.887 54.6523C124.934 55.707 123.652 56.2344 122.043 56.2344C120.41 56.2344 119.086 55.6094 118.07 54.3594C117.055 53.1016 116.547 51.4844 116.547 49.5078V48.6758C116.547 45.5352 117.215 43.1367 118.551 41.4805C119.895 39.8164 121.891 38.9648 124.539 38.9258H124.926ZM122.078 46.6133C121.336 46.6133 120.652 46.8359 120.027 47.2812C119.402 47.7266 118.969 48.2852 118.727 48.957V49.7539C118.727 51.1602 119.043 52.293 119.676 53.1523C120.309 54.0117 121.098 54.4414 122.043 54.4414C123.02 54.4414 123.785 54.082 124.34 53.3633C124.902 52.6445 125.184 51.7031 125.184 50.5391C125.184 49.3672 124.898 48.4219 124.328 47.7031C123.766 46.9766 123.016 46.6133 122.078 46.6133ZM140.91 40.1562L133.844 56H131.57L138.613 40.7188H129.379V38.9375H140.91V40.1562Z" fill="#021449"/>
<path d="M162 48C162 66.7777 146.778 82 128 82C109.222 82 94 66.7777 94 48C94 29.2223 109.222 14 128 14C146.778 14 162 29.2223 162 48ZM99.6738 48C99.6738 63.6441 112.356 76.3262 128 76.3262C143.644 76.3262 156.326 63.6441 156.326 48C156.326 32.3559 143.644 19.6738 128 19.6738C112.356 19.6738 99.6738 32.3559 99.6738 48Z" fill="#F0F0F0"/>
<g filter="url(#filter1_d_3298_18168)">
<path d="M125.228 16.9392C125.09 15.3903 126.235 14.0103 127.79 14.0006C132.42 13.972 137.019 14.8897 141.299 16.7087C146.445 18.8957 150.972 22.318 154.479 26.6725C157.986 31.027 160.366 36.1793 161.406 41.6729C162.447 47.1666 162.116 52.8321 160.444 58.1676C158.772 63.503 155.81 68.3438 151.82 72.261C147.83 76.1783 142.936 79.0511 137.571 80.6251C132.206 82.199 126.535 82.4255 121.061 81.2845C116.509 80.3354 112.209 78.4647 108.423 75.7983C107.152 74.9029 106.999 73.1164 107.997 71.9233C108.994 70.7303 110.763 70.5849 112.049 71.4593C115.114 73.543 118.565 75.0114 122.211 75.7714C126.778 76.7234 131.509 76.5345 135.986 75.2212C140.462 73.908 144.546 71.511 147.875 68.2425C151.204 64.9741 153.675 60.9352 155.07 56.4834C156.465 52.0317 156.741 47.3046 155.873 42.7209C155.005 38.1372 153.02 33.8383 150.093 30.2051C147.167 26.5718 143.389 23.7164 139.096 21.8917C135.669 20.435 131.997 19.6711 128.291 19.6331C126.736 19.6171 125.366 18.4882 125.228 16.9392Z" fill="#FFCA3A"/>
</g>
<path d="M190.109 34.4883C189.934 35.9922 189.377 37.1543 188.439 37.9746C187.508 38.7884 186.268 39.1953 184.719 39.1953C183.039 39.1953 181.691 38.5931 180.676 37.3887C179.667 36.1842 179.162 34.5729 179.162 32.5547V31.1875C179.162 29.8659 179.396 28.7038 179.865 27.7012C180.34 26.6986 181.011 25.9303 181.877 25.3965C182.743 24.8561 183.745 24.5859 184.885 24.5859C186.395 24.5859 187.606 25.0091 188.518 25.8555C189.429 26.6953 189.96 27.8607 190.109 29.3516H188.225C188.062 28.2188 187.707 27.3984 187.16 26.8906C186.62 26.3828 185.861 26.1289 184.885 26.1289C183.687 26.1289 182.746 26.5716 182.062 27.457C181.385 28.3424 181.047 29.6022 181.047 31.2363V32.6133C181.047 34.1562 181.369 35.3835 182.014 36.2949C182.658 37.2064 183.56 37.6621 184.719 37.6621C185.76 37.6621 186.558 37.4277 187.111 36.959C187.671 36.4837 188.042 35.6602 188.225 34.4883H190.109ZM198.918 37.9551C198.215 38.7819 197.183 39.1953 195.822 39.1953C194.696 39.1953 193.837 38.8698 193.244 38.2188C192.658 37.5612 192.362 36.5911 192.355 35.3086V28.4336H194.162V35.2598C194.162 36.8613 194.813 37.6621 196.115 37.6621C197.495 37.6621 198.413 37.1478 198.869 36.1191V28.4336H200.676V39H198.957L198.918 37.9551ZM208.537 30.0547C208.264 30.0091 207.967 29.9863 207.648 29.9863C206.464 29.9863 205.66 30.4909 205.236 31.5V39H203.43V28.4336H205.188L205.217 29.6543C205.809 28.7103 206.649 28.2383 207.736 28.2383C208.088 28.2383 208.355 28.2839 208.537 28.375V30.0547ZM215.314 30.0547C215.041 30.0091 214.745 29.9863 214.426 29.9863C213.241 29.9863 212.437 30.4909 212.014 31.5V39H210.207V28.4336H211.965L211.994 29.6543C212.587 28.7103 213.426 28.2383 214.514 28.2383C214.865 28.2383 215.132 28.2839 215.314 28.375V30.0547ZM221.174 39.1953C219.742 39.1953 218.576 38.7266 217.678 37.7891C216.779 36.8451 216.33 35.5853 216.33 34.0098V33.6777C216.33 32.6296 216.529 31.6953 216.926 30.875C217.329 30.0482 217.889 29.4036 218.605 28.9414C219.328 28.4727 220.109 28.2383 220.949 28.2383C222.323 28.2383 223.391 28.6908 224.152 29.5957C224.914 30.5007 225.295 31.7962 225.295 33.4824V34.2344H218.137C218.163 35.276 218.465 36.1191 219.045 36.7637C219.631 37.4017 220.373 37.7207 221.271 37.7207C221.91 37.7207 222.45 37.5905 222.893 37.3301C223.335 37.0697 223.723 36.7246 224.055 36.2949L225.158 37.1543C224.273 38.515 222.945 39.1953 221.174 39.1953ZM220.949 29.7227C220.22 29.7227 219.608 29.9896 219.113 30.5234C218.618 31.0508 218.312 31.793 218.195 32.75H223.488V32.6133C223.436 31.6953 223.189 30.9857 222.746 30.4844C222.303 29.9766 221.704 29.7227 220.949 29.7227ZM229.104 28.4336L229.162 29.7617C229.969 28.7461 231.024 28.2383 232.326 28.2383C234.559 28.2383 235.686 29.498 235.705 32.0176V39H233.898V32.0078C233.892 31.2461 233.716 30.6829 233.371 30.3184C233.033 29.9538 232.502 29.7715 231.779 29.7715C231.193 29.7715 230.679 29.9277 230.236 30.2402C229.794 30.5527 229.449 30.9629 229.201 31.4707V39H227.395V28.4336H229.104ZM240.881 25.875V28.4336H242.854V29.8301H240.881V36.3828C240.881 36.806 240.969 37.125 241.145 37.3398C241.32 37.5482 241.62 37.6523 242.043 37.6523C242.251 37.6523 242.538 37.6133 242.902 37.5352V39C242.427 39.1302 241.965 39.1953 241.516 39.1953C240.708 39.1953 240.1 38.9512 239.689 38.4629C239.279 37.9746 239.074 37.2812 239.074 36.3828V29.8301H237.15V28.4336H239.074V25.875H240.881ZM258.068 35.2891H252.111L250.773 39H248.84L254.27 24.7812H255.91L261.35 39H259.426L258.068 35.2891ZM252.678 33.7461H257.512L255.09 27.0957L252.678 33.7461ZM264.943 39H263.137V28.4336H264.943V39ZM262.99 25.6309C262.99 25.3379 263.078 25.0905 263.254 24.8887C263.436 24.6868 263.703 24.5859 264.055 24.5859C264.406 24.5859 264.673 24.6868 264.855 24.8887C265.038 25.0905 265.129 25.3379 265.129 25.6309C265.129 25.9238 265.038 26.168 264.855 26.3633C264.673 26.5586 264.406 26.6562 264.055 26.6562C263.703 26.6562 263.436 26.5586 263.254 26.3633C263.078 26.168 262.99 25.9238 262.99 25.6309ZM272.951 30.0547C272.678 30.0091 272.382 29.9863 272.062 29.9863C270.878 29.9863 270.074 30.4909 269.65 31.5V39H267.844V28.4336H269.602L269.631 29.6543C270.223 28.7103 271.063 28.2383 272.15 28.2383C272.502 28.2383 272.769 28.2839 272.951 28.375V30.0547ZM290.725 32.3496C290.725 33.7233 290.507 34.9082 290.07 35.9043C289.634 36.8939 289.022 37.6686 288.234 38.2285L290.773 40.2207L289.494 41.4023L286.496 39.0195C286.027 39.1367 285.533 39.1953 285.012 39.1953C283.892 39.1953 282.899 38.9219 282.033 38.375C281.167 37.8216 280.493 37.0371 280.012 36.0215C279.536 34.9993 279.292 33.8177 279.279 32.4766V31.4512C279.279 30.084 279.517 28.8763 279.992 27.8281C280.467 26.7799 281.138 25.9792 282.004 25.4258C282.876 24.8659 283.872 24.5859 284.992 24.5859C286.138 24.5859 287.144 24.8626 288.01 25.416C288.882 25.9694 289.553 26.7669 290.021 27.8086C290.49 28.8438 290.725 30.0547 290.725 31.4414V32.3496ZM288.85 31.4316C288.85 29.7585 288.514 28.4694 287.844 27.5645C287.18 26.653 286.229 26.1973 284.992 26.1973C283.814 26.1973 282.883 26.6497 282.199 27.5547C281.522 28.4531 281.174 29.7031 281.154 31.3047V32.3496C281.154 33.9772 281.493 35.2598 282.17 36.1973C282.854 37.1348 283.801 37.6035 285.012 37.6035C286.223 37.6035 287.16 37.1641 287.824 36.2852C288.488 35.3997 288.83 34.1335 288.85 32.4863V31.4316ZM299.855 37.9551C299.152 38.7819 298.12 39.1953 296.76 39.1953C295.633 39.1953 294.774 38.8698 294.182 38.2188C293.596 37.5612 293.299 36.5911 293.293 35.3086V28.4336H295.1V35.2598C295.1 36.8613 295.751 37.6621 297.053 37.6621C298.433 37.6621 299.351 37.1478 299.807 36.1191V28.4336H301.613V39H299.895L299.855 37.9551ZM310.891 39C310.786 38.7917 310.702 38.4206 310.637 37.8867C309.797 38.7591 308.794 39.1953 307.629 39.1953C306.587 39.1953 305.731 38.9023 305.061 38.3164C304.396 37.724 304.064 36.9753 304.064 36.0703C304.064 34.9701 304.481 34.1172 305.314 33.5117C306.154 32.8997 307.333 32.5938 308.85 32.5938H310.607V31.7637C310.607 31.1322 310.419 30.6309 310.041 30.2598C309.663 29.8822 309.107 29.6934 308.371 29.6934C307.727 29.6934 307.186 29.8561 306.75 30.1816C306.314 30.5072 306.096 30.901 306.096 31.3633H304.279C304.279 30.8359 304.465 30.3281 304.836 29.8398C305.214 29.3451 305.721 28.9544 306.359 28.668C307.004 28.3815 307.71 28.2383 308.479 28.2383C309.696 28.2383 310.65 28.5443 311.34 29.1562C312.03 29.7617 312.388 30.5983 312.414 31.666V36.5293C312.414 37.4993 312.538 38.2708 312.785 38.8438V39H310.891ZM307.893 37.623C308.459 37.623 308.996 37.4766 309.504 37.1836C310.012 36.8906 310.38 36.5098 310.607 36.041V33.873H309.191C306.978 33.873 305.871 34.5208 305.871 35.8164C305.871 36.3828 306.06 36.8255 306.438 37.1445C306.815 37.4635 307.3 37.623 307.893 37.623ZM317.209 39H315.402V24H317.209V39ZM322.072 39H320.266V28.4336H322.072V39ZM320.119 25.6309C320.119 25.3379 320.207 25.0905 320.383 24.8887C320.565 24.6868 320.832 24.5859 321.184 24.5859C321.535 24.5859 321.802 24.6868 321.984 24.8887C322.167 25.0905 322.258 25.3379 322.258 25.6309C322.258 25.9238 322.167 26.168 321.984 26.3633C321.802 26.5586 321.535 26.6562 321.184 26.6562C320.832 26.6562 320.565 26.5586 320.383 26.3633C320.207 26.168 320.119 25.9238 320.119 25.6309ZM327.424 25.875V28.4336H329.396V29.8301H327.424V36.3828C327.424 36.806 327.512 37.125 327.688 37.3398C327.863 37.5482 328.163 37.6523 328.586 37.6523C328.794 37.6523 329.081 37.6133 329.445 37.5352V39C328.97 39.1302 328.508 39.1953 328.059 39.1953C327.251 39.1953 326.643 38.9512 326.232 38.4629C325.822 37.9746 325.617 37.2812 325.617 36.3828V29.8301H323.693V28.4336H325.617V25.875H327.424ZM334.973 36.3535L337.434 28.4336H339.367L335.119 40.6309C334.462 42.3887 333.417 43.2676 331.984 43.2676L331.643 43.2383L330.969 43.1113V41.6465L331.457 41.6855C332.069 41.6855 332.544 41.5618 332.883 41.3145C333.228 41.0671 333.511 40.6146 333.732 39.957L334.133 38.8828L330.363 28.4336H332.336L334.973 36.3535Z" fill="#021449"/>
<path d="M182.117 58.625L185.836 67.9062L189.555 58.625H191.5V70H190V65.5703L190.141 60.7891L186.406 70H185.258L181.531 60.8125L181.68 65.5703V70H180.18V58.625H182.117ZM193.539 65.6953C193.539 64.8672 193.701 64.1224 194.023 63.4609C194.352 62.7995 194.805 62.2891 195.383 61.9297C195.966 61.5703 196.63 61.3906 197.375 61.3906C198.526 61.3906 199.456 61.7891 200.164 62.5859C200.878 63.3828 201.234 64.4427 201.234 65.7656V65.8672C201.234 66.6901 201.076 67.4297 200.758 68.0859C200.445 68.737 199.995 69.2448 199.406 69.6094C198.823 69.974 198.151 70.1562 197.391 70.1562C196.245 70.1562 195.315 69.7578 194.602 68.9609C193.893 68.1641 193.539 67.1094 193.539 65.7969V65.6953ZM194.992 65.8672C194.992 66.8047 195.208 67.5573 195.641 68.125C196.078 68.6927 196.661 68.9766 197.391 68.9766C198.125 68.9766 198.708 68.6901 199.141 68.1172C199.573 67.5391 199.789 66.7318 199.789 65.6953C199.789 64.7682 199.568 64.0182 199.125 63.4453C198.688 62.8672 198.104 62.5781 197.375 62.5781C196.661 62.5781 196.086 62.862 195.648 63.4297C195.211 63.9974 194.992 64.8099 194.992 65.8672ZM202.695 65.7031C202.695 64.4062 203.003 63.3646 203.617 62.5781C204.232 61.7865 205.036 61.3906 206.031 61.3906C207.021 61.3906 207.805 61.7292 208.383 62.4062V58H209.828V70H208.5L208.43 69.0938C207.852 69.8021 207.047 70.1562 206.016 70.1562C205.036 70.1562 204.237 69.7552 203.617 68.9531C203.003 68.151 202.695 67.1042 202.695 65.8125V65.7031ZM204.141 65.8672C204.141 66.8255 204.339 67.5755 204.734 68.1172C205.13 68.6589 205.677 68.9297 206.375 68.9297C207.292 68.9297 207.961 68.5182 208.383 67.6953V63.8125C207.951 63.0156 207.286 62.6172 206.391 62.6172C205.682 62.6172 205.13 62.8906 204.734 63.4375C204.339 63.9844 204.141 64.7943 204.141 65.8672ZM215.586 70.1562C214.44 70.1562 213.508 69.7812 212.789 69.0312C212.07 68.276 211.711 67.2682 211.711 66.0078V65.7422C211.711 64.9036 211.87 64.1562 212.188 63.5C212.51 62.8385 212.958 62.3229 213.531 61.9531C214.109 61.5781 214.734 61.3906 215.406 61.3906C216.505 61.3906 217.359 61.7526 217.969 62.4766C218.578 63.2005 218.883 64.237 218.883 65.5859V66.1875H213.156C213.177 67.0208 213.419 67.6953 213.883 68.2109C214.352 68.7214 214.945 68.9766 215.664 68.9766C216.174 68.9766 216.607 68.8724 216.961 68.6641C217.315 68.4557 217.625 68.1797 217.891 67.8359L218.773 68.5234C218.065 69.612 217.003 70.1562 215.586 70.1562ZM215.406 62.5781C214.823 62.5781 214.333 62.7917 213.938 63.2188C213.542 63.6406 213.297 64.2344 213.203 65H217.438V64.8906C217.396 64.1562 217.198 63.5885 216.844 63.1875C216.49 62.7812 216.01 62.5781 215.406 62.5781ZM224.648 62.8438C224.43 62.8073 224.193 62.7891 223.938 62.7891C222.99 62.7891 222.346 63.1927 222.008 64V70H220.562V61.5469H221.969L221.992 62.5234C222.466 61.7682 223.138 61.3906 224.008 61.3906C224.289 61.3906 224.503 61.4271 224.648 61.5V62.8438ZM230.891 70C230.807 69.8333 230.74 69.5365 230.688 69.1094C230.016 69.8073 229.214 70.1562 228.281 70.1562C227.448 70.1562 226.763 69.9219 226.227 69.4531C225.695 68.9792 225.43 68.3802 225.43 67.6562C225.43 66.776 225.763 66.0938 226.43 65.6094C227.102 65.1198 228.044 64.875 229.258 64.875H230.664V64.2109C230.664 63.7057 230.513 63.3047 230.211 63.0078C229.909 62.7057 229.464 62.5547 228.875 62.5547C228.359 62.5547 227.927 62.6849 227.578 62.9453C227.229 63.2057 227.055 63.5208 227.055 63.8906H225.602C225.602 63.4688 225.75 63.0625 226.047 62.6719C226.349 62.276 226.755 61.9635 227.266 61.7344C227.781 61.5052 228.346 61.3906 228.961 61.3906C229.935 61.3906 230.698 61.6354 231.25 62.125C231.802 62.6094 232.089 63.2786 232.109 64.1328V68.0234C232.109 68.7995 232.208 69.4167 232.406 69.875V70H230.891ZM228.492 68.8984C228.945 68.8984 229.375 68.7812 229.781 68.5469C230.188 68.3125 230.482 68.0078 230.664 67.6328V65.8984H229.531C227.76 65.8984 226.875 66.4167 226.875 67.4531C226.875 67.9062 227.026 68.2604 227.328 68.5156C227.63 68.7708 228.018 68.8984 228.492 68.8984ZM236.336 59.5V61.5469H237.914V62.6641H236.336V67.9062C236.336 68.2448 236.406 68.5 236.547 68.6719C236.688 68.8385 236.927 68.9219 237.266 68.9219C237.432 68.9219 237.661 68.8906 237.953 68.8281V70C237.573 70.1042 237.203 70.1562 236.844 70.1562C236.198 70.1562 235.711 69.9609 235.383 69.5703C235.055 69.1797 234.891 68.625 234.891 67.9062V62.6641H233.352V61.5469H234.891V59.5H236.336ZM243.117 70.1562C241.971 70.1562 241.039 69.7812 240.32 69.0312C239.602 68.276 239.242 67.2682 239.242 66.0078V65.7422C239.242 64.9036 239.401 64.1562 239.719 63.5C240.042 62.8385 240.49 62.3229 241.062 61.9531C241.641 61.5781 242.266 61.3906 242.938 61.3906C244.036 61.3906 244.891 61.7526 245.5 62.4766C246.109 63.2005 246.414 64.237 246.414 65.5859V66.1875H240.688C240.708 67.0208 240.951 67.6953 241.414 68.2109C241.883 68.7214 242.477 68.9766 243.195 68.9766C243.706 68.9766 244.138 68.8724 244.492 68.6641C244.846 68.4557 245.156 68.1797 245.422 67.8359L246.305 68.5234C245.596 69.612 244.534 70.1562 243.117 70.1562ZM242.938 62.5781C242.354 62.5781 241.865 62.7917 241.469 63.2188C241.073 63.6406 240.828 64.2344 240.734 65H244.969V64.8906C244.927 64.1562 244.729 63.5885 244.375 63.1875C244.021 62.7812 243.542 62.5781 242.938 62.5781Z" fill="#FFCA3A"/>
<path fill-rule="evenodd" clip-rule="evenodd" d="M383 62L390.966 39.3741H395.216L392.87 46.0377H400.308L404.546 34H408.796L400.831 56.6264H396.58L399.148 49.333H391.71L387.25 62H383Z" fill="#1D213C"/>
</g>
<defs>
<filter id="filter0_dddddd_3298_18168" x="0" y="0" width="524" height="276" filterUnits="userSpaceOnUse" color-interpolation-filters="sRGB">
<feFlood flood-opacity="0" result="BackgroundImageFix"/>
<feColorMatrix in="SourceAlpha" type="matrix" values="0 0 0 0 0 0 0 0 0 0 0 0 0 0 0 0 0 0 127 0" result="hardAlpha"/>
<feOffset dy="2.76726"/>
<feGaussianBlur stdDeviation="1.1069"/>
<feColorMatrix type="matrix" values="0 0 0 0 0.851562 0 0 0 0 0.86875 0 0 0 0 0.9375 0 0 0 0.0337375 0"/>
<feBlend mode="normal" in2="BackgroundImageFix" result="effect1_dropShadow_3298_18168"/>
<feColorMatrix in="SourceAlpha" type="matrix" values="0 0 0 0 0 0 0 0 0 0 0 0 0 0 0 0 0 0 127 0" result="hardAlpha"/>
<feOffset dy="6.6501"/>
<feGaussianBlur stdDeviation="2.66004"/>
<feColorMatrix type="matrix" values="0 0 0 0 0.85098 0 0 0 0 0.870588 0 0 0 0 0.937255 0 0 0 0.0484671 0"/>
<feBlend mode="normal" in2="effect1_dropShadow_3298_18168" result="effect2_dropShadow_3298_18168"/>
<feColorMatrix in="SourceAlpha" type="matrix" values="0 0 0 0 0 0 0 0 0 0 0 0 0 0 0 0 0 0 127 0" result="hardAlpha"/>
<feOffset dy="12.5216"/>
<feGaussianBlur stdDeviation="5.00862"/>
<feColorMatrix type="matrix" values="0 0 0 0 0.85098 0 0 0 0 0.870588 0 0 0 0 0.937255 0 0 0 0.06 0"/>
<feBlend mode="normal" in2="effect2_dropShadow_3298_18168" result="effect3_dropShadow_3298_18168"/>
<feColorMatrix in="SourceAlpha" type="matrix" values="0 0 0 0 0 0 0 0 0 0 0 0 0 0 0 0 0 0 127 0" result="hardAlpha"/>
<feOffset dy="22.3363"/>
<feGaussianBlur stdDeviation="8.93452"/>
<feColorMatrix type="matrix" values="0 0 0 0 0.85098 0 0 0 0 0.870588 0 0 0 0 0.937255 0 0 0 0.0715329 0"/>
<feBlend mode="normal" in2="effect3_dropShadow_3298_18168" result="effect4_dropShadow_3298_18168"/>
<feColorMatrix in="SourceAlpha" type="matrix" values="0 0 0 0 0 0 0 0 0 0 0 0 0 0 0 0 0 0 127 0" result="hardAlpha"/>
<feOffset dy="41.7776"/>
<feGaussianBlur stdDeviation="16.711"/>
<feColorMatrix type="matrix" values="0 0 0 0 0.85098 0 0 0 0 0.870588 0 0 0 0 0.937255 0 0 0 0.0862625 0"/>
<feBlend mode="normal" in2="effect4_dropShadow_3298_18168" result="effect5_dropShadow_3298_18168"/>
<feColorMatrix in="SourceAlpha" type="matrix" values="0 0 0 0 0 0 0 0 0 0 0 0 0 0 0 0 0 0 127 0" result="hardAlpha"/>
<feOffset dy="100"/>
<feGaussianBlur stdDeviation="40"/>
<feColorMatrix type="matrix" values="0 0 0 0 0.85098 0 0 0 0 0.870588 0 0 0 0 0.937255 0 0 0 0.12 0"/>
<feBlend mode="normal" in2="effect5_dropShadow_3298_18168" result="effect6_dropShadow_3298_18168"/>
<feBlend mode="normal" in="SourceGraphic" in2="effect6_dropShadow_3298_18168" result="shape"/>
</filter>
<filter id="filter1_d_3298_18168" x="99.3452" y="6" width="70.6548" height="84" filterUnits="userSpaceOnUse" color-interpolation-filters="sRGB">
<feFlood flood-opacity="0" result="BackgroundImageFix"/>
<feColorMatrix in="SourceAlpha" type="matrix" values="0 0 0 0 0 0 0 0 0 0 0 0 0 0 0 0 0 0 127 0" result="hardAlpha"/>
<feOffset/>
<feGaussianBlur stdDeviation="4"/>
<feColorMatrix type="matrix" values="0 0 0 0 0.770833 0 0 0 0 0.426592 0 0 0 0 0.0224826 0 0 0 0.4 0"/>
<feBlend mode="normal" in2="BackgroundImageFix" result="effect1_dropShadow_3298_18168"/>
<feBlend mode="normal" in="SourceGraphic" in2="effect1_dropShadow_3298_18168" result="shape"/>
</filter>
</defs>
</svg>
