<svg width="522" height="1103" viewBox="0 0 522 1103" fill="none" xmlns="http://www.w3.org/2000/svg">
<rect width="522" height="1103" fill="white"/>
<rect x="103" y="55" width="316" height="214" rx="20" fill="url(#paint0_linear_3940_23127)"/>
<path d="M331.648 94.085H326.103V98.6201H332.545V100H324.415V87.2031H332.457V88.5918H326.103V92.7051H331.648V94.085ZM337.581 93.9619L339.69 90.4902H341.589L338.478 95.1924L341.686 100H339.805L337.607 96.4404L335.41 100H333.521L336.729 95.1924L333.617 90.4902H335.498L337.581 93.9619ZM346.959 98.8486C347.539 98.8486 348.046 98.6729 348.479 98.3213C348.913 97.9697 349.153 97.5303 349.2 97.0029H350.738C350.709 97.5479 350.521 98.0664 350.176 98.5586C349.83 99.0508 349.367 99.4434 348.787 99.7363C348.213 100.029 347.604 100.176 346.959 100.176C345.664 100.176 344.633 99.7451 343.865 98.8838C343.104 98.0166 342.723 96.833 342.723 95.333V95.0605C342.723 94.1348 342.893 93.3115 343.232 92.5908C343.572 91.8701 344.059 91.3105 344.691 90.9121C345.33 90.5137 346.083 90.3145 346.95 90.3145C348.017 90.3145 348.901 90.6338 349.604 91.2725C350.313 91.9111 350.691 92.7402 350.738 93.7598H349.2C349.153 93.1445 348.919 92.6406 348.497 92.248C348.081 91.8496 347.565 91.6504 346.95 91.6504C346.124 91.6504 345.482 91.9492 345.025 92.5469C344.574 93.1387 344.349 93.9971 344.349 95.1221V95.4297C344.349 96.5254 344.574 97.3691 345.025 97.9609C345.477 98.5527 346.121 98.8486 346.959 98.8486ZM356.513 100.176C355.224 100.176 354.175 99.7539 353.366 98.9102C352.558 98.0605 352.153 96.9268 352.153 95.5088V95.21C352.153 94.2666 352.332 93.4258 352.689 92.6875C353.053 91.9434 353.557 91.3633 354.201 90.9473C354.852 90.5254 355.555 90.3145 356.311 90.3145C357.547 90.3145 358.508 90.7217 359.193 91.5361C359.879 92.3506 360.222 93.5166 360.222 95.0342V95.7109H353.779C353.803 96.6484 354.075 97.4072 354.597 97.9873C355.124 98.5615 355.792 98.8486 356.601 98.8486C357.175 98.8486 357.661 98.7314 358.06 98.4971C358.458 98.2627 358.807 97.9521 359.105 97.5654L360.099 98.3389C359.302 99.5635 358.106 100.176 356.513 100.176ZM356.311 91.6504C355.654 91.6504 355.104 91.8906 354.658 92.3711C354.213 92.8457 353.938 93.5137 353.832 94.375H358.596V94.252C358.549 93.4258 358.326 92.7871 357.928 92.3359C357.529 91.8789 356.99 91.6504 356.311 91.6504ZM363.878 100H362.252V86.5H363.878V100ZM368.255 100H366.629V86.5H368.255V100ZM374.812 100.176C373.522 100.176 372.474 99.7539 371.665 98.9102C370.856 98.0605 370.452 96.9268 370.452 95.5088V95.21C370.452 94.2666 370.631 93.4258 370.988 92.6875C371.352 91.9434 371.855 91.3633 372.5 90.9473C373.15 90.5254 373.854 90.3145 374.609 90.3145C375.846 90.3145 376.807 90.7217 377.492 91.5361C378.178 92.3506 378.521 93.5166 378.521 95.0342V95.7109H372.078C372.102 96.6484 372.374 97.4072 372.896 97.9873C373.423 98.5615 374.091 98.8486 374.899 98.8486C375.474 98.8486 375.96 98.7314 376.358 98.4971C376.757 98.2627 377.105 97.9521 377.404 97.5654L378.397 98.3389C377.601 99.5635 376.405 100.176 374.812 100.176ZM374.609 91.6504C373.953 91.6504 373.402 91.8906 372.957 92.3711C372.512 92.8457 372.236 93.5137 372.131 94.375H376.895V94.252C376.848 93.4258 376.625 92.7871 376.227 92.3359C375.828 91.8789 375.289 91.6504 374.609 91.6504ZM381.948 90.4902L382.001 91.6855C382.728 90.7715 383.677 90.3145 384.849 90.3145C386.858 90.3145 387.872 91.4482 387.89 93.7158V100H386.264V93.707C386.258 93.0215 386.1 92.5146 385.789 92.1865C385.484 91.8584 385.007 91.6943 384.356 91.6943C383.829 91.6943 383.366 91.835 382.968 92.1162C382.569 92.3975 382.259 92.7666 382.036 93.2236V100H380.41V90.4902H381.948ZM392.548 88.1875V90.4902H394.323V91.7471H392.548V97.6445C392.548 98.0254 392.627 98.3125 392.785 98.5059C392.943 98.6934 393.213 98.7871 393.594 98.7871C393.781 98.7871 394.039 98.752 394.367 98.6816V100C393.939 100.117 393.523 100.176 393.119 100.176C392.393 100.176 391.845 99.9561 391.476 99.5166C391.106 99.0771 390.922 98.4531 390.922 97.6445V91.7471H389.19V90.4902H390.922V88.1875H392.548Z" fill="#02C39A"/>
<path d="M159.776 109.023V94.11C159.776 92.8431 159.273 91.6282 158.377 90.7324C157.482 89.8366 156.267 89.3333 155 89.3333C153.733 89.3333 152.518 89.8366 151.622 90.7324C150.726 91.6282 150.223 92.8431 150.223 94.11V109.023C148.703 110.047 147.551 111.531 146.938 113.259C146.325 114.986 146.282 116.865 146.817 118.618C147.352 120.371 148.436 121.906 149.909 122.996C151.382 124.087 153.167 124.676 155 124.676C156.833 124.676 158.617 124.087 160.09 122.996C161.563 121.906 162.647 120.371 163.182 118.618C163.717 116.865 163.675 114.986 163.062 113.259C162.449 111.531 161.297 110.047 159.776 109.023ZM155 122.667C153.558 122.667 152.156 122.192 151.012 121.314C149.868 120.437 149.045 119.206 148.672 117.814C148.298 116.421 148.394 114.944 148.946 113.612C149.497 112.279 150.473 111.166 151.721 110.445C151.874 110.357 152 110.231 152.088 110.079C152.175 109.927 152.222 109.754 152.221 109.578V94.11C152.222 93.3736 152.515 92.6676 153.036 92.147C153.557 91.6264 154.263 91.3338 155 91.3333C155.363 91.3311 155.722 91.4008 156.058 91.5384C156.393 91.676 156.698 91.8788 156.955 92.135C157.216 92.3935 157.423 92.7011 157.564 93.0401C157.705 93.3792 157.777 93.7428 157.776 94.11V109.578C157.776 109.754 157.823 109.927 157.91 110.079C157.998 110.231 158.124 110.357 158.276 110.445C159.525 111.166 160.501 112.279 161.052 113.611C161.603 114.943 161.7 116.42 161.327 117.813C160.953 119.205 160.131 120.436 158.987 121.314C157.843 122.191 156.442 122.667 155 122.667ZM160 116.132C160 117.078 159.732 118.004 159.226 118.804C158.72 119.604 157.998 120.244 157.144 120.649C156.289 121.055 155.337 121.21 154.397 121.096C153.458 120.982 152.571 120.604 151.838 120.005C151.105 119.407 150.557 118.613 150.257 117.716C149.958 116.818 149.919 115.854 150.145 114.936C150.372 114.017 150.854 113.182 151.536 112.526C152.219 111.871 153.073 111.423 154 111.233V99.5C154 99.2348 154.105 98.9804 154.293 98.7929C154.48 98.6054 154.735 98.5 155 98.5C155.265 98.5 155.519 98.6054 155.707 98.7929C155.894 98.9804 156 99.2348 156 99.5V111.233C157.129 111.464 158.144 112.077 158.873 112.97C159.601 113.862 160 114.979 160 116.132Z" fill="#4E7CFF"/>
<path d="M159.234 157.492L144.656 190H141.727L156.211 158.266H136.805V155.875H159.234V157.492ZM186.211 190H164.836V187.844L176.531 174.578C178.469 172.344 179.812 170.5 180.562 169.047C181.312 167.594 181.688 166.18 181.688 164.805C181.688 162.648 181.055 160.945 179.789 159.695C178.523 158.43 176.781 157.797 174.562 157.797C172.266 157.797 170.406 158.531 168.984 160C167.578 161.469 166.875 163.375 166.875 165.719H164.086C164.086 163.797 164.516 162.047 165.375 160.469C166.25 158.891 167.484 157.656 169.078 156.766C170.688 155.859 172.516 155.406 174.562 155.406C177.688 155.406 180.125 156.227 181.875 157.867C183.641 159.508 184.523 161.742 184.523 164.57C184.523 166.164 184.023 167.906 183.023 169.797C182.039 171.688 180.297 174.047 177.797 176.875L168.281 187.633H186.211V190ZM191.648 188.312C191.648 187.766 191.82 187.305 192.164 186.93C192.523 186.539 193.016 186.344 193.641 186.344C194.266 186.344 194.758 186.539 195.117 186.93C195.477 187.305 195.656 187.766 195.656 188.312C195.656 188.859 195.477 189.312 195.117 189.672C194.758 190.016 194.266 190.188 193.641 190.188C193.016 190.188 192.523 190.016 192.164 189.672C191.82 189.312 191.648 188.859 191.648 188.312ZM204.844 172.516L206.508 155.875H223.57V158.477H208.922L207.727 170.008C209.555 168.758 211.695 168.133 214.148 168.133C217.227 168.133 219.68 169.133 221.508 171.133C223.336 173.133 224.25 175.797 224.25 179.125C224.25 182.719 223.359 185.508 221.578 187.492C219.797 189.477 217.289 190.469 214.055 190.469C211.086 190.469 208.68 189.641 206.836 187.984C204.992 186.328 203.938 184.008 203.672 181.023H206.367C206.633 183.352 207.422 185.117 208.734 186.32C210.047 187.508 211.82 188.102 214.055 188.102C216.492 188.102 218.328 187.328 219.562 185.781C220.812 184.234 221.438 182.031 221.438 179.172C221.438 176.672 220.742 174.633 219.352 173.055C217.961 171.477 216.062 170.688 213.656 170.688C212.328 170.688 211.172 170.859 210.188 171.203C209.203 171.531 208.164 172.18 207.07 173.148L204.844 172.516ZM241.125 161.266C241.125 162.891 240.57 164.258 239.461 165.367C238.352 166.477 237.016 167.031 235.453 167.031C233.875 167.031 232.523 166.477 231.398 165.367C230.273 164.242 229.711 162.875 229.711 161.266C229.711 159.656 230.281 158.281 231.422 157.141C232.562 155.984 233.906 155.406 235.453 155.406C237 155.406 238.328 155.984 239.438 157.141C240.562 158.281 241.125 159.656 241.125 161.266ZM231.82 161.266C231.82 162.312 232.164 163.18 232.852 163.867C233.555 164.555 234.422 164.898 235.453 164.898C236.484 164.898 237.336 164.555 238.008 163.867C238.68 163.18 239.016 162.312 239.016 161.266C239.016 160.188 238.68 159.297 238.008 158.594C237.336 157.891 236.484 157.539 235.453 157.539C234.438 157.539 233.578 157.891 232.875 158.594C232.172 159.297 231.82 160.188 231.82 161.266Z" fill="white"/>
<path opacity="0.7" d="M258.543 184.349H253.173V190H251.485V177.203H259.413V178.592H253.173V182.969H258.543V184.349Z" fill="white" fill-opacity="0.7"/>
<path d="M148.77 213.789H143.285V229H141.047V213.789H135.574V211.938H148.77V213.789ZM155.051 229.234C153.332 229.234 151.934 228.672 150.855 227.547C149.777 226.414 149.238 224.902 149.238 223.012V222.613C149.238 221.355 149.477 220.234 149.953 219.25C150.438 218.258 151.109 217.484 151.969 216.93C152.836 216.367 153.773 216.086 154.781 216.086C156.43 216.086 157.711 216.629 158.625 217.715C159.539 218.801 159.996 220.355 159.996 222.379V223.281H151.406C151.438 224.531 151.801 225.543 152.496 226.316C153.199 227.082 154.09 227.465 155.168 227.465C155.934 227.465 156.582 227.309 157.113 226.996C157.645 226.684 158.109 226.27 158.508 225.754L159.832 226.785C158.77 228.418 157.176 229.234 155.051 229.234ZM154.781 217.867C153.906 217.867 153.172 218.188 152.578 218.828C151.984 219.461 151.617 220.352 151.477 221.5H157.828V221.336C157.766 220.234 157.469 219.383 156.938 218.781C156.406 218.172 155.688 217.867 154.781 217.867ZM164.555 216.32L164.613 217.727C165.543 216.633 166.797 216.086 168.375 216.086C170.148 216.086 171.355 216.766 171.996 218.125C172.418 217.516 172.965 217.023 173.637 216.648C174.316 216.273 175.117 216.086 176.039 216.086C178.82 216.086 180.234 217.559 180.281 220.504V229H178.113V220.633C178.113 219.727 177.906 219.051 177.492 218.605C177.078 218.152 176.383 217.926 175.406 217.926C174.602 217.926 173.934 218.168 173.402 218.652C172.871 219.129 172.562 219.773 172.477 220.586V229H170.297V220.691C170.297 218.848 169.395 217.926 167.59 217.926C166.168 217.926 165.195 218.531 164.672 219.742V229H162.504V216.32H164.555ZM194.273 222.801C194.273 224.73 193.832 226.285 192.949 227.465C192.066 228.645 190.871 229.234 189.363 229.234C187.824 229.234 186.613 228.746 185.73 227.77V233.875H183.562V216.32H185.543L185.648 217.727C186.531 216.633 187.758 216.086 189.328 216.086C190.852 216.086 192.055 216.66 192.938 217.809C193.828 218.957 194.273 220.555 194.273 222.602V222.801ZM192.105 222.555C192.105 221.125 191.801 219.996 191.191 219.168C190.582 218.34 189.746 217.926 188.684 217.926C187.371 217.926 186.387 218.508 185.73 219.672V225.73C186.379 226.887 187.371 227.465 188.707 227.465C189.746 227.465 190.57 227.055 191.18 226.234C191.797 225.406 192.105 224.18 192.105 222.555ZM202.301 229.234C200.582 229.234 199.184 228.672 198.105 227.547C197.027 226.414 196.488 224.902 196.488 223.012V222.613C196.488 221.355 196.727 220.234 197.203 219.25C197.688 218.258 198.359 217.484 199.219 216.93C200.086 216.367 201.023 216.086 202.031 216.086C203.68 216.086 204.961 216.629 205.875 217.715C206.789 218.801 207.246 220.355 207.246 222.379V223.281H198.656C198.688 224.531 199.051 225.543 199.746 226.316C200.449 227.082 201.34 227.465 202.418 227.465C203.184 227.465 203.832 227.309 204.363 226.996C204.895 226.684 205.359 226.27 205.758 225.754L207.082 226.785C206.02 228.418 204.426 229.234 202.301 229.234ZM202.031 217.867C201.156 217.867 200.422 218.188 199.828 218.828C199.234 219.461 198.867 220.352 198.727 221.5H205.078V221.336C205.016 220.234 204.719 219.383 204.188 218.781C203.656 218.172 202.938 217.867 202.031 217.867ZM215.895 218.266C215.566 218.211 215.211 218.184 214.828 218.184C213.406 218.184 212.441 218.789 211.934 220V229H209.766V216.32H211.875L211.91 217.785C212.621 216.652 213.629 216.086 214.934 216.086C215.355 216.086 215.676 216.141 215.895 216.25V218.266ZM225.258 229C225.133 228.75 225.031 228.305 224.953 227.664C223.945 228.711 222.742 229.234 221.344 229.234C220.094 229.234 219.066 228.883 218.262 228.18C217.465 227.469 217.066 226.57 217.066 225.484C217.066 224.164 217.566 223.141 218.566 222.414C219.574 221.68 220.988 221.312 222.809 221.312H224.918V220.316C224.918 219.559 224.691 218.957 224.238 218.512C223.785 218.059 223.117 217.832 222.234 217.832C221.461 217.832 220.812 218.027 220.289 218.418C219.766 218.809 219.504 219.281 219.504 219.836H217.324C217.324 219.203 217.547 218.594 217.992 218.008C218.445 217.414 219.055 216.945 219.82 216.602C220.594 216.258 221.441 216.086 222.363 216.086C223.824 216.086 224.969 216.453 225.797 217.188C226.625 217.914 227.055 218.918 227.086 220.199V226.035C227.086 227.199 227.234 228.125 227.531 228.812V229H225.258ZM221.66 227.348C222.34 227.348 222.984 227.172 223.594 226.82C224.203 226.469 224.645 226.012 224.918 225.449V222.848H223.219C220.562 222.848 219.234 223.625 219.234 225.18C219.234 225.859 219.461 226.391 219.914 226.773C220.367 227.156 220.949 227.348 221.66 227.348ZM233.426 213.25V216.32H235.793V217.996H233.426V225.859C233.426 226.367 233.531 226.75 233.742 227.008C233.953 227.258 234.312 227.383 234.82 227.383C235.07 227.383 235.414 227.336 235.852 227.242V229C235.281 229.156 234.727 229.234 234.188 229.234C233.219 229.234 232.488 228.941 231.996 228.355C231.504 227.77 231.258 226.938 231.258 225.859V217.996H228.949V216.32H231.258V213.25H233.426ZM246.164 227.746C245.32 228.738 244.082 229.234 242.449 229.234C241.098 229.234 240.066 228.844 239.355 228.062C238.652 227.273 238.297 226.109 238.289 224.57V216.32H240.457V224.512C240.457 226.434 241.238 227.395 242.801 227.395C244.457 227.395 245.559 226.777 246.105 225.543V216.32H248.273V229H246.211L246.164 227.746ZM257.707 218.266C257.379 218.211 257.023 218.184 256.641 218.184C255.219 218.184 254.254 218.789 253.746 220V229H251.578V216.32H253.688L253.723 217.785C254.434 216.652 255.441 216.086 256.746 216.086C257.168 216.086 257.488 216.141 257.707 216.25V218.266ZM264.738 229.234C263.02 229.234 261.621 228.672 260.543 227.547C259.465 226.414 258.926 224.902 258.926 223.012V222.613C258.926 221.355 259.164 220.234 259.641 219.25C260.125 218.258 260.797 217.484 261.656 216.93C262.523 216.367 263.461 216.086 264.469 216.086C266.117 216.086 267.398 216.629 268.312 217.715C269.227 218.801 269.684 220.355 269.684 222.379V223.281H261.094C261.125 224.531 261.488 225.543 262.184 226.316C262.887 227.082 263.777 227.465 264.855 227.465C265.621 227.465 266.27 227.309 266.801 226.996C267.332 226.684 267.797 226.27 268.195 225.754L269.52 226.785C268.457 228.418 266.863 229.234 264.738 229.234ZM264.469 217.867C263.594 217.867 262.859 218.188 262.266 218.828C261.672 219.461 261.305 220.352 261.164 221.5H267.516V221.336C267.453 220.234 267.156 219.383 266.625 218.781C266.094 218.172 265.375 217.867 264.469 217.867Z" fill="white"/>
<path fill-rule="evenodd" clip-rule="evenodd" d="M366 235L373.966 212.374H378.216L375.87 219.038H383.308L387.546 207H391.796L383.831 229.626H379.58L382.148 222.333H374.71L370.25 235H366Z" fill="white"/>
<rect x="104" y="315" width="314" height="212" rx="19" fill="url(#paint1_linear_3940_23127)" stroke="#021449" stroke-width="2"/>
<path d="M331.648 353.085H326.103V357.62H332.545V359H324.415V346.203H332.457V347.592H326.103V351.705H331.648V353.085ZM337.581 352.962L339.69 349.49H341.589L338.478 354.192L341.686 359H339.805L337.607 355.44L335.41 359H333.521L336.729 354.192L333.617 349.49H335.498L337.581 352.962ZM346.959 357.849C347.539 357.849 348.046 357.673 348.479 357.321C348.913 356.97 349.153 356.53 349.2 356.003H350.738C350.709 356.548 350.521 357.066 350.176 357.559C349.83 358.051 349.367 358.443 348.787 358.736C348.213 359.029 347.604 359.176 346.959 359.176C345.664 359.176 344.633 358.745 343.865 357.884C343.104 357.017 342.723 355.833 342.723 354.333V354.061C342.723 353.135 342.893 352.312 343.232 351.591C343.572 350.87 344.059 350.311 344.691 349.912C345.33 349.514 346.083 349.314 346.95 349.314C348.017 349.314 348.901 349.634 349.604 350.272C350.313 350.911 350.691 351.74 350.738 352.76H349.2C349.153 352.145 348.919 351.641 348.497 351.248C348.081 350.85 347.565 350.65 346.95 350.65C346.124 350.65 345.482 350.949 345.025 351.547C344.574 352.139 344.349 352.997 344.349 354.122V354.43C344.349 355.525 344.574 356.369 345.025 356.961C345.477 357.553 346.121 357.849 346.959 357.849ZM356.513 359.176C355.224 359.176 354.175 358.754 353.366 357.91C352.558 357.061 352.153 355.927 352.153 354.509V354.21C352.153 353.267 352.332 352.426 352.689 351.688C353.053 350.943 353.557 350.363 354.201 349.947C354.852 349.525 355.555 349.314 356.311 349.314C357.547 349.314 358.508 349.722 359.193 350.536C359.879 351.351 360.222 352.517 360.222 354.034V354.711H353.779C353.803 355.648 354.075 356.407 354.597 356.987C355.124 357.562 355.792 357.849 356.601 357.849C357.175 357.849 357.661 357.731 358.06 357.497C358.458 357.263 358.807 356.952 359.105 356.565L360.099 357.339C359.302 358.563 358.106 359.176 356.513 359.176ZM356.311 350.65C355.654 350.65 355.104 350.891 354.658 351.371C354.213 351.846 353.938 352.514 353.832 353.375H358.596V353.252C358.549 352.426 358.326 351.787 357.928 351.336C357.529 350.879 356.99 350.65 356.311 350.65ZM363.878 359H362.252V345.5H363.878V359ZM368.255 359H366.629V345.5H368.255V359ZM374.812 359.176C373.522 359.176 372.474 358.754 371.665 357.91C370.856 357.061 370.452 355.927 370.452 354.509V354.21C370.452 353.267 370.631 352.426 370.988 351.688C371.352 350.943 371.855 350.363 372.5 349.947C373.15 349.525 373.854 349.314 374.609 349.314C375.846 349.314 376.807 349.722 377.492 350.536C378.178 351.351 378.521 352.517 378.521 354.034V354.711H372.078C372.102 355.648 372.374 356.407 372.896 356.987C373.423 357.562 374.091 357.849 374.899 357.849C375.474 357.849 375.96 357.731 376.358 357.497C376.757 357.263 377.105 356.952 377.404 356.565L378.397 357.339C377.601 358.563 376.405 359.176 374.812 359.176ZM374.609 350.65C373.953 350.65 373.402 350.891 372.957 351.371C372.512 351.846 372.236 352.514 372.131 353.375H376.895V353.252C376.848 352.426 376.625 351.787 376.227 351.336C375.828 350.879 375.289 350.65 374.609 350.65ZM381.948 349.49L382.001 350.686C382.728 349.771 383.677 349.314 384.849 349.314C386.858 349.314 387.872 350.448 387.89 352.716V359H386.264V352.707C386.258 352.021 386.1 351.515 385.789 351.187C385.484 350.858 385.007 350.694 384.356 350.694C383.829 350.694 383.366 350.835 382.968 351.116C382.569 351.397 382.259 351.767 382.036 352.224V359H380.41V349.49H381.948ZM392.548 347.188V349.49H394.323V350.747H392.548V356.645C392.548 357.025 392.627 357.312 392.785 357.506C392.943 357.693 393.213 357.787 393.594 357.787C393.781 357.787 394.039 357.752 394.367 357.682V359C393.939 359.117 393.523 359.176 393.119 359.176C392.393 359.176 391.845 358.956 391.476 358.517C391.106 358.077 390.922 357.453 390.922 356.645V350.747H389.19V349.49H390.922V347.188H392.548Z" fill="#02C39A"/>
<path d="M159.776 368.023V353.11C159.776 351.843 159.273 350.628 158.377 349.732C157.482 348.837 156.267 348.333 155 348.333C153.733 348.333 152.518 348.837 151.622 349.732C150.726 350.628 150.223 351.843 150.223 353.11V368.023C148.703 369.047 147.551 370.531 146.938 372.259C146.325 373.986 146.282 375.865 146.817 377.618C147.352 379.371 148.436 380.906 149.909 381.996C151.382 383.087 153.167 383.676 155 383.676C156.833 383.676 158.617 383.087 160.09 381.996C161.563 380.906 162.647 379.371 163.182 377.618C163.717 375.865 163.675 373.986 163.062 372.259C162.449 370.531 161.297 369.047 159.776 368.023ZM155 381.667C153.558 381.667 152.156 381.192 151.012 380.314C149.868 379.437 149.045 378.206 148.672 376.814C148.298 375.421 148.394 373.944 148.946 372.612C149.497 371.279 150.473 370.166 151.721 369.445C151.874 369.357 152 369.231 152.088 369.079C152.175 368.927 152.222 368.754 152.221 368.578V353.11C152.222 352.374 152.515 351.668 153.036 351.147C153.557 350.626 154.263 350.334 155 350.333C155.363 350.331 155.722 350.401 156.058 350.538C156.393 350.676 156.698 350.879 156.955 351.135C157.216 351.393 157.423 351.701 157.564 352.04C157.705 352.379 157.777 352.743 157.776 353.11V368.578C157.776 368.754 157.823 368.927 157.91 369.079C157.998 369.231 158.124 369.357 158.276 369.445C159.525 370.166 160.501 371.279 161.052 372.611C161.603 373.943 161.7 375.42 161.327 376.813C160.953 378.205 160.131 379.436 158.987 380.314C157.843 381.191 156.442 381.667 155 381.667ZM160 375.132C160 376.078 159.732 377.004 159.226 377.804C158.72 378.604 157.998 379.244 157.144 379.649C156.289 380.055 155.337 380.21 154.397 380.096C153.458 379.982 152.571 379.604 151.838 379.006C151.105 378.407 150.557 377.613 150.257 376.716C149.958 375.818 149.919 374.854 150.145 373.936C150.372 373.017 150.854 372.182 151.536 371.526C152.219 370.871 153.073 370.423 154 370.233V358.5C154 358.235 154.105 357.98 154.293 357.793C154.48 357.605 154.735 357.5 155 357.5C155.265 357.5 155.519 357.605 155.707 357.793C155.894 357.98 156 358.235 156 358.5V370.233C157.129 370.464 158.144 371.077 158.873 371.97C159.601 372.862 160 373.979 160 375.132Z" fill="#4E7CFF"/>
<path d="M159.234 416.492L144.656 449H141.727L156.211 417.266H136.805V414.875H159.234V416.492ZM186.211 449H164.836V446.844L176.531 433.578C178.469 431.344 179.812 429.5 180.562 428.047C181.312 426.594 181.688 425.18 181.688 423.805C181.688 421.648 181.055 419.945 179.789 418.695C178.523 417.43 176.781 416.797 174.562 416.797C172.266 416.797 170.406 417.531 168.984 419C167.578 420.469 166.875 422.375 166.875 424.719H164.086C164.086 422.797 164.516 421.047 165.375 419.469C166.25 417.891 167.484 416.656 169.078 415.766C170.688 414.859 172.516 414.406 174.562 414.406C177.688 414.406 180.125 415.227 181.875 416.867C183.641 418.508 184.523 420.742 184.523 423.57C184.523 425.164 184.023 426.906 183.023 428.797C182.039 430.688 180.297 433.047 177.797 435.875L168.281 446.633H186.211V449ZM191.648 447.312C191.648 446.766 191.82 446.305 192.164 445.93C192.523 445.539 193.016 445.344 193.641 445.344C194.266 445.344 194.758 445.539 195.117 445.93C195.477 446.305 195.656 446.766 195.656 447.312C195.656 447.859 195.477 448.312 195.117 448.672C194.758 449.016 194.266 449.188 193.641 449.188C193.016 449.188 192.523 449.016 192.164 448.672C191.82 448.312 191.648 447.859 191.648 447.312ZM204.844 431.516L206.508 414.875H223.57V417.477H208.922L207.727 429.008C209.555 427.758 211.695 427.133 214.148 427.133C217.227 427.133 219.68 428.133 221.508 430.133C223.336 432.133 224.25 434.797 224.25 438.125C224.25 441.719 223.359 444.508 221.578 446.492C219.797 448.477 217.289 449.469 214.055 449.469C211.086 449.469 208.68 448.641 206.836 446.984C204.992 445.328 203.938 443.008 203.672 440.023H206.367C206.633 442.352 207.422 444.117 208.734 445.32C210.047 446.508 211.82 447.102 214.055 447.102C216.492 447.102 218.328 446.328 219.562 444.781C220.812 443.234 221.438 441.031 221.438 438.172C221.438 435.672 220.742 433.633 219.352 432.055C217.961 430.477 216.062 429.688 213.656 429.688C212.328 429.688 211.172 429.859 210.188 430.203C209.203 430.531 208.164 431.18 207.07 432.148L204.844 431.516ZM241.125 420.266C241.125 421.891 240.57 423.258 239.461 424.367C238.352 425.477 237.016 426.031 235.453 426.031C233.875 426.031 232.523 425.477 231.398 424.367C230.273 423.242 229.711 421.875 229.711 420.266C229.711 418.656 230.281 417.281 231.422 416.141C232.562 414.984 233.906 414.406 235.453 414.406C237 414.406 238.328 414.984 239.438 416.141C240.562 417.281 241.125 418.656 241.125 420.266ZM231.82 420.266C231.82 421.312 232.164 422.18 232.852 422.867C233.555 423.555 234.422 423.898 235.453 423.898C236.484 423.898 237.336 423.555 238.008 422.867C238.68 422.18 239.016 421.312 239.016 420.266C239.016 419.188 238.68 418.297 238.008 417.594C237.336 416.891 236.484 416.539 235.453 416.539C234.438 416.539 233.578 416.891 232.875 417.594C232.172 418.297 231.82 419.188 231.82 420.266Z" fill="#021449"/>
<path opacity="0.7" d="M258.543 443.349H253.173V449H251.485V436.203H259.413V437.592H253.173V441.969H258.543V443.349Z" fill="#A9A9A9"/>
<path d="M148.77 472.789H143.285V488H141.047V472.789H135.574V470.938H148.77V472.789ZM155.051 488.234C153.332 488.234 151.934 487.672 150.855 486.547C149.777 485.414 149.238 483.902 149.238 482.012V481.613C149.238 480.355 149.477 479.234 149.953 478.25C150.438 477.258 151.109 476.484 151.969 475.93C152.836 475.367 153.773 475.086 154.781 475.086C156.43 475.086 157.711 475.629 158.625 476.715C159.539 477.801 159.996 479.355 159.996 481.379V482.281H151.406C151.438 483.531 151.801 484.543 152.496 485.316C153.199 486.082 154.09 486.465 155.168 486.465C155.934 486.465 156.582 486.309 157.113 485.996C157.645 485.684 158.109 485.27 158.508 484.754L159.832 485.785C158.77 487.418 157.176 488.234 155.051 488.234ZM154.781 476.867C153.906 476.867 153.172 477.188 152.578 477.828C151.984 478.461 151.617 479.352 151.477 480.5H157.828V480.336C157.766 479.234 157.469 478.383 156.938 477.781C156.406 477.172 155.688 476.867 154.781 476.867ZM164.555 475.32L164.613 476.727C165.543 475.633 166.797 475.086 168.375 475.086C170.148 475.086 171.355 475.766 171.996 477.125C172.418 476.516 172.965 476.023 173.637 475.648C174.316 475.273 175.117 475.086 176.039 475.086C178.82 475.086 180.234 476.559 180.281 479.504V488H178.113V479.633C178.113 478.727 177.906 478.051 177.492 477.605C177.078 477.152 176.383 476.926 175.406 476.926C174.602 476.926 173.934 477.168 173.402 477.652C172.871 478.129 172.562 478.773 172.477 479.586V488H170.297V479.691C170.297 477.848 169.395 476.926 167.59 476.926C166.168 476.926 165.195 477.531 164.672 478.742V488H162.504V475.32H164.555ZM194.273 481.801C194.273 483.73 193.832 485.285 192.949 486.465C192.066 487.645 190.871 488.234 189.363 488.234C187.824 488.234 186.613 487.746 185.73 486.77V492.875H183.562V475.32H185.543L185.648 476.727C186.531 475.633 187.758 475.086 189.328 475.086C190.852 475.086 192.055 475.66 192.938 476.809C193.828 477.957 194.273 479.555 194.273 481.602V481.801ZM192.105 481.555C192.105 480.125 191.801 478.996 191.191 478.168C190.582 477.34 189.746 476.926 188.684 476.926C187.371 476.926 186.387 477.508 185.73 478.672V484.73C186.379 485.887 187.371 486.465 188.707 486.465C189.746 486.465 190.57 486.055 191.18 485.234C191.797 484.406 192.105 483.18 192.105 481.555ZM202.301 488.234C200.582 488.234 199.184 487.672 198.105 486.547C197.027 485.414 196.488 483.902 196.488 482.012V481.613C196.488 480.355 196.727 479.234 197.203 478.25C197.688 477.258 198.359 476.484 199.219 475.93C200.086 475.367 201.023 475.086 202.031 475.086C203.68 475.086 204.961 475.629 205.875 476.715C206.789 477.801 207.246 479.355 207.246 481.379V482.281H198.656C198.688 483.531 199.051 484.543 199.746 485.316C200.449 486.082 201.34 486.465 202.418 486.465C203.184 486.465 203.832 486.309 204.363 485.996C204.895 485.684 205.359 485.27 205.758 484.754L207.082 485.785C206.02 487.418 204.426 488.234 202.301 488.234ZM202.031 476.867C201.156 476.867 200.422 477.188 199.828 477.828C199.234 478.461 198.867 479.352 198.727 480.5H205.078V480.336C205.016 479.234 204.719 478.383 204.188 477.781C203.656 477.172 202.938 476.867 202.031 476.867ZM215.895 477.266C215.566 477.211 215.211 477.184 214.828 477.184C213.406 477.184 212.441 477.789 211.934 479V488H209.766V475.32H211.875L211.91 476.785C212.621 475.652 213.629 475.086 214.934 475.086C215.355 475.086 215.676 475.141 215.895 475.25V477.266ZM225.258 488C225.133 487.75 225.031 487.305 224.953 486.664C223.945 487.711 222.742 488.234 221.344 488.234C220.094 488.234 219.066 487.883 218.262 487.18C217.465 486.469 217.066 485.57 217.066 484.484C217.066 483.164 217.566 482.141 218.566 481.414C219.574 480.68 220.988 480.312 222.809 480.312H224.918V479.316C224.918 478.559 224.691 477.957 224.238 477.512C223.785 477.059 223.117 476.832 222.234 476.832C221.461 476.832 220.812 477.027 220.289 477.418C219.766 477.809 219.504 478.281 219.504 478.836H217.324C217.324 478.203 217.547 477.594 217.992 477.008C218.445 476.414 219.055 475.945 219.82 475.602C220.594 475.258 221.441 475.086 222.363 475.086C223.824 475.086 224.969 475.453 225.797 476.188C226.625 476.914 227.055 477.918 227.086 479.199V485.035C227.086 486.199 227.234 487.125 227.531 487.812V488H225.258ZM221.66 486.348C222.34 486.348 222.984 486.172 223.594 485.82C224.203 485.469 224.645 485.012 224.918 484.449V481.848H223.219C220.562 481.848 219.234 482.625 219.234 484.18C219.234 484.859 219.461 485.391 219.914 485.773C220.367 486.156 220.949 486.348 221.66 486.348ZM233.426 472.25V475.32H235.793V476.996H233.426V484.859C233.426 485.367 233.531 485.75 233.742 486.008C233.953 486.258 234.312 486.383 234.82 486.383C235.07 486.383 235.414 486.336 235.852 486.242V488C235.281 488.156 234.727 488.234 234.188 488.234C233.219 488.234 232.488 487.941 231.996 487.355C231.504 486.77 231.258 485.938 231.258 484.859V476.996H228.949V475.32H231.258V472.25H233.426ZM246.164 486.746C245.32 487.738 244.082 488.234 242.449 488.234C241.098 488.234 240.066 487.844 239.355 487.062C238.652 486.273 238.297 485.109 238.289 483.57V475.32H240.457V483.512C240.457 485.434 241.238 486.395 242.801 486.395C244.457 486.395 245.559 485.777 246.105 484.543V475.32H248.273V488H246.211L246.164 486.746ZM257.707 477.266C257.379 477.211 257.023 477.184 256.641 477.184C255.219 477.184 254.254 477.789 253.746 479V488H251.578V475.32H253.688L253.723 476.785C254.434 475.652 255.441 475.086 256.746 475.086C257.168 475.086 257.488 475.141 257.707 475.25V477.266ZM264.738 488.234C263.02 488.234 261.621 487.672 260.543 486.547C259.465 485.414 258.926 483.902 258.926 482.012V481.613C258.926 480.355 259.164 479.234 259.641 478.25C260.125 477.258 260.797 476.484 261.656 475.93C262.523 475.367 263.461 475.086 264.469 475.086C266.117 475.086 267.398 475.629 268.312 476.715C269.227 477.801 269.684 479.355 269.684 481.379V482.281H261.094C261.125 483.531 261.488 484.543 262.184 485.316C262.887 486.082 263.777 486.465 264.855 486.465C265.621 486.465 266.27 486.309 266.801 485.996C267.332 485.684 267.797 485.27 268.195 484.754L269.52 485.785C268.457 487.418 266.863 488.234 264.738 488.234ZM264.469 476.867C263.594 476.867 262.859 477.188 262.266 477.828C261.672 478.461 261.305 479.352 261.164 480.5H267.516V480.336C267.453 479.234 267.156 478.383 266.625 477.781C266.094 477.172 265.375 476.867 264.469 476.867Z" fill="#021449"/>
<path fill-rule="evenodd" clip-rule="evenodd" d="M366 494L373.966 471.374H378.216L375.87 478.038H383.308L387.546 466H391.796L383.831 488.626H379.58L382.148 481.333H374.71L370.25 494H366Z" fill="#1D213C"/>
<rect x="104" y="574" width="314" height="212" rx="19" fill="url(#paint2_linear_3940_23127)" stroke="#F0F0F0" stroke-width="2"/>
<path d="M331.648 612.085H326.103V616.62H332.545V618H324.415V605.203H332.457V606.592H326.103V610.705H331.648V612.085ZM337.581 611.962L339.69 608.49H341.589L338.478 613.192L341.686 618H339.805L337.607 614.44L335.41 618H333.521L336.729 613.192L333.617 608.49H335.498L337.581 611.962ZM346.959 616.849C347.539 616.849 348.046 616.673 348.479 616.321C348.913 615.97 349.153 615.53 349.2 615.003H350.738C350.709 615.548 350.521 616.066 350.176 616.559C349.83 617.051 349.367 617.443 348.787 617.736C348.213 618.029 347.604 618.176 346.959 618.176C345.664 618.176 344.633 617.745 343.865 616.884C343.104 616.017 342.723 614.833 342.723 613.333V613.061C342.723 612.135 342.893 611.312 343.232 610.591C343.572 609.87 344.059 609.311 344.691 608.912C345.33 608.514 346.083 608.314 346.95 608.314C348.017 608.314 348.901 608.634 349.604 609.272C350.313 609.911 350.691 610.74 350.738 611.76H349.2C349.153 611.145 348.919 610.641 348.497 610.248C348.081 609.85 347.565 609.65 346.95 609.65C346.124 609.65 345.482 609.949 345.025 610.547C344.574 611.139 344.349 611.997 344.349 613.122V613.43C344.349 614.525 344.574 615.369 345.025 615.961C345.477 616.553 346.121 616.849 346.959 616.849ZM356.513 618.176C355.224 618.176 354.175 617.754 353.366 616.91C352.558 616.061 352.153 614.927 352.153 613.509V613.21C352.153 612.267 352.332 611.426 352.689 610.688C353.053 609.943 353.557 609.363 354.201 608.947C354.852 608.525 355.555 608.314 356.311 608.314C357.547 608.314 358.508 608.722 359.193 609.536C359.879 610.351 360.222 611.517 360.222 613.034V613.711H353.779C353.803 614.648 354.075 615.407 354.597 615.987C355.124 616.562 355.792 616.849 356.601 616.849C357.175 616.849 357.661 616.731 358.06 616.497C358.458 616.263 358.807 615.952 359.105 615.565L360.099 616.339C359.302 617.563 358.106 618.176 356.513 618.176ZM356.311 609.65C355.654 609.65 355.104 609.891 354.658 610.371C354.213 610.846 353.938 611.514 353.832 612.375H358.596V612.252C358.549 611.426 358.326 610.787 357.928 610.336C357.529 609.879 356.99 609.65 356.311 609.65ZM363.878 618H362.252V604.5H363.878V618ZM368.255 618H366.629V604.5H368.255V618ZM374.812 618.176C373.522 618.176 372.474 617.754 371.665 616.91C370.856 616.061 370.452 614.927 370.452 613.509V613.21C370.452 612.267 370.631 611.426 370.988 610.688C371.352 609.943 371.855 609.363 372.5 608.947C373.15 608.525 373.854 608.314 374.609 608.314C375.846 608.314 376.807 608.722 377.492 609.536C378.178 610.351 378.521 611.517 378.521 613.034V613.711H372.078C372.102 614.648 372.374 615.407 372.896 615.987C373.423 616.562 374.091 616.849 374.899 616.849C375.474 616.849 375.96 616.731 376.358 616.497C376.757 616.263 377.105 615.952 377.404 615.565L378.397 616.339C377.601 617.563 376.405 618.176 374.812 618.176ZM374.609 609.65C373.953 609.65 373.402 609.891 372.957 610.371C372.512 610.846 372.236 611.514 372.131 612.375H376.895V612.252C376.848 611.426 376.625 610.787 376.227 610.336C375.828 609.879 375.289 609.65 374.609 609.65ZM381.948 608.49L382.001 609.686C382.728 608.771 383.677 608.314 384.849 608.314C386.858 608.314 387.872 609.448 387.89 611.716V618H386.264V611.707C386.258 611.021 386.1 610.515 385.789 610.187C385.484 609.858 385.007 609.694 384.356 609.694C383.829 609.694 383.366 609.835 382.968 610.116C382.569 610.397 382.259 610.767 382.036 611.224V618H380.41V608.49H381.948ZM392.548 606.188V608.49H394.323V609.747H392.548V615.645C392.548 616.025 392.627 616.312 392.785 616.506C392.943 616.693 393.213 616.787 393.594 616.787C393.781 616.787 394.039 616.752 394.367 616.682V618C393.939 618.117 393.523 618.176 393.119 618.176C392.393 618.176 391.845 617.956 391.476 617.517C391.106 617.077 390.922 616.453 390.922 615.645V609.747H389.19V608.49H390.922V606.188H392.548Z" fill="#02C39A"/>
<path d="M159.776 627.023V612.11C159.776 610.843 159.273 609.628 158.377 608.732C157.482 607.837 156.267 607.333 155 607.333C153.733 607.333 152.518 607.837 151.622 608.732C150.726 609.628 150.223 610.843 150.223 612.11V627.023C148.703 628.047 147.551 629.531 146.938 631.259C146.325 632.986 146.282 634.865 146.817 636.618C147.352 638.371 148.436 639.906 149.909 640.996C151.382 642.087 153.167 642.676 155 642.676C156.833 642.676 158.617 642.087 160.09 640.996C161.563 639.906 162.647 638.371 163.182 636.618C163.717 634.865 163.675 632.986 163.062 631.259C162.449 629.531 161.297 628.047 159.776 627.023ZM155 640.667C153.558 640.667 152.156 640.192 151.012 639.314C149.868 638.437 149.045 637.206 148.672 635.814C148.298 634.421 148.394 632.944 148.946 631.612C149.497 630.279 150.473 629.166 151.721 628.445C151.874 628.357 152 628.231 152.088 628.079C152.175 627.927 152.222 627.754 152.221 627.578V612.11C152.222 611.374 152.515 610.668 153.036 610.147C153.557 609.626 154.263 609.334 155 609.333C155.363 609.331 155.722 609.401 156.058 609.538C156.393 609.676 156.698 609.879 156.955 610.135C157.216 610.393 157.423 610.701 157.564 611.04C157.705 611.379 157.777 611.743 157.776 612.11V627.578C157.776 627.754 157.823 627.927 157.91 628.079C157.998 628.231 158.124 628.357 158.276 628.445C159.525 629.166 160.501 630.279 161.052 631.611C161.603 632.943 161.7 634.42 161.327 635.813C160.953 637.205 160.131 638.436 158.987 639.314C157.843 640.191 156.442 640.667 155 640.667ZM160 634.132C160 635.078 159.732 636.004 159.226 636.804C158.72 637.604 157.998 638.244 157.144 638.649C156.289 639.055 155.337 639.21 154.397 639.096C153.458 638.982 152.571 638.604 151.838 638.006C151.105 637.407 150.557 636.613 150.257 635.716C149.958 634.818 149.919 633.854 150.145 632.936C150.372 632.017 150.854 631.182 151.536 630.526C152.219 629.871 153.073 629.423 154 629.233V617.5C154 617.235 154.105 616.98 154.293 616.793C154.48 616.605 154.735 616.5 155 616.5C155.265 616.5 155.519 616.605 155.707 616.793C155.894 616.98 156 617.235 156 617.5V629.233C157.129 629.464 158.144 630.077 158.873 630.97C159.601 631.862 160 632.979 160 634.132Z" fill="#4E7CFF"/>
<path d="M159.234 675.492L144.656 708H141.727L156.211 676.266H136.805V673.875H159.234V675.492ZM186.211 708H164.836V705.844L176.531 692.578C178.469 690.344 179.812 688.5 180.562 687.047C181.312 685.594 181.688 684.18 181.688 682.805C181.688 680.648 181.055 678.945 179.789 677.695C178.523 676.43 176.781 675.797 174.562 675.797C172.266 675.797 170.406 676.531 168.984 678C167.578 679.469 166.875 681.375 166.875 683.719H164.086C164.086 681.797 164.516 680.047 165.375 678.469C166.25 676.891 167.484 675.656 169.078 674.766C170.688 673.859 172.516 673.406 174.562 673.406C177.688 673.406 180.125 674.227 181.875 675.867C183.641 677.508 184.523 679.742 184.523 682.57C184.523 684.164 184.023 685.906 183.023 687.797C182.039 689.688 180.297 692.047 177.797 694.875L168.281 705.633H186.211V708ZM191.648 706.312C191.648 705.766 191.82 705.305 192.164 704.93C192.523 704.539 193.016 704.344 193.641 704.344C194.266 704.344 194.758 704.539 195.117 704.93C195.477 705.305 195.656 705.766 195.656 706.312C195.656 706.859 195.477 707.312 195.117 707.672C194.758 708.016 194.266 708.188 193.641 708.188C193.016 708.188 192.523 708.016 192.164 707.672C191.82 707.312 191.648 706.859 191.648 706.312ZM204.844 690.516L206.508 673.875H223.57V676.477H208.922L207.727 688.008C209.555 686.758 211.695 686.133 214.148 686.133C217.227 686.133 219.68 687.133 221.508 689.133C223.336 691.133 224.25 693.797 224.25 697.125C224.25 700.719 223.359 703.508 221.578 705.492C219.797 707.477 217.289 708.469 214.055 708.469C211.086 708.469 208.68 707.641 206.836 705.984C204.992 704.328 203.938 702.008 203.672 699.023H206.367C206.633 701.352 207.422 703.117 208.734 704.32C210.047 705.508 211.82 706.102 214.055 706.102C216.492 706.102 218.328 705.328 219.562 703.781C220.812 702.234 221.438 700.031 221.438 697.172C221.438 694.672 220.742 692.633 219.352 691.055C217.961 689.477 216.062 688.688 213.656 688.688C212.328 688.688 211.172 688.859 210.188 689.203C209.203 689.531 208.164 690.18 207.07 691.148L204.844 690.516ZM241.125 679.266C241.125 680.891 240.57 682.258 239.461 683.367C238.352 684.477 237.016 685.031 235.453 685.031C233.875 685.031 232.523 684.477 231.398 683.367C230.273 682.242 229.711 680.875 229.711 679.266C229.711 677.656 230.281 676.281 231.422 675.141C232.562 673.984 233.906 673.406 235.453 673.406C237 673.406 238.328 673.984 239.438 675.141C240.562 676.281 241.125 677.656 241.125 679.266ZM231.82 679.266C231.82 680.312 232.164 681.18 232.852 681.867C233.555 682.555 234.422 682.898 235.453 682.898C236.484 682.898 237.336 682.555 238.008 681.867C238.68 681.18 239.016 680.312 239.016 679.266C239.016 678.188 238.68 677.297 238.008 676.594C237.336 675.891 236.484 675.539 235.453 675.539C234.438 675.539 233.578 675.891 232.875 676.594C232.172 677.297 231.82 678.188 231.82 679.266Z" fill="#021449"/>
<path opacity="0.7" d="M258.543 702.349H253.173V708H251.485V695.203H259.413V696.592H253.173V700.969H258.543V702.349Z" fill="#A9A9A9"/>
<path d="M148.77 731.789H143.285V747H141.047V731.789H135.574V729.938H148.77V731.789ZM155.051 747.234C153.332 747.234 151.934 746.672 150.855 745.547C149.777 744.414 149.238 742.902 149.238 741.012V740.613C149.238 739.355 149.477 738.234 149.953 737.25C150.438 736.258 151.109 735.484 151.969 734.93C152.836 734.367 153.773 734.086 154.781 734.086C156.43 734.086 157.711 734.629 158.625 735.715C159.539 736.801 159.996 738.355 159.996 740.379V741.281H151.406C151.438 742.531 151.801 743.543 152.496 744.316C153.199 745.082 154.09 745.465 155.168 745.465C155.934 745.465 156.582 745.309 157.113 744.996C157.645 744.684 158.109 744.27 158.508 743.754L159.832 744.785C158.77 746.418 157.176 747.234 155.051 747.234ZM154.781 735.867C153.906 735.867 153.172 736.188 152.578 736.828C151.984 737.461 151.617 738.352 151.477 739.5H157.828V739.336C157.766 738.234 157.469 737.383 156.938 736.781C156.406 736.172 155.688 735.867 154.781 735.867ZM164.555 734.32L164.613 735.727C165.543 734.633 166.797 734.086 168.375 734.086C170.148 734.086 171.355 734.766 171.996 736.125C172.418 735.516 172.965 735.023 173.637 734.648C174.316 734.273 175.117 734.086 176.039 734.086C178.82 734.086 180.234 735.559 180.281 738.504V747H178.113V738.633C178.113 737.727 177.906 737.051 177.492 736.605C177.078 736.152 176.383 735.926 175.406 735.926C174.602 735.926 173.934 736.168 173.402 736.652C172.871 737.129 172.562 737.773 172.477 738.586V747H170.297V738.691C170.297 736.848 169.395 735.926 167.59 735.926C166.168 735.926 165.195 736.531 164.672 737.742V747H162.504V734.32H164.555ZM194.273 740.801C194.273 742.73 193.832 744.285 192.949 745.465C192.066 746.645 190.871 747.234 189.363 747.234C187.824 747.234 186.613 746.746 185.73 745.77V751.875H183.562V734.32H185.543L185.648 735.727C186.531 734.633 187.758 734.086 189.328 734.086C190.852 734.086 192.055 734.66 192.938 735.809C193.828 736.957 194.273 738.555 194.273 740.602V740.801ZM192.105 740.555C192.105 739.125 191.801 737.996 191.191 737.168C190.582 736.34 189.746 735.926 188.684 735.926C187.371 735.926 186.387 736.508 185.73 737.672V743.73C186.379 744.887 187.371 745.465 188.707 745.465C189.746 745.465 190.57 745.055 191.18 744.234C191.797 743.406 192.105 742.18 192.105 740.555ZM202.301 747.234C200.582 747.234 199.184 746.672 198.105 745.547C197.027 744.414 196.488 742.902 196.488 741.012V740.613C196.488 739.355 196.727 738.234 197.203 737.25C197.688 736.258 198.359 735.484 199.219 734.93C200.086 734.367 201.023 734.086 202.031 734.086C203.68 734.086 204.961 734.629 205.875 735.715C206.789 736.801 207.246 738.355 207.246 740.379V741.281H198.656C198.688 742.531 199.051 743.543 199.746 744.316C200.449 745.082 201.34 745.465 202.418 745.465C203.184 745.465 203.832 745.309 204.363 744.996C204.895 744.684 205.359 744.27 205.758 743.754L207.082 744.785C206.02 746.418 204.426 747.234 202.301 747.234ZM202.031 735.867C201.156 735.867 200.422 736.188 199.828 736.828C199.234 737.461 198.867 738.352 198.727 739.5H205.078V739.336C205.016 738.234 204.719 737.383 204.188 736.781C203.656 736.172 202.938 735.867 202.031 735.867ZM215.895 736.266C215.566 736.211 215.211 736.184 214.828 736.184C213.406 736.184 212.441 736.789 211.934 738V747H209.766V734.32H211.875L211.91 735.785C212.621 734.652 213.629 734.086 214.934 734.086C215.355 734.086 215.676 734.141 215.895 734.25V736.266ZM225.258 747C225.133 746.75 225.031 746.305 224.953 745.664C223.945 746.711 222.742 747.234 221.344 747.234C220.094 747.234 219.066 746.883 218.262 746.18C217.465 745.469 217.066 744.57 217.066 743.484C217.066 742.164 217.566 741.141 218.566 740.414C219.574 739.68 220.988 739.312 222.809 739.312H224.918V738.316C224.918 737.559 224.691 736.957 224.238 736.512C223.785 736.059 223.117 735.832 222.234 735.832C221.461 735.832 220.812 736.027 220.289 736.418C219.766 736.809 219.504 737.281 219.504 737.836H217.324C217.324 737.203 217.547 736.594 217.992 736.008C218.445 735.414 219.055 734.945 219.82 734.602C220.594 734.258 221.441 734.086 222.363 734.086C223.824 734.086 224.969 734.453 225.797 735.188C226.625 735.914 227.055 736.918 227.086 738.199V744.035C227.086 745.199 227.234 746.125 227.531 746.812V747H225.258ZM221.66 745.348C222.34 745.348 222.984 745.172 223.594 744.82C224.203 744.469 224.645 744.012 224.918 743.449V740.848H223.219C220.562 740.848 219.234 741.625 219.234 743.18C219.234 743.859 219.461 744.391 219.914 744.773C220.367 745.156 220.949 745.348 221.66 745.348ZM233.426 731.25V734.32H235.793V735.996H233.426V743.859C233.426 744.367 233.531 744.75 233.742 745.008C233.953 745.258 234.312 745.383 234.82 745.383C235.07 745.383 235.414 745.336 235.852 745.242V747C235.281 747.156 234.727 747.234 234.188 747.234C233.219 747.234 232.488 746.941 231.996 746.355C231.504 745.77 231.258 744.938 231.258 743.859V735.996H228.949V734.32H231.258V731.25H233.426ZM246.164 745.746C245.32 746.738 244.082 747.234 242.449 747.234C241.098 747.234 240.066 746.844 239.355 746.062C238.652 745.273 238.297 744.109 238.289 742.57V734.32H240.457V742.512C240.457 744.434 241.238 745.395 242.801 745.395C244.457 745.395 245.559 744.777 246.105 743.543V734.32H248.273V747H246.211L246.164 745.746ZM257.707 736.266C257.379 736.211 257.023 736.184 256.641 736.184C255.219 736.184 254.254 736.789 253.746 738V747H251.578V734.32H253.688L253.723 735.785C254.434 734.652 255.441 734.086 256.746 734.086C257.168 734.086 257.488 734.141 257.707 734.25V736.266ZM264.738 747.234C263.02 747.234 261.621 746.672 260.543 745.547C259.465 744.414 258.926 742.902 258.926 741.012V740.613C258.926 739.355 259.164 738.234 259.641 737.25C260.125 736.258 260.797 735.484 261.656 734.93C262.523 734.367 263.461 734.086 264.469 734.086C266.117 734.086 267.398 734.629 268.312 735.715C269.227 736.801 269.684 738.355 269.684 740.379V741.281H261.094C261.125 742.531 261.488 743.543 262.184 744.316C262.887 745.082 263.777 745.465 264.855 745.465C265.621 745.465 266.27 745.309 266.801 744.996C267.332 744.684 267.797 744.27 268.195 743.754L269.52 744.785C268.457 746.418 266.863 747.234 264.738 747.234ZM264.469 735.867C263.594 735.867 262.859 736.188 262.266 736.828C261.672 737.461 261.305 738.352 261.164 739.5H267.516V739.336C267.453 738.234 267.156 737.383 266.625 736.781C266.094 736.172 265.375 735.867 264.469 735.867Z" fill="#021449"/>
<path fill-rule="evenodd" clip-rule="evenodd" d="M366 753L373.966 730.374H378.216L375.87 737.038H383.308L387.546 725H391.796L383.831 747.626H379.58L382.148 740.333H374.71L370.25 753H366Z" fill="#1D213C"/>
<rect x="103" y="832" width="316" height="214" rx="20" fill="url(#paint3_linear_3940_23127)"/>
<path d="M331.648 871.085H326.103V875.62H332.545V877H324.415V864.203H332.457V865.592H326.103V869.705H331.648V871.085ZM337.581 870.962L339.69 867.49H341.589L338.478 872.192L341.686 877H339.805L337.607 873.44L335.41 877H333.521L336.729 872.192L333.617 867.49H335.498L337.581 870.962ZM346.959 875.849C347.539 875.849 348.046 875.673 348.479 875.321C348.913 874.97 349.153 874.53 349.2 874.003H350.738C350.709 874.548 350.521 875.066 350.176 875.559C349.83 876.051 349.367 876.443 348.787 876.736C348.213 877.029 347.604 877.176 346.959 877.176C345.664 877.176 344.633 876.745 343.865 875.884C343.104 875.017 342.723 873.833 342.723 872.333V872.061C342.723 871.135 342.893 870.312 343.232 869.591C343.572 868.87 344.059 868.311 344.691 867.912C345.33 867.514 346.083 867.314 346.95 867.314C348.017 867.314 348.901 867.634 349.604 868.272C350.313 868.911 350.691 869.74 350.738 870.76H349.2C349.153 870.145 348.919 869.641 348.497 869.248C348.081 868.85 347.565 868.65 346.95 868.65C346.124 868.65 345.482 868.949 345.025 869.547C344.574 870.139 344.349 870.997 344.349 872.122V872.43C344.349 873.525 344.574 874.369 345.025 874.961C345.477 875.553 346.121 875.849 346.959 875.849ZM356.513 877.176C355.224 877.176 354.175 876.754 353.366 875.91C352.558 875.061 352.153 873.927 352.153 872.509V872.21C352.153 871.267 352.332 870.426 352.689 869.688C353.053 868.943 353.557 868.363 354.201 867.947C354.852 867.525 355.555 867.314 356.311 867.314C357.547 867.314 358.508 867.722 359.193 868.536C359.879 869.351 360.222 870.517 360.222 872.034V872.711H353.779C353.803 873.648 354.075 874.407 354.597 874.987C355.124 875.562 355.792 875.849 356.601 875.849C357.175 875.849 357.661 875.731 358.06 875.497C358.458 875.263 358.807 874.952 359.105 874.565L360.099 875.339C359.302 876.563 358.106 877.176 356.513 877.176ZM356.311 868.65C355.654 868.65 355.104 868.891 354.658 869.371C354.213 869.846 353.938 870.514 353.832 871.375H358.596V871.252C358.549 870.426 358.326 869.787 357.928 869.336C357.529 868.879 356.99 868.65 356.311 868.65ZM363.878 877H362.252V863.5H363.878V877ZM368.255 877H366.629V863.5H368.255V877ZM374.812 877.176C373.522 877.176 372.474 876.754 371.665 875.91C370.856 875.061 370.452 873.927 370.452 872.509V872.21C370.452 871.267 370.631 870.426 370.988 869.688C371.352 868.943 371.855 868.363 372.5 867.947C373.15 867.525 373.854 867.314 374.609 867.314C375.846 867.314 376.807 867.722 377.492 868.536C378.178 869.351 378.521 870.517 378.521 872.034V872.711H372.078C372.102 873.648 372.374 874.407 372.896 874.987C373.423 875.562 374.091 875.849 374.899 875.849C375.474 875.849 375.96 875.731 376.358 875.497C376.757 875.263 377.105 874.952 377.404 874.565L378.397 875.339C377.601 876.563 376.405 877.176 374.812 877.176ZM374.609 868.65C373.953 868.65 373.402 868.891 372.957 869.371C372.512 869.846 372.236 870.514 372.131 871.375H376.895V871.252C376.848 870.426 376.625 869.787 376.227 869.336C375.828 868.879 375.289 868.65 374.609 868.65ZM381.948 867.49L382.001 868.686C382.728 867.771 383.677 867.314 384.849 867.314C386.858 867.314 387.872 868.448 387.89 870.716V877H386.264V870.707C386.258 870.021 386.1 869.515 385.789 869.187C385.484 868.858 385.007 868.694 384.356 868.694C383.829 868.694 383.366 868.835 382.968 869.116C382.569 869.397 382.259 869.767 382.036 870.224V877H380.41V867.49H381.948ZM392.548 865.188V867.49H394.323V868.747H392.548V874.645C392.548 875.025 392.627 875.312 392.785 875.506C392.943 875.693 393.213 875.787 393.594 875.787C393.781 875.787 394.039 875.752 394.367 875.682V877C393.939 877.117 393.523 877.176 393.119 877.176C392.393 877.176 391.845 876.956 391.476 876.517C391.106 876.077 390.922 875.453 390.922 874.645V868.747H389.19V867.49H390.922V865.188H392.548Z" fill="#22FFD0"/>
<path d="M159.776 886.023V871.11C159.776 869.843 159.273 868.628 158.377 867.732C157.482 866.837 156.267 866.333 155 866.333C153.733 866.333 152.518 866.837 151.622 867.732C150.726 868.628 150.223 869.843 150.223 871.11V886.023C148.703 887.047 147.551 888.531 146.938 890.259C146.325 891.986 146.282 893.865 146.817 895.618C147.352 897.371 148.436 898.906 149.909 899.996C151.382 901.087 153.167 901.676 155 901.676C156.833 901.676 158.617 901.087 160.09 899.996C161.563 898.906 162.647 897.371 163.182 895.618C163.717 893.865 163.675 891.986 163.062 890.259C162.449 888.531 161.297 887.047 159.776 886.023ZM155 899.667C153.558 899.667 152.156 899.192 151.012 898.314C149.868 897.437 149.045 896.206 148.672 894.814C148.298 893.421 148.394 891.944 148.946 890.612C149.497 889.279 150.473 888.166 151.721 887.445C151.874 887.357 152 887.231 152.088 887.079C152.175 886.927 152.222 886.754 152.221 886.578V871.11C152.222 870.374 152.515 869.668 153.036 869.147C153.557 868.626 154.263 868.334 155 868.333C155.363 868.331 155.722 868.401 156.058 868.538C156.393 868.676 156.698 868.879 156.955 869.135C157.216 869.393 157.423 869.701 157.564 870.04C157.705 870.379 157.777 870.743 157.776 871.11V886.578C157.776 886.754 157.823 886.927 157.91 887.079C157.998 887.231 158.124 887.357 158.276 887.445C159.525 888.166 160.501 889.279 161.052 890.611C161.603 891.943 161.7 893.42 161.327 894.813C160.953 896.205 160.131 897.436 158.987 898.313C157.843 899.191 156.442 899.667 155 899.667ZM160 893.132C160 894.078 159.732 895.004 159.226 895.804C158.72 896.604 157.998 897.244 157.144 897.649C156.289 898.055 155.337 898.21 154.397 898.096C153.458 897.982 152.571 897.604 151.838 897.005C151.105 896.407 150.557 895.613 150.257 894.716C149.958 893.818 149.919 892.854 150.145 891.936C150.372 891.017 150.854 890.182 151.536 889.526C152.219 888.871 153.073 888.423 154 888.233V876.5C154 876.235 154.105 875.98 154.293 875.793C154.48 875.605 154.735 875.5 155 875.5C155.265 875.5 155.519 875.605 155.707 875.793C155.894 875.98 156 876.235 156 876.5V888.233C157.129 888.464 158.144 889.077 158.873 889.97C159.601 890.862 160 891.979 160 893.132Z" fill="white"/>
<path d="M159.234 934.492L144.656 967H141.727L156.211 935.266H136.805V932.875H159.234V934.492ZM186.211 967H164.836V964.844L176.531 951.578C178.469 949.344 179.812 947.5 180.562 946.047C181.312 944.594 181.688 943.18 181.688 941.805C181.688 939.648 181.055 937.945 179.789 936.695C178.523 935.43 176.781 934.797 174.562 934.797C172.266 934.797 170.406 935.531 168.984 937C167.578 938.469 166.875 940.375 166.875 942.719H164.086C164.086 940.797 164.516 939.047 165.375 937.469C166.25 935.891 167.484 934.656 169.078 933.766C170.688 932.859 172.516 932.406 174.562 932.406C177.688 932.406 180.125 933.227 181.875 934.867C183.641 936.508 184.523 938.742 184.523 941.57C184.523 943.164 184.023 944.906 183.023 946.797C182.039 948.688 180.297 951.047 177.797 953.875L168.281 964.633H186.211V967ZM191.648 965.312C191.648 964.766 191.82 964.305 192.164 963.93C192.523 963.539 193.016 963.344 193.641 963.344C194.266 963.344 194.758 963.539 195.117 963.93C195.477 964.305 195.656 964.766 195.656 965.312C195.656 965.859 195.477 966.312 195.117 966.672C194.758 967.016 194.266 967.188 193.641 967.188C193.016 967.188 192.523 967.016 192.164 966.672C191.82 966.312 191.648 965.859 191.648 965.312ZM204.844 949.516L206.508 932.875H223.57V935.477H208.922L207.727 947.008C209.555 945.758 211.695 945.133 214.148 945.133C217.227 945.133 219.68 946.133 221.508 948.133C223.336 950.133 224.25 952.797 224.25 956.125C224.25 959.719 223.359 962.508 221.578 964.492C219.797 966.477 217.289 967.469 214.055 967.469C211.086 967.469 208.68 966.641 206.836 964.984C204.992 963.328 203.938 961.008 203.672 958.023H206.367C206.633 960.352 207.422 962.117 208.734 963.32C210.047 964.508 211.82 965.102 214.055 965.102C216.492 965.102 218.328 964.328 219.562 962.781C220.812 961.234 221.438 959.031 221.438 956.172C221.438 953.672 220.742 951.633 219.352 950.055C217.961 948.477 216.062 947.688 213.656 947.688C212.328 947.688 211.172 947.859 210.188 948.203C209.203 948.531 208.164 949.18 207.07 950.148L204.844 949.516ZM241.125 938.266C241.125 939.891 240.57 941.258 239.461 942.367C238.352 943.477 237.016 944.031 235.453 944.031C233.875 944.031 232.523 943.477 231.398 942.367C230.273 941.242 229.711 939.875 229.711 938.266C229.711 936.656 230.281 935.281 231.422 934.141C232.562 932.984 233.906 932.406 235.453 932.406C237 932.406 238.328 932.984 239.438 934.141C240.562 935.281 241.125 936.656 241.125 938.266ZM231.82 938.266C231.82 939.312 232.164 940.18 232.852 940.867C233.555 941.555 234.422 941.898 235.453 941.898C236.484 941.898 237.336 941.555 238.008 940.867C238.68 940.18 239.016 939.312 239.016 938.266C239.016 937.188 238.68 936.297 238.008 935.594C237.336 934.891 236.484 934.539 235.453 934.539C234.438 934.539 233.578 934.891 232.875 935.594C232.172 936.297 231.82 937.188 231.82 938.266Z" fill="white"/>
<path opacity="0.7" d="M258.543 961.349H253.173V967H251.485V954.203H259.413V955.592H253.173V959.969H258.543V961.349Z" fill="white" fill-opacity="0.7"/>
<path d="M148.77 990.789H143.285V1006H141.047V990.789H135.574V988.938H148.77V990.789ZM155.051 1006.23C153.332 1006.23 151.934 1005.67 150.855 1004.55C149.777 1003.41 149.238 1001.9 149.238 1000.01V999.613C149.238 998.355 149.477 997.234 149.953 996.25C150.438 995.258 151.109 994.484 151.969 993.93C152.836 993.367 153.773 993.086 154.781 993.086C156.43 993.086 157.711 993.629 158.625 994.715C159.539 995.801 159.996 997.355 159.996 999.379V1000.28H151.406C151.438 1001.53 151.801 1002.54 152.496 1003.32C153.199 1004.08 154.09 1004.46 155.168 1004.46C155.934 1004.46 156.582 1004.31 157.113 1004C157.645 1003.68 158.109 1003.27 158.508 1002.75L159.832 1003.79C158.77 1005.42 157.176 1006.23 155.051 1006.23ZM154.781 994.867C153.906 994.867 153.172 995.188 152.578 995.828C151.984 996.461 151.617 997.352 151.477 998.5H157.828V998.336C157.766 997.234 157.469 996.383 156.938 995.781C156.406 995.172 155.688 994.867 154.781 994.867ZM164.555 993.32L164.613 994.727C165.543 993.633 166.797 993.086 168.375 993.086C170.148 993.086 171.355 993.766 171.996 995.125C172.418 994.516 172.965 994.023 173.637 993.648C174.316 993.273 175.117 993.086 176.039 993.086C178.82 993.086 180.234 994.559 180.281 997.504V1006H178.113V997.633C178.113 996.727 177.906 996.051 177.492 995.605C177.078 995.152 176.383 994.926 175.406 994.926C174.602 994.926 173.934 995.168 173.402 995.652C172.871 996.129 172.562 996.773 172.477 997.586V1006H170.297V997.691C170.297 995.848 169.395 994.926 167.59 994.926C166.168 994.926 165.195 995.531 164.672 996.742V1006H162.504V993.32H164.555ZM194.273 999.801C194.273 1001.73 193.832 1003.29 192.949 1004.46C192.066 1005.64 190.871 1006.23 189.363 1006.23C187.824 1006.23 186.613 1005.75 185.73 1004.77V1010.88H183.562V993.32H185.543L185.648 994.727C186.531 993.633 187.758 993.086 189.328 993.086C190.852 993.086 192.055 993.66 192.938 994.809C193.828 995.957 194.273 997.555 194.273 999.602V999.801ZM192.105 999.555C192.105 998.125 191.801 996.996 191.191 996.168C190.582 995.34 189.746 994.926 188.684 994.926C187.371 994.926 186.387 995.508 185.73 996.672V1002.73C186.379 1003.89 187.371 1004.46 188.707 1004.46C189.746 1004.46 190.57 1004.05 191.18 1003.23C191.797 1002.41 192.105 1001.18 192.105 999.555ZM202.301 1006.23C200.582 1006.23 199.184 1005.67 198.105 1004.55C197.027 1003.41 196.488 1001.9 196.488 1000.01V999.613C196.488 998.355 196.727 997.234 197.203 996.25C197.688 995.258 198.359 994.484 199.219 993.93C200.086 993.367 201.023 993.086 202.031 993.086C203.68 993.086 204.961 993.629 205.875 994.715C206.789 995.801 207.246 997.355 207.246 999.379V1000.28H198.656C198.688 1001.53 199.051 1002.54 199.746 1003.32C200.449 1004.08 201.34 1004.46 202.418 1004.46C203.184 1004.46 203.832 1004.31 204.363 1004C204.895 1003.68 205.359 1003.27 205.758 1002.75L207.082 1003.79C206.02 1005.42 204.426 1006.23 202.301 1006.23ZM202.031 994.867C201.156 994.867 200.422 995.188 199.828 995.828C199.234 996.461 198.867 997.352 198.727 998.5H205.078V998.336C205.016 997.234 204.719 996.383 204.188 995.781C203.656 995.172 202.938 994.867 202.031 994.867ZM215.895 995.266C215.566 995.211 215.211 995.184 214.828 995.184C213.406 995.184 212.441 995.789 211.934 997V1006H209.766V993.32H211.875L211.91 994.785C212.621 993.652 213.629 993.086 214.934 993.086C215.355 993.086 215.676 993.141 215.895 993.25V995.266ZM225.258 1006C225.133 1005.75 225.031 1005.3 224.953 1004.66C223.945 1005.71 222.742 1006.23 221.344 1006.23C220.094 1006.23 219.066 1005.88 218.262 1005.18C217.465 1004.47 217.066 1003.57 217.066 1002.48C217.066 1001.16 217.566 1000.14 218.566 999.414C219.574 998.68 220.988 998.312 222.809 998.312H224.918V997.316C224.918 996.559 224.691 995.957 224.238 995.512C223.785 995.059 223.117 994.832 222.234 994.832C221.461 994.832 220.812 995.027 220.289 995.418C219.766 995.809 219.504 996.281 219.504 996.836H217.324C217.324 996.203 217.547 995.594 217.992 995.008C218.445 994.414 219.055 993.945 219.82 993.602C220.594 993.258 221.441 993.086 222.363 993.086C223.824 993.086 224.969 993.453 225.797 994.188C226.625 994.914 227.055 995.918 227.086 997.199V1003.04C227.086 1004.2 227.234 1005.12 227.531 1005.81V1006H225.258ZM221.66 1004.35C222.34 1004.35 222.984 1004.17 223.594 1003.82C224.203 1003.47 224.645 1003.01 224.918 1002.45V999.848H223.219C220.562 999.848 219.234 1000.62 219.234 1002.18C219.234 1002.86 219.461 1003.39 219.914 1003.77C220.367 1004.16 220.949 1004.35 221.66 1004.35ZM233.426 990.25V993.32H235.793V994.996H233.426V1002.86C233.426 1003.37 233.531 1003.75 233.742 1004.01C233.953 1004.26 234.312 1004.38 234.82 1004.38C235.07 1004.38 235.414 1004.34 235.852 1004.24V1006C235.281 1006.16 234.727 1006.23 234.188 1006.23C233.219 1006.23 232.488 1005.94 231.996 1005.36C231.504 1004.77 231.258 1003.94 231.258 1002.86V994.996H228.949V993.32H231.258V990.25H233.426ZM246.164 1004.75C245.32 1005.74 244.082 1006.23 242.449 1006.23C241.098 1006.23 240.066 1005.84 239.355 1005.06C238.652 1004.27 238.297 1003.11 238.289 1001.57V993.32H240.457V1001.51C240.457 1003.43 241.238 1004.39 242.801 1004.39C244.457 1004.39 245.559 1003.78 246.105 1002.54V993.32H248.273V1006H246.211L246.164 1004.75ZM257.707 995.266C257.379 995.211 257.023 995.184 256.641 995.184C255.219 995.184 254.254 995.789 253.746 997V1006H251.578V993.32H253.688L253.723 994.785C254.434 993.652 255.441 993.086 256.746 993.086C257.168 993.086 257.488 993.141 257.707 993.25V995.266ZM264.738 1006.23C263.02 1006.23 261.621 1005.67 260.543 1004.55C259.465 1003.41 258.926 1001.9 258.926 1000.01V999.613C258.926 998.355 259.164 997.234 259.641 996.25C260.125 995.258 260.797 994.484 261.656 993.93C262.523 993.367 263.461 993.086 264.469 993.086C266.117 993.086 267.398 993.629 268.312 994.715C269.227 995.801 269.684 997.355 269.684 999.379V1000.28H261.094C261.125 1001.53 261.488 1002.54 262.184 1003.32C262.887 1004.08 263.777 1004.46 264.855 1004.46C265.621 1004.46 266.27 1004.31 266.801 1004C267.332 1003.68 267.797 1003.27 268.195 1002.75L269.52 1003.79C268.457 1005.42 266.863 1006.23 264.738 1006.23ZM264.469 994.867C263.594 994.867 262.859 995.188 262.266 995.828C261.672 996.461 261.305 997.352 261.164 998.5H267.516V998.336C267.453 997.234 267.156 996.383 266.625 995.781C266.094 995.172 265.375 994.867 264.469 994.867Z" fill="white"/>
<path fill-rule="evenodd" clip-rule="evenodd" d="M366 1012L373.966 989.374H378.216L375.87 996.038H383.308L387.546 984H391.796L383.831 1006.63H379.58L382.148 999.333H374.71L370.25 1012H366Z" fill="white"/>
<defs>
<linearGradient id="paint0_linear_3940_23127" x1="179.5" y1="55" x2="445" y2="461.5" gradientUnits="userSpaceOnUse">
<stop stop-color="#25294A"/>
<stop offset="1" stop-color="#020308"/>
</linearGradient>
<linearGradient id="paint1_linear_3940_23127" x1="231.918" y1="314" x2="574.722" y2="644.013" gradientUnits="userSpaceOnUse">
<stop stop-color="white"/>
<stop offset="1" stop-color="#D4D4D4"/>
<stop offset="1" stop-color="#D4D4D4"/>
</linearGradient>
<linearGradient id="paint2_linear_3940_23127" x1="231.918" y1="573" x2="574.722" y2="903.013" gradientUnits="userSpaceOnUse">
<stop stop-color="white"/>
<stop offset="1" stop-color="#D4D4D4"/>
<stop offset="1" stop-color="#D4D4D4"/>
</linearGradient>
<linearGradient id="paint3_linear_3940_23127" x1="243.637" y1="832" x2="543" y2="1142.23" gradientUnits="userSpaceOnUse">
<stop stop-color="#3456F7"/>
<stop offset="1" stop-color="#00188A"/>
</linearGradient>
</defs>
</svg>
