<svg width="375" height="812" viewBox="0 0 375 812" fill="none" xmlns="http://www.w3.org/2000/svg">
<g clip-path="url(#clip0_3298_18432)">
<rect width="375" height="812" fill="white"/>
<rect x="16" y="56" width="343" height="132" rx="20" fill="#25294A"/>
<path d="M286.688 86.7422H281.758V90.7734H287.484V92H280.258V80.625H287.406V81.8594H281.758V85.5156H286.688V86.7422ZM291.961 86.6328L293.836 83.5469H295.523L292.758 87.7266L295.609 92H293.938L291.984 88.8359L290.031 92H288.352L291.203 87.7266L288.438 83.5469H290.109L291.961 86.6328ZM300.297 90.9766C300.812 90.9766 301.263 90.8203 301.648 90.5078C302.034 90.1953 302.247 89.8047 302.289 89.3359H303.656C303.63 89.8203 303.464 90.2812 303.156 90.7188C302.849 91.1562 302.438 91.5052 301.922 91.7656C301.411 92.026 300.87 92.1562 300.297 92.1562C299.146 92.1562 298.229 91.7734 297.547 91.0078C296.87 90.237 296.531 89.1849 296.531 87.8516V87.6094C296.531 86.7865 296.682 86.0547 296.984 85.4141C297.286 84.7734 297.719 84.276 298.281 83.9219C298.849 83.5677 299.518 83.3906 300.289 83.3906C301.237 83.3906 302.023 83.6745 302.648 84.2422C303.279 84.8099 303.615 85.5469 303.656 86.4531H302.289C302.247 85.9062 302.039 85.4583 301.664 85.1094C301.294 84.7552 300.836 84.5781 300.289 84.5781C299.555 84.5781 298.984 84.8438 298.578 85.375C298.177 85.901 297.977 86.6641 297.977 87.6641V87.9375C297.977 88.9115 298.177 89.6615 298.578 90.1875C298.979 90.7135 299.552 90.9766 300.297 90.9766ZM308.789 92.1562C307.643 92.1562 306.711 91.7812 305.992 91.0312C305.273 90.276 304.914 89.2682 304.914 88.0078V87.7422C304.914 86.9036 305.073 86.1562 305.391 85.5C305.714 84.8385 306.161 84.3229 306.734 83.9531C307.312 83.5781 307.938 83.3906 308.609 83.3906C309.708 83.3906 310.562 83.7526 311.172 84.4766C311.781 85.2005 312.086 86.237 312.086 87.5859V88.1875H306.359C306.38 89.0208 306.622 89.6953 307.086 90.2109C307.555 90.7214 308.148 90.9766 308.867 90.9766C309.378 90.9766 309.81 90.8724 310.164 90.6641C310.518 90.4557 310.828 90.1797 311.094 89.8359L311.977 90.5234C311.268 91.612 310.206 92.1562 308.789 92.1562ZM308.609 84.5781C308.026 84.5781 307.536 84.7917 307.141 85.2188C306.745 85.6406 306.5 86.2344 306.406 87H310.641V86.8906C310.599 86.1562 310.401 85.5885 310.047 85.1875C309.693 84.7812 309.214 84.5781 308.609 84.5781ZM315.336 92H313.891V80H315.336V92ZM319.227 92H317.781V80H319.227V92ZM325.055 92.1562C323.909 92.1562 322.977 91.7812 322.258 91.0312C321.539 90.276 321.18 89.2682 321.18 88.0078V87.7422C321.18 86.9036 321.339 86.1562 321.656 85.5C321.979 84.8385 322.427 84.3229 323 83.9531C323.578 83.5781 324.203 83.3906 324.875 83.3906C325.974 83.3906 326.828 83.7526 327.438 84.4766C328.047 85.2005 328.352 86.237 328.352 87.5859V88.1875H322.625C322.646 89.0208 322.888 89.6953 323.352 90.2109C323.82 90.7214 324.414 90.9766 325.133 90.9766C325.643 90.9766 326.076 90.8724 326.43 90.6641C326.784 90.4557 327.094 90.1797 327.359 89.8359L328.242 90.5234C327.534 91.612 326.471 92.1562 325.055 92.1562ZM324.875 84.5781C324.292 84.5781 323.802 84.7917 323.406 85.2188C323.01 85.6406 322.766 86.2344 322.672 87H326.906V86.8906C326.865 86.1562 326.667 85.5885 326.312 85.1875C325.958 84.7812 325.479 84.5781 324.875 84.5781ZM331.398 83.5469L331.445 84.6094C332.091 83.7969 332.935 83.3906 333.977 83.3906C335.763 83.3906 336.664 84.3984 336.68 86.4141V92H335.234V86.4062C335.229 85.7969 335.089 85.3464 334.812 85.0547C334.542 84.763 334.117 84.6172 333.539 84.6172C333.07 84.6172 332.659 84.7422 332.305 84.9922C331.951 85.2422 331.674 85.5703 331.477 85.9766V92H330.031V83.5469H331.398ZM340.82 81.5V83.5469H342.398V84.6641H340.82V89.9062C340.82 90.2448 340.891 90.5 341.031 90.6719C341.172 90.8385 341.411 90.9219 341.75 90.9219C341.917 90.9219 342.146 90.8906 342.438 90.8281V92C342.057 92.1042 341.688 92.1562 341.328 92.1562C340.682 92.1562 340.195 91.9609 339.867 91.5703C339.539 91.1797 339.375 90.625 339.375 89.9062V84.6641H337.836V83.5469H339.375V81.5H340.82Z" fill="#02C39A"/>
<path d="M51.8211 89.6187V77.688C51.8211 76.6746 51.4185 75.7026 50.7019 74.9859C49.9852 74.2693 49.0132 73.8667 47.9998 73.8667C46.9863 73.8667 46.0143 74.2693 45.2977 74.9859C44.581 75.7026 44.1784 76.6746 44.1784 77.688V89.6187C42.962 90.4374 42.0406 91.6252 41.5501 93.007C41.0595 94.3889 41.0258 95.8917 41.4538 97.2942C41.8818 98.6967 42.7489 99.9246 43.9274 100.797C45.1059 101.67 46.5334 102.141 47.9998 102.141C49.4661 102.141 50.8936 101.67 52.0721 100.797C53.2506 99.9246 54.1177 98.6967 54.5457 97.2942C54.9737 95.8917 54.94 94.3889 54.4495 93.007C53.9589 91.6252 53.0376 90.4374 51.8211 89.6187ZM47.9998 100.533C46.8462 100.534 45.7248 100.153 44.8095 99.4514C43.8941 98.7495 43.236 97.7651 42.9371 96.651C42.6383 95.5368 42.7154 94.3552 43.1566 93.2894C43.5977 92.2235 44.3783 91.333 45.3771 90.756C45.4988 90.6858 45.5998 90.5847 45.67 90.463C45.7403 90.3413 45.7772 90.2032 45.7771 90.0627V77.688C45.7778 77.0989 46.0122 76.5341 46.429 76.1176C46.8457 75.7012 47.4106 75.4671 47.9998 75.4667C48.2899 75.4649 48.5775 75.5207 48.846 75.6307C49.1144 75.7408 49.3584 75.9031 49.5638 76.108C49.7724 76.3148 49.938 76.5609 50.0508 76.8321C50.1636 77.1034 50.2215 77.3943 50.2211 77.688V90.0627C50.221 90.2032 50.2579 90.3413 50.3281 90.463C50.3984 90.5847 50.4994 90.6858 50.6211 90.756C51.6198 91.333 52.4003 92.2233 52.8415 93.289C53.2827 94.3547 53.3599 95.5362 53.0612 96.6503C52.7626 97.7644 52.1046 98.7488 51.1895 99.4508C50.2744 100.153 49.1532 100.533 47.9998 100.533ZM51.9998 95.3054C51.9999 96.0623 51.7852 96.8036 51.3808 97.4434C50.9763 98.0831 50.3986 98.595 49.7149 98.9195C49.0311 99.2441 48.2693 99.3679 47.5179 99.2768C46.7665 99.1856 46.0564 98.8831 45.4701 98.4044C44.8838 97.9258 44.4454 97.2906 44.2057 96.5727C43.966 95.8548 43.9349 95.0836 44.116 94.3487C44.2971 93.6138 44.683 92.9454 45.2289 92.4211C45.7748 91.8967 46.4582 91.5381 47.1998 91.3867V82C47.1998 81.7879 47.284 81.5844 47.4341 81.4343C47.5841 81.2843 47.7876 81.2 47.9998 81.2C48.2119 81.2 48.4154 81.2843 48.5654 81.4343C48.7155 81.5844 48.7998 81.7879 48.7998 82V91.3867C49.703 91.5711 50.5149 92.0618 51.098 92.7759C51.6811 93.4899 51.9996 94.3835 51.9998 95.3054Z" fill="#4E7CFF"/>
<g clip-path="url(#clip1_3298_18432)">
<path d="M44.1172 123.246L36.8281 139.5H35.3633L42.6055 123.633H32.9023V122.438H44.1172V123.246ZM57.6055 139.5H46.918V138.422L52.7656 131.789C53.7344 130.672 54.4062 129.75 54.7812 129.023C55.1562 128.297 55.3438 127.59 55.3438 126.902C55.3438 125.824 55.0273 124.973 54.3945 124.348C53.7617 123.715 52.8906 123.398 51.7812 123.398C50.6328 123.398 49.7031 123.766 48.9922 124.5C48.2891 125.234 47.9375 126.188 47.9375 127.359H46.543C46.543 126.398 46.7578 125.523 47.1875 124.734C47.625 123.945 48.2422 123.328 49.0391 122.883C49.8438 122.43 50.7578 122.203 51.7812 122.203C53.3438 122.203 54.5625 122.613 55.4375 123.434C56.3203 124.254 56.7617 125.371 56.7617 126.785C56.7617 127.582 56.5117 128.453 56.0117 129.398C55.5195 130.344 54.6484 131.523 53.3984 132.938L48.6406 138.316H57.6055V139.5ZM60.3242 138.656C60.3242 138.383 60.4102 138.152 60.582 137.965C60.7617 137.77 61.0078 137.672 61.3203 137.672C61.6328 137.672 61.8789 137.77 62.0586 137.965C62.2383 138.152 62.3281 138.383 62.3281 138.656C62.3281 138.93 62.2383 139.156 62.0586 139.336C61.8789 139.508 61.6328 139.594 61.3203 139.594C61.0078 139.594 60.7617 139.508 60.582 139.336C60.4102 139.156 60.3242 138.93 60.3242 138.656ZM66.9219 130.758L67.7539 122.438H76.2852V123.738H68.9609L68.3633 129.504C69.2773 128.879 70.3477 128.566 71.5742 128.566C73.1133 128.566 74.3398 129.066 75.2539 130.066C76.168 131.066 76.625 132.398 76.625 134.062C76.625 135.859 76.1797 137.254 75.2891 138.246C74.3984 139.238 73.1445 139.734 71.5273 139.734C70.043 139.734 68.8398 139.32 67.918 138.492C66.9961 137.664 66.4688 136.504 66.3359 135.012H67.6836C67.8164 136.176 68.2109 137.059 68.8672 137.66C69.5234 138.254 70.4102 138.551 71.5273 138.551C72.7461 138.551 73.6641 138.164 74.2812 137.391C74.9062 136.617 75.2188 135.516 75.2188 134.086C75.2188 132.836 74.8711 131.816 74.1758 131.027C73.4805 130.238 72.5312 129.844 71.3281 129.844C70.6641 129.844 70.0859 129.93 69.5938 130.102C69.1016 130.266 68.582 130.59 68.0352 131.074L66.9219 130.758ZM85.0625 125.133C85.0625 125.945 84.7852 126.629 84.2305 127.184C83.6758 127.738 83.0078 128.016 82.2266 128.016C81.4375 128.016 80.7617 127.738 80.1992 127.184C79.6367 126.621 79.3555 125.938 79.3555 125.133C79.3555 124.328 79.6406 123.641 80.2109 123.07C80.7812 122.492 81.4531 122.203 82.2266 122.203C83 122.203 83.6641 122.492 84.2188 123.07C84.7812 123.641 85.0625 124.328 85.0625 125.133ZM80.4102 125.133C80.4102 125.656 80.582 126.09 80.9258 126.434C81.2773 126.777 81.7109 126.949 82.2266 126.949C82.7422 126.949 83.168 126.777 83.5039 126.434C83.8398 126.09 84.0078 125.656 84.0078 125.133C84.0078 124.594 83.8398 124.148 83.5039 123.797C83.168 123.445 82.7422 123.27 82.2266 123.27C81.7188 123.27 81.2891 123.445 80.9375 123.797C80.5859 124.148 80.4102 124.594 80.4102 125.133Z" fill="white"/>
<path opacity="0.7" d="M93.6445 135.104H89.4678V139.5H88.1553V129.547H94.3213V130.627H89.4678V134.031H93.6445V135.104Z" fill="white" fill-opacity="0.7"/>
</g>
<path d="M41.1797 150.859H37.5234V161H36.0312V150.859H32.3828V149.625H41.1797V150.859ZM45.3672 161.156C44.2214 161.156 43.2891 160.781 42.5703 160.031C41.8516 159.276 41.4922 158.268 41.4922 157.008V156.742C41.4922 155.904 41.651 155.156 41.9688 154.5C42.2917 153.839 42.7396 153.323 43.3125 152.953C43.8906 152.578 44.5156 152.391 45.1875 152.391C46.2865 152.391 47.1406 152.753 47.75 153.477C48.3594 154.201 48.6641 155.237 48.6641 156.586V157.188H42.9375C42.9583 158.021 43.2005 158.695 43.6641 159.211C44.1328 159.721 44.7266 159.977 45.4453 159.977C45.9557 159.977 46.388 159.872 46.7422 159.664C47.0964 159.456 47.4062 159.18 47.6719 158.836L48.5547 159.523C47.8464 160.612 46.7839 161.156 45.3672 161.156ZM45.1875 153.578C44.6042 153.578 44.1146 153.792 43.7188 154.219C43.3229 154.641 43.0781 155.234 42.9844 156H47.2188V155.891C47.1771 155.156 46.9792 154.589 46.625 154.188C46.2708 153.781 45.7917 153.578 45.1875 153.578ZM51.7031 152.547L51.7422 153.484C52.362 152.755 53.1979 152.391 54.25 152.391C55.4323 152.391 56.237 152.844 56.6641 153.75C56.9453 153.344 57.3099 153.016 57.7578 152.766C58.2109 152.516 58.7448 152.391 59.3594 152.391C61.2135 152.391 62.1562 153.372 62.1875 155.336V161H60.7422V155.422C60.7422 154.818 60.6042 154.367 60.3281 154.07C60.0521 153.768 59.5885 153.617 58.9375 153.617C58.401 153.617 57.9557 153.779 57.6016 154.102C57.2474 154.419 57.0417 154.849 56.9844 155.391V161H55.5312V155.461C55.5312 154.232 54.9297 153.617 53.7266 153.617C52.7786 153.617 52.1302 154.021 51.7812 154.828V161H50.3359V152.547H51.7031ZM71.5156 156.867C71.5156 158.154 71.2214 159.19 70.6328 159.977C70.0443 160.763 69.2474 161.156 68.2422 161.156C67.2161 161.156 66.4089 160.831 65.8203 160.18V164.25H64.375V152.547H65.6953L65.7656 153.484C66.3542 152.755 67.1719 152.391 68.2188 152.391C69.2344 152.391 70.0365 152.773 70.625 153.539C71.2188 154.305 71.5156 155.37 71.5156 156.734V156.867ZM70.0703 156.703C70.0703 155.75 69.8672 154.997 69.4609 154.445C69.0547 153.893 68.4974 153.617 67.7891 153.617C66.9141 153.617 66.2578 154.005 65.8203 154.781V158.82C66.2526 159.591 66.9141 159.977 67.8047 159.977C68.4974 159.977 69.0469 159.703 69.4531 159.156C69.8646 158.604 70.0703 157.786 70.0703 156.703ZM76.8672 161.156C75.7214 161.156 74.7891 160.781 74.0703 160.031C73.3516 159.276 72.9922 158.268 72.9922 157.008V156.742C72.9922 155.904 73.151 155.156 73.4688 154.5C73.7917 153.839 74.2396 153.323 74.8125 152.953C75.3906 152.578 76.0156 152.391 76.6875 152.391C77.7865 152.391 78.6406 152.753 79.25 153.477C79.8594 154.201 80.1641 155.237 80.1641 156.586V157.188H74.4375C74.4583 158.021 74.7005 158.695 75.1641 159.211C75.6328 159.721 76.2266 159.977 76.9453 159.977C77.4557 159.977 77.888 159.872 78.2422 159.664C78.5964 159.456 78.9062 159.18 79.1719 158.836L80.0547 159.523C79.3464 160.612 78.2839 161.156 76.8672 161.156ZM76.6875 153.578C76.1042 153.578 75.6146 153.792 75.2188 154.219C74.8229 154.641 74.5781 155.234 74.4844 156H78.7188V155.891C78.6771 155.156 78.4792 154.589 78.125 154.188C77.7708 153.781 77.2917 153.578 76.6875 153.578ZM85.9297 153.844C85.7109 153.807 85.474 153.789 85.2188 153.789C84.2708 153.789 83.6276 154.193 83.2891 155V161H81.8438V152.547H83.25L83.2734 153.523C83.7474 152.768 84.4193 152.391 85.2891 152.391C85.5703 152.391 85.7839 152.427 85.9297 152.5V153.844ZM92.1719 161C92.0885 160.833 92.0208 160.536 91.9688 160.109C91.2969 160.807 90.4948 161.156 89.5625 161.156C88.7292 161.156 88.0443 160.922 87.5078 160.453C86.9766 159.979 86.7109 159.38 86.7109 158.656C86.7109 157.776 87.0443 157.094 87.7109 156.609C88.3828 156.12 89.3255 155.875 90.5391 155.875H91.9453V155.211C91.9453 154.706 91.7943 154.305 91.4922 154.008C91.1901 153.706 90.7448 153.555 90.1562 153.555C89.6406 153.555 89.2083 153.685 88.8594 153.945C88.5104 154.206 88.3359 154.521 88.3359 154.891H86.8828C86.8828 154.469 87.0312 154.062 87.3281 153.672C87.6302 153.276 88.0365 152.964 88.5469 152.734C89.0625 152.505 89.6276 152.391 90.2422 152.391C91.2161 152.391 91.9792 152.635 92.5312 153.125C93.0833 153.609 93.3698 154.279 93.3906 155.133V159.023C93.3906 159.799 93.4896 160.417 93.6875 160.875V161H92.1719ZM89.7734 159.898C90.2266 159.898 90.6562 159.781 91.0625 159.547C91.4688 159.312 91.763 159.008 91.9453 158.633V156.898H90.8125C89.0417 156.898 88.1562 157.417 88.1562 158.453C88.1562 158.906 88.3073 159.26 88.6094 159.516C88.9115 159.771 89.2995 159.898 89.7734 159.898ZM97.6172 150.5V152.547H99.1953V153.664H97.6172V158.906C97.6172 159.245 97.6875 159.5 97.8281 159.672C97.9688 159.839 98.2083 159.922 98.5469 159.922C98.7135 159.922 98.9427 159.891 99.2344 159.828V161C98.8542 161.104 98.4844 161.156 98.125 161.156C97.4792 161.156 96.9922 160.961 96.6641 160.57C96.3359 160.18 96.1719 159.625 96.1719 158.906V153.664H94.6328V152.547H96.1719V150.5H97.6172ZM106.109 160.164C105.547 160.826 104.721 161.156 103.633 161.156C102.732 161.156 102.044 160.896 101.57 160.375C101.102 159.849 100.865 159.073 100.859 158.047V152.547H102.305V158.008C102.305 159.289 102.826 159.93 103.867 159.93C104.971 159.93 105.706 159.518 106.07 158.695V152.547H107.516V161H106.141L106.109 160.164ZM113.805 153.844C113.586 153.807 113.349 153.789 113.094 153.789C112.146 153.789 111.503 154.193 111.164 155V161H109.719V152.547H111.125L111.148 153.523C111.622 152.768 112.294 152.391 113.164 152.391C113.445 152.391 113.659 152.427 113.805 152.5V153.844ZM118.492 161.156C117.346 161.156 116.414 160.781 115.695 160.031C114.977 159.276 114.617 158.268 114.617 157.008V156.742C114.617 155.904 114.776 155.156 115.094 154.5C115.417 153.839 115.865 153.323 116.438 152.953C117.016 152.578 117.641 152.391 118.312 152.391C119.411 152.391 120.266 152.753 120.875 153.477C121.484 154.201 121.789 155.237 121.789 156.586V157.188H116.062C116.083 158.021 116.326 158.695 116.789 159.211C117.258 159.721 117.852 159.977 118.57 159.977C119.081 159.977 119.513 159.872 119.867 159.664C120.221 159.456 120.531 159.18 120.797 158.836L121.68 159.523C120.971 160.612 119.909 161.156 118.492 161.156ZM118.312 153.578C117.729 153.578 117.24 153.792 116.844 154.219C116.448 154.641 116.203 155.234 116.109 156H120.344V155.891C120.302 155.156 120.104 154.589 119.75 154.188C119.396 153.781 118.917 153.578 118.312 153.578Z" fill="white"/>
<path fill-rule="evenodd" clip-rule="evenodd" d="M314 162L321.966 139.374H326.216L323.87 146.038H331.308L335.546 134H339.796L331.831 156.626H327.58L330.148 149.333H322.71L318.25 162H314Z" fill="white"/>
<rect x="17" y="213" width="341" height="130" rx="19" fill="white" stroke="#021449" stroke-width="2"/>
<path d="M286.688 242.742H281.758V246.773H287.484V248H280.258V236.625H287.406V237.859H281.758V241.516H286.688V242.742ZM291.961 242.633L293.836 239.547H295.523L292.758 243.727L295.609 248H293.938L291.984 244.836L290.031 248H288.352L291.203 243.727L288.438 239.547H290.109L291.961 242.633ZM300.297 246.977C300.812 246.977 301.263 246.82 301.648 246.508C302.034 246.195 302.247 245.805 302.289 245.336H303.656C303.63 245.82 303.464 246.281 303.156 246.719C302.849 247.156 302.438 247.505 301.922 247.766C301.411 248.026 300.87 248.156 300.297 248.156C299.146 248.156 298.229 247.773 297.547 247.008C296.87 246.237 296.531 245.185 296.531 243.852V243.609C296.531 242.786 296.682 242.055 296.984 241.414C297.286 240.773 297.719 240.276 298.281 239.922C298.849 239.568 299.518 239.391 300.289 239.391C301.237 239.391 302.023 239.674 302.648 240.242C303.279 240.81 303.615 241.547 303.656 242.453H302.289C302.247 241.906 302.039 241.458 301.664 241.109C301.294 240.755 300.836 240.578 300.289 240.578C299.555 240.578 298.984 240.844 298.578 241.375C298.177 241.901 297.977 242.664 297.977 243.664V243.938C297.977 244.911 298.177 245.661 298.578 246.188C298.979 246.714 299.552 246.977 300.297 246.977ZM308.789 248.156C307.643 248.156 306.711 247.781 305.992 247.031C305.273 246.276 304.914 245.268 304.914 244.008V243.742C304.914 242.904 305.073 242.156 305.391 241.5C305.714 240.839 306.161 240.323 306.734 239.953C307.312 239.578 307.938 239.391 308.609 239.391C309.708 239.391 310.562 239.753 311.172 240.477C311.781 241.201 312.086 242.237 312.086 243.586V244.188H306.359C306.38 245.021 306.622 245.695 307.086 246.211C307.555 246.721 308.148 246.977 308.867 246.977C309.378 246.977 309.81 246.872 310.164 246.664C310.518 246.456 310.828 246.18 311.094 245.836L311.977 246.523C311.268 247.612 310.206 248.156 308.789 248.156ZM308.609 240.578C308.026 240.578 307.536 240.792 307.141 241.219C306.745 241.641 306.5 242.234 306.406 243H310.641V242.891C310.599 242.156 310.401 241.589 310.047 241.188C309.693 240.781 309.214 240.578 308.609 240.578ZM315.336 248H313.891V236H315.336V248ZM319.227 248H317.781V236H319.227V248ZM325.055 248.156C323.909 248.156 322.977 247.781 322.258 247.031C321.539 246.276 321.18 245.268 321.18 244.008V243.742C321.18 242.904 321.339 242.156 321.656 241.5C321.979 240.839 322.427 240.323 323 239.953C323.578 239.578 324.203 239.391 324.875 239.391C325.974 239.391 326.828 239.753 327.438 240.477C328.047 241.201 328.352 242.237 328.352 243.586V244.188H322.625C322.646 245.021 322.888 245.695 323.352 246.211C323.82 246.721 324.414 246.977 325.133 246.977C325.643 246.977 326.076 246.872 326.43 246.664C326.784 246.456 327.094 246.18 327.359 245.836L328.242 246.523C327.534 247.612 326.471 248.156 325.055 248.156ZM324.875 240.578C324.292 240.578 323.802 240.792 323.406 241.219C323.01 241.641 322.766 242.234 322.672 243H326.906V242.891C326.865 242.156 326.667 241.589 326.312 241.188C325.958 240.781 325.479 240.578 324.875 240.578ZM331.398 239.547L331.445 240.609C332.091 239.797 332.935 239.391 333.977 239.391C335.763 239.391 336.664 240.398 336.68 242.414V248H335.234V242.406C335.229 241.797 335.089 241.346 334.812 241.055C334.542 240.763 334.117 240.617 333.539 240.617C333.07 240.617 332.659 240.742 332.305 240.992C331.951 241.242 331.674 241.57 331.477 241.977V248H330.031V239.547H331.398ZM340.82 237.5V239.547H342.398V240.664H340.82V245.906C340.82 246.245 340.891 246.5 341.031 246.672C341.172 246.839 341.411 246.922 341.75 246.922C341.917 246.922 342.146 246.891 342.438 246.828V248C342.057 248.104 341.688 248.156 341.328 248.156C340.682 248.156 340.195 247.961 339.867 247.57C339.539 247.18 339.375 246.625 339.375 245.906V240.664H337.836V239.547H339.375V237.5H340.82Z" fill="#02C39A"/>
<path d="M51.8211 245.619V233.688C51.8211 232.675 51.4185 231.703 50.7019 230.986C49.9852 230.269 49.0132 229.867 47.9998 229.867C46.9863 229.867 46.0143 230.269 45.2977 230.986C44.581 231.703 44.1784 232.675 44.1784 233.688V245.619C42.962 246.437 42.0406 247.625 41.5501 249.007C41.0595 250.389 41.0258 251.892 41.4538 253.294C41.8818 254.697 42.7489 255.925 43.9274 256.797C45.1059 257.67 46.5334 258.141 47.9998 258.141C49.4661 258.141 50.8936 257.67 52.0721 256.797C53.2506 255.925 54.1177 254.697 54.5457 253.294C54.9737 251.892 54.94 250.389 54.4495 249.007C53.9589 247.625 53.0376 246.437 51.8211 245.619ZM47.9998 256.533C46.8462 256.534 45.7248 256.153 44.8095 255.451C43.8941 254.749 43.236 253.765 42.9371 252.651C42.6383 251.537 42.7154 250.355 43.1566 249.289C43.5977 248.224 44.3783 247.333 45.3771 246.756C45.4988 246.686 45.5998 246.585 45.67 246.463C45.7403 246.341 45.7772 246.203 45.7771 246.063V233.688C45.7778 233.099 46.0122 232.534 46.429 232.118C46.8457 231.701 47.4106 231.467 47.9998 231.467C48.2899 231.465 48.5775 231.521 48.846 231.631C49.1144 231.741 49.3584 231.903 49.5638 232.108C49.7724 232.315 49.938 232.561 50.0508 232.832C50.1636 233.103 50.2215 233.394 50.2211 233.688V246.063C50.221 246.203 50.2579 246.341 50.3281 246.463C50.3984 246.585 50.4994 246.686 50.6211 246.756C51.6198 247.333 52.4003 248.223 52.8415 249.289C53.2827 250.355 53.3599 251.536 53.0612 252.65C52.7626 253.764 52.1046 254.749 51.1895 255.451C50.2744 256.153 49.1532 256.533 47.9998 256.533ZM51.9998 251.305C51.9999 252.062 51.7852 252.804 51.3808 253.443C50.9763 254.083 50.3986 254.595 49.7149 254.92C49.0311 255.244 48.2693 255.368 47.5179 255.277C46.7665 255.186 46.0564 254.883 45.4701 254.404C44.8838 253.926 44.4454 253.291 44.2057 252.573C43.966 251.855 43.9349 251.084 44.116 250.349C44.2971 249.614 44.683 248.945 45.2289 248.421C45.7748 247.897 46.4582 247.538 47.1998 247.387V238C47.1998 237.788 47.284 237.584 47.4341 237.434C47.5841 237.284 47.7876 237.2 47.9998 237.2C48.2119 237.2 48.4154 237.284 48.5654 237.434C48.7155 237.584 48.7998 237.788 48.7998 238V247.387C49.703 247.571 50.5149 248.062 51.098 248.776C51.6811 249.49 51.9996 250.383 51.9998 251.305Z" fill="#4E7CFF"/>
<g clip-path="url(#clip2_3298_18432)">
<path d="M44.1172 279.246L36.8281 295.5H35.3633L42.6055 279.633H32.9023V278.438H44.1172V279.246ZM57.6055 295.5H46.918V294.422L52.7656 287.789C53.7344 286.672 54.4062 285.75 54.7812 285.023C55.1562 284.297 55.3438 283.59 55.3438 282.902C55.3438 281.824 55.0273 280.973 54.3945 280.348C53.7617 279.715 52.8906 279.398 51.7812 279.398C50.6328 279.398 49.7031 279.766 48.9922 280.5C48.2891 281.234 47.9375 282.188 47.9375 283.359H46.543C46.543 282.398 46.7578 281.523 47.1875 280.734C47.625 279.945 48.2422 279.328 49.0391 278.883C49.8438 278.43 50.7578 278.203 51.7812 278.203C53.3438 278.203 54.5625 278.613 55.4375 279.434C56.3203 280.254 56.7617 281.371 56.7617 282.785C56.7617 283.582 56.5117 284.453 56.0117 285.398C55.5195 286.344 54.6484 287.523 53.3984 288.938L48.6406 294.316H57.6055V295.5ZM60.3242 294.656C60.3242 294.383 60.4102 294.152 60.582 293.965C60.7617 293.77 61.0078 293.672 61.3203 293.672C61.6328 293.672 61.8789 293.77 62.0586 293.965C62.2383 294.152 62.3281 294.383 62.3281 294.656C62.3281 294.93 62.2383 295.156 62.0586 295.336C61.8789 295.508 61.6328 295.594 61.3203 295.594C61.0078 295.594 60.7617 295.508 60.582 295.336C60.4102 295.156 60.3242 294.93 60.3242 294.656ZM66.9219 286.758L67.7539 278.438H76.2852V279.738H68.9609L68.3633 285.504C69.2773 284.879 70.3477 284.566 71.5742 284.566C73.1133 284.566 74.3398 285.066 75.2539 286.066C76.168 287.066 76.625 288.398 76.625 290.062C76.625 291.859 76.1797 293.254 75.2891 294.246C74.3984 295.238 73.1445 295.734 71.5273 295.734C70.043 295.734 68.8398 295.32 67.918 294.492C66.9961 293.664 66.4688 292.504 66.3359 291.012H67.6836C67.8164 292.176 68.2109 293.059 68.8672 293.66C69.5234 294.254 70.4102 294.551 71.5273 294.551C72.7461 294.551 73.6641 294.164 74.2812 293.391C74.9062 292.617 75.2188 291.516 75.2188 290.086C75.2188 288.836 74.8711 287.816 74.1758 287.027C73.4805 286.238 72.5312 285.844 71.3281 285.844C70.6641 285.844 70.0859 285.93 69.5938 286.102C69.1016 286.266 68.582 286.59 68.0352 287.074L66.9219 286.758ZM85.0625 281.133C85.0625 281.945 84.7852 282.629 84.2305 283.184C83.6758 283.738 83.0078 284.016 82.2266 284.016C81.4375 284.016 80.7617 283.738 80.1992 283.184C79.6367 282.621 79.3555 281.938 79.3555 281.133C79.3555 280.328 79.6406 279.641 80.2109 279.07C80.7812 278.492 81.4531 278.203 82.2266 278.203C83 278.203 83.6641 278.492 84.2188 279.07C84.7812 279.641 85.0625 280.328 85.0625 281.133ZM80.4102 281.133C80.4102 281.656 80.582 282.09 80.9258 282.434C81.2773 282.777 81.7109 282.949 82.2266 282.949C82.7422 282.949 83.168 282.777 83.5039 282.434C83.8398 282.09 84.0078 281.656 84.0078 281.133C84.0078 280.594 83.8398 280.148 83.5039 279.797C83.168 279.445 82.7422 279.27 82.2266 279.27C81.7188 279.27 81.2891 279.445 80.9375 279.797C80.5859 280.148 80.4102 280.594 80.4102 281.133Z" fill="#021449"/>
<path opacity="0.7" d="M93.6445 291.104H89.4678V295.5H88.1553V285.547H94.3213V286.627H89.4678V290.031H93.6445V291.104Z" fill="#A9A9A9"/>
</g>
<path d="M41.1797 306.859H37.5234V317H36.0312V306.859H32.3828V305.625H41.1797V306.859ZM45.3672 317.156C44.2214 317.156 43.2891 316.781 42.5703 316.031C41.8516 315.276 41.4922 314.268 41.4922 313.008V312.742C41.4922 311.904 41.651 311.156 41.9688 310.5C42.2917 309.839 42.7396 309.323 43.3125 308.953C43.8906 308.578 44.5156 308.391 45.1875 308.391C46.2865 308.391 47.1406 308.753 47.75 309.477C48.3594 310.201 48.6641 311.237 48.6641 312.586V313.188H42.9375C42.9583 314.021 43.2005 314.695 43.6641 315.211C44.1328 315.721 44.7266 315.977 45.4453 315.977C45.9557 315.977 46.388 315.872 46.7422 315.664C47.0964 315.456 47.4062 315.18 47.6719 314.836L48.5547 315.523C47.8464 316.612 46.7839 317.156 45.3672 317.156ZM45.1875 309.578C44.6042 309.578 44.1146 309.792 43.7188 310.219C43.3229 310.641 43.0781 311.234 42.9844 312H47.2188V311.891C47.1771 311.156 46.9792 310.589 46.625 310.188C46.2708 309.781 45.7917 309.578 45.1875 309.578ZM51.7031 308.547L51.7422 309.484C52.362 308.755 53.1979 308.391 54.25 308.391C55.4323 308.391 56.237 308.844 56.6641 309.75C56.9453 309.344 57.3099 309.016 57.7578 308.766C58.2109 308.516 58.7448 308.391 59.3594 308.391C61.2135 308.391 62.1562 309.372 62.1875 311.336V317H60.7422V311.422C60.7422 310.818 60.6042 310.367 60.3281 310.07C60.0521 309.768 59.5885 309.617 58.9375 309.617C58.401 309.617 57.9557 309.779 57.6016 310.102C57.2474 310.419 57.0417 310.849 56.9844 311.391V317H55.5312V311.461C55.5312 310.232 54.9297 309.617 53.7266 309.617C52.7786 309.617 52.1302 310.021 51.7812 310.828V317H50.3359V308.547H51.7031ZM71.5156 312.867C71.5156 314.154 71.2214 315.19 70.6328 315.977C70.0443 316.763 69.2474 317.156 68.2422 317.156C67.2161 317.156 66.4089 316.831 65.8203 316.18V320.25H64.375V308.547H65.6953L65.7656 309.484C66.3542 308.755 67.1719 308.391 68.2188 308.391C69.2344 308.391 70.0365 308.773 70.625 309.539C71.2188 310.305 71.5156 311.37 71.5156 312.734V312.867ZM70.0703 312.703C70.0703 311.75 69.8672 310.997 69.4609 310.445C69.0547 309.893 68.4974 309.617 67.7891 309.617C66.9141 309.617 66.2578 310.005 65.8203 310.781V314.82C66.2526 315.591 66.9141 315.977 67.8047 315.977C68.4974 315.977 69.0469 315.703 69.4531 315.156C69.8646 314.604 70.0703 313.786 70.0703 312.703ZM76.8672 317.156C75.7214 317.156 74.7891 316.781 74.0703 316.031C73.3516 315.276 72.9922 314.268 72.9922 313.008V312.742C72.9922 311.904 73.151 311.156 73.4688 310.5C73.7917 309.839 74.2396 309.323 74.8125 308.953C75.3906 308.578 76.0156 308.391 76.6875 308.391C77.7865 308.391 78.6406 308.753 79.25 309.477C79.8594 310.201 80.1641 311.237 80.1641 312.586V313.188H74.4375C74.4583 314.021 74.7005 314.695 75.1641 315.211C75.6328 315.721 76.2266 315.977 76.9453 315.977C77.4557 315.977 77.888 315.872 78.2422 315.664C78.5964 315.456 78.9062 315.18 79.1719 314.836L80.0547 315.523C79.3464 316.612 78.2839 317.156 76.8672 317.156ZM76.6875 309.578C76.1042 309.578 75.6146 309.792 75.2188 310.219C74.8229 310.641 74.5781 311.234 74.4844 312H78.7188V311.891C78.6771 311.156 78.4792 310.589 78.125 310.188C77.7708 309.781 77.2917 309.578 76.6875 309.578ZM85.9297 309.844C85.7109 309.807 85.474 309.789 85.2188 309.789C84.2708 309.789 83.6276 310.193 83.2891 311V317H81.8438V308.547H83.25L83.2734 309.523C83.7474 308.768 84.4193 308.391 85.2891 308.391C85.5703 308.391 85.7839 308.427 85.9297 308.5V309.844ZM92.1719 317C92.0885 316.833 92.0208 316.536 91.9688 316.109C91.2969 316.807 90.4948 317.156 89.5625 317.156C88.7292 317.156 88.0443 316.922 87.5078 316.453C86.9766 315.979 86.7109 315.38 86.7109 314.656C86.7109 313.776 87.0443 313.094 87.7109 312.609C88.3828 312.12 89.3255 311.875 90.5391 311.875H91.9453V311.211C91.9453 310.706 91.7943 310.305 91.4922 310.008C91.1901 309.706 90.7448 309.555 90.1562 309.555C89.6406 309.555 89.2083 309.685 88.8594 309.945C88.5104 310.206 88.3359 310.521 88.3359 310.891H86.8828C86.8828 310.469 87.0312 310.062 87.3281 309.672C87.6302 309.276 88.0365 308.964 88.5469 308.734C89.0625 308.505 89.6276 308.391 90.2422 308.391C91.2161 308.391 91.9792 308.635 92.5312 309.125C93.0833 309.609 93.3698 310.279 93.3906 311.133V315.023C93.3906 315.799 93.4896 316.417 93.6875 316.875V317H92.1719ZM89.7734 315.898C90.2266 315.898 90.6562 315.781 91.0625 315.547C91.4688 315.312 91.763 315.008 91.9453 314.633V312.898H90.8125C89.0417 312.898 88.1562 313.417 88.1562 314.453C88.1562 314.906 88.3073 315.26 88.6094 315.516C88.9115 315.771 89.2995 315.898 89.7734 315.898ZM97.6172 306.5V308.547H99.1953V309.664H97.6172V314.906C97.6172 315.245 97.6875 315.5 97.8281 315.672C97.9688 315.839 98.2083 315.922 98.5469 315.922C98.7135 315.922 98.9427 315.891 99.2344 315.828V317C98.8542 317.104 98.4844 317.156 98.125 317.156C97.4792 317.156 96.9922 316.961 96.6641 316.57C96.3359 316.18 96.1719 315.625 96.1719 314.906V309.664H94.6328V308.547H96.1719V306.5H97.6172ZM106.109 316.164C105.547 316.826 104.721 317.156 103.633 317.156C102.732 317.156 102.044 316.896 101.57 316.375C101.102 315.849 100.865 315.073 100.859 314.047V308.547H102.305V314.008C102.305 315.289 102.826 315.93 103.867 315.93C104.971 315.93 105.706 315.518 106.07 314.695V308.547H107.516V317H106.141L106.109 316.164ZM113.805 309.844C113.586 309.807 113.349 309.789 113.094 309.789C112.146 309.789 111.503 310.193 111.164 311V317H109.719V308.547H111.125L111.148 309.523C111.622 308.768 112.294 308.391 113.164 308.391C113.445 308.391 113.659 308.427 113.805 308.5V309.844ZM118.492 317.156C117.346 317.156 116.414 316.781 115.695 316.031C114.977 315.276 114.617 314.268 114.617 313.008V312.742C114.617 311.904 114.776 311.156 115.094 310.5C115.417 309.839 115.865 309.323 116.438 308.953C117.016 308.578 117.641 308.391 118.312 308.391C119.411 308.391 120.266 308.753 120.875 309.477C121.484 310.201 121.789 311.237 121.789 312.586V313.188H116.062C116.083 314.021 116.326 314.695 116.789 315.211C117.258 315.721 117.852 315.977 118.57 315.977C119.081 315.977 119.513 315.872 119.867 315.664C120.221 315.456 120.531 315.18 120.797 314.836L121.68 315.523C120.971 316.612 119.909 317.156 118.492 317.156ZM118.312 309.578C117.729 309.578 117.24 309.792 116.844 310.219C116.448 310.641 116.203 311.234 116.109 312H120.344V311.891C120.302 311.156 120.104 310.589 119.75 310.188C119.396 309.781 118.917 309.578 118.312 309.578Z" fill="#021449"/>
<path fill-rule="evenodd" clip-rule="evenodd" d="M314 325L321.966 302.374H326.216L323.87 309.038H331.308L335.546 297H339.796L331.831 319.626H327.58L330.148 312.333H322.71L318.25 325H314Z" fill="#1D213C"/>
<g filter="url(#filter0_dddddd_3298_18432)">
<rect x="17" y="369" width="341" height="130" rx="19" fill="white" stroke="#F0F0F0" stroke-width="2"/>
<path d="M286.688 398.742H281.758V402.773H287.484V404H280.258V392.625H287.406V393.859H281.758V397.516H286.688V398.742ZM291.961 398.633L293.836 395.547H295.523L292.758 399.727L295.609 404H293.938L291.984 400.836L290.031 404H288.352L291.203 399.727L288.438 395.547H290.109L291.961 398.633ZM300.297 402.977C300.812 402.977 301.263 402.82 301.648 402.508C302.034 402.195 302.247 401.805 302.289 401.336H303.656C303.63 401.82 303.464 402.281 303.156 402.719C302.849 403.156 302.438 403.505 301.922 403.766C301.411 404.026 300.87 404.156 300.297 404.156C299.146 404.156 298.229 403.773 297.547 403.008C296.87 402.237 296.531 401.185 296.531 399.852V399.609C296.531 398.786 296.682 398.055 296.984 397.414C297.286 396.773 297.719 396.276 298.281 395.922C298.849 395.568 299.518 395.391 300.289 395.391C301.237 395.391 302.023 395.674 302.648 396.242C303.279 396.81 303.615 397.547 303.656 398.453H302.289C302.247 397.906 302.039 397.458 301.664 397.109C301.294 396.755 300.836 396.578 300.289 396.578C299.555 396.578 298.984 396.844 298.578 397.375C298.177 397.901 297.977 398.664 297.977 399.664V399.938C297.977 400.911 298.177 401.661 298.578 402.188C298.979 402.714 299.552 402.977 300.297 402.977ZM308.789 404.156C307.643 404.156 306.711 403.781 305.992 403.031C305.273 402.276 304.914 401.268 304.914 400.008V399.742C304.914 398.904 305.073 398.156 305.391 397.5C305.714 396.839 306.161 396.323 306.734 395.953C307.312 395.578 307.938 395.391 308.609 395.391C309.708 395.391 310.562 395.753 311.172 396.477C311.781 397.201 312.086 398.237 312.086 399.586V400.188H306.359C306.38 401.021 306.622 401.695 307.086 402.211C307.555 402.721 308.148 402.977 308.867 402.977C309.378 402.977 309.81 402.872 310.164 402.664C310.518 402.456 310.828 402.18 311.094 401.836L311.977 402.523C311.268 403.612 310.206 404.156 308.789 404.156ZM308.609 396.578C308.026 396.578 307.536 396.792 307.141 397.219C306.745 397.641 306.5 398.234 306.406 399H310.641V398.891C310.599 398.156 310.401 397.589 310.047 397.188C309.693 396.781 309.214 396.578 308.609 396.578ZM315.336 404H313.891V392H315.336V404ZM319.227 404H317.781V392H319.227V404ZM325.055 404.156C323.909 404.156 322.977 403.781 322.258 403.031C321.539 402.276 321.18 401.268 321.18 400.008V399.742C321.18 398.904 321.339 398.156 321.656 397.5C321.979 396.839 322.427 396.323 323 395.953C323.578 395.578 324.203 395.391 324.875 395.391C325.974 395.391 326.828 395.753 327.438 396.477C328.047 397.201 328.352 398.237 328.352 399.586V400.188H322.625C322.646 401.021 322.888 401.695 323.352 402.211C323.82 402.721 324.414 402.977 325.133 402.977C325.643 402.977 326.076 402.872 326.43 402.664C326.784 402.456 327.094 402.18 327.359 401.836L328.242 402.523C327.534 403.612 326.471 404.156 325.055 404.156ZM324.875 396.578C324.292 396.578 323.802 396.792 323.406 397.219C323.01 397.641 322.766 398.234 322.672 399H326.906V398.891C326.865 398.156 326.667 397.589 326.312 397.188C325.958 396.781 325.479 396.578 324.875 396.578ZM331.398 395.547L331.445 396.609C332.091 395.797 332.935 395.391 333.977 395.391C335.763 395.391 336.664 396.398 336.68 398.414V404H335.234V398.406C335.229 397.797 335.089 397.346 334.812 397.055C334.542 396.763 334.117 396.617 333.539 396.617C333.07 396.617 332.659 396.742 332.305 396.992C331.951 397.242 331.674 397.57 331.477 397.977V404H330.031V395.547H331.398ZM340.82 393.5V395.547H342.398V396.664H340.82V401.906C340.82 402.245 340.891 402.5 341.031 402.672C341.172 402.839 341.411 402.922 341.75 402.922C341.917 402.922 342.146 402.891 342.438 402.828V404C342.057 404.104 341.688 404.156 341.328 404.156C340.682 404.156 340.195 403.961 339.867 403.57C339.539 403.18 339.375 402.625 339.375 401.906V396.664H337.836V395.547H339.375V393.5H340.82Z" fill="#02C39A"/>
<path d="M51.8211 401.619V389.688C51.8211 388.675 51.4185 387.703 50.7019 386.986C49.9852 386.269 49.0132 385.867 47.9998 385.867C46.9863 385.867 46.0143 386.269 45.2977 386.986C44.581 387.703 44.1784 388.675 44.1784 389.688V401.619C42.962 402.437 42.0406 403.625 41.5501 405.007C41.0595 406.389 41.0258 407.892 41.4538 409.294C41.8818 410.697 42.7489 411.925 43.9274 412.797C45.1059 413.67 46.5334 414.141 47.9998 414.141C49.4661 414.141 50.8936 413.67 52.0721 412.797C53.2506 411.925 54.1177 410.697 54.5457 409.294C54.9737 407.892 54.94 406.389 54.4495 405.007C53.9589 403.625 53.0376 402.437 51.8211 401.619ZM47.9998 412.533C46.8462 412.534 45.7248 412.153 44.8095 411.451C43.8941 410.749 43.236 409.765 42.9371 408.651C42.6383 407.537 42.7154 406.355 43.1566 405.289C43.5977 404.224 44.3783 403.333 45.3771 402.756C45.4988 402.686 45.5998 402.585 45.67 402.463C45.7403 402.341 45.7772 402.203 45.7771 402.063V389.688C45.7778 389.099 46.0122 388.534 46.429 388.118C46.8457 387.701 47.4106 387.467 47.9998 387.467C48.2899 387.465 48.5775 387.521 48.846 387.631C49.1144 387.741 49.3584 387.903 49.5638 388.108C49.7724 388.315 49.938 388.561 50.0508 388.832C50.1636 389.103 50.2215 389.394 50.2211 389.688V402.063C50.221 402.203 50.2579 402.341 50.3281 402.463C50.3984 402.585 50.4994 402.686 50.6211 402.756C51.6198 403.333 52.4003 404.223 52.8415 405.289C53.2827 406.355 53.3599 407.536 53.0612 408.65C52.7626 409.764 52.1046 410.749 51.1895 411.451C50.2744 412.153 49.1532 412.533 47.9998 412.533ZM51.9998 407.305C51.9999 408.062 51.7852 408.804 51.3808 409.443C50.9763 410.083 50.3986 410.595 49.7149 410.92C49.0311 411.244 48.2693 411.368 47.5179 411.277C46.7665 411.186 46.0564 410.883 45.4701 410.404C44.8838 409.926 44.4454 409.291 44.2057 408.573C43.966 407.855 43.9349 407.084 44.116 406.349C44.2971 405.614 44.683 404.945 45.2289 404.421C45.7748 403.897 46.4582 403.538 47.1998 403.387V394C47.1998 393.788 47.284 393.584 47.4341 393.434C47.5841 393.284 47.7876 393.2 47.9998 393.2C48.2119 393.2 48.4154 393.284 48.5654 393.434C48.7155 393.584 48.7998 393.788 48.7998 394V403.387C49.703 403.571 50.5149 404.062 51.098 404.776C51.6811 405.49 51.9996 406.383 51.9998 407.305Z" fill="#4E7CFF"/>
<g clip-path="url(#clip3_3298_18432)">
<path d="M44.1172 435.246L36.8281 451.5H35.3633L42.6055 435.633H32.9023V434.438H44.1172V435.246ZM57.6055 451.5H46.918V450.422L52.7656 443.789C53.7344 442.672 54.4062 441.75 54.7812 441.023C55.1562 440.297 55.3438 439.59 55.3438 438.902C55.3438 437.824 55.0273 436.973 54.3945 436.348C53.7617 435.715 52.8906 435.398 51.7812 435.398C50.6328 435.398 49.7031 435.766 48.9922 436.5C48.2891 437.234 47.9375 438.188 47.9375 439.359H46.543C46.543 438.398 46.7578 437.523 47.1875 436.734C47.625 435.945 48.2422 435.328 49.0391 434.883C49.8438 434.43 50.7578 434.203 51.7812 434.203C53.3438 434.203 54.5625 434.613 55.4375 435.434C56.3203 436.254 56.7617 437.371 56.7617 438.785C56.7617 439.582 56.5117 440.453 56.0117 441.398C55.5195 442.344 54.6484 443.523 53.3984 444.938L48.6406 450.316H57.6055V451.5ZM60.3242 450.656C60.3242 450.383 60.4102 450.152 60.582 449.965C60.7617 449.77 61.0078 449.672 61.3203 449.672C61.6328 449.672 61.8789 449.77 62.0586 449.965C62.2383 450.152 62.3281 450.383 62.3281 450.656C62.3281 450.93 62.2383 451.156 62.0586 451.336C61.8789 451.508 61.6328 451.594 61.3203 451.594C61.0078 451.594 60.7617 451.508 60.582 451.336C60.4102 451.156 60.3242 450.93 60.3242 450.656ZM66.9219 442.758L67.7539 434.438H76.2852V435.738H68.9609L68.3633 441.504C69.2773 440.879 70.3477 440.566 71.5742 440.566C73.1133 440.566 74.3398 441.066 75.2539 442.066C76.168 443.066 76.625 444.398 76.625 446.062C76.625 447.859 76.1797 449.254 75.2891 450.246C74.3984 451.238 73.1445 451.734 71.5273 451.734C70.043 451.734 68.8398 451.32 67.918 450.492C66.9961 449.664 66.4688 448.504 66.3359 447.012H67.6836C67.8164 448.176 68.2109 449.059 68.8672 449.66C69.5234 450.254 70.4102 450.551 71.5273 450.551C72.7461 450.551 73.6641 450.164 74.2812 449.391C74.9062 448.617 75.2188 447.516 75.2188 446.086C75.2188 444.836 74.8711 443.816 74.1758 443.027C73.4805 442.238 72.5312 441.844 71.3281 441.844C70.6641 441.844 70.0859 441.93 69.5938 442.102C69.1016 442.266 68.582 442.59 68.0352 443.074L66.9219 442.758ZM85.0625 437.133C85.0625 437.945 84.7852 438.629 84.2305 439.184C83.6758 439.738 83.0078 440.016 82.2266 440.016C81.4375 440.016 80.7617 439.738 80.1992 439.184C79.6367 438.621 79.3555 437.938 79.3555 437.133C79.3555 436.328 79.6406 435.641 80.2109 435.07C80.7812 434.492 81.4531 434.203 82.2266 434.203C83 434.203 83.6641 434.492 84.2188 435.07C84.7812 435.641 85.0625 436.328 85.0625 437.133ZM80.4102 437.133C80.4102 437.656 80.582 438.09 80.9258 438.434C81.2773 438.777 81.7109 438.949 82.2266 438.949C82.7422 438.949 83.168 438.777 83.5039 438.434C83.8398 438.09 84.0078 437.656 84.0078 437.133C84.0078 436.594 83.8398 436.148 83.5039 435.797C83.168 435.445 82.7422 435.27 82.2266 435.27C81.7188 435.27 81.2891 435.445 80.9375 435.797C80.5859 436.148 80.4102 436.594 80.4102 437.133Z" fill="#021449"/>
<path opacity="0.7" d="M93.6445 447.104H89.4678V451.5H88.1553V441.547H94.3213V442.627H89.4678V446.031H93.6445V447.104Z" fill="#A9A9A9"/>
</g>
<path d="M41.1797 462.859H37.5234V473H36.0312V462.859H32.3828V461.625H41.1797V462.859ZM45.3672 473.156C44.2214 473.156 43.2891 472.781 42.5703 472.031C41.8516 471.276 41.4922 470.268 41.4922 469.008V468.742C41.4922 467.904 41.651 467.156 41.9688 466.5C42.2917 465.839 42.7396 465.323 43.3125 464.953C43.8906 464.578 44.5156 464.391 45.1875 464.391C46.2865 464.391 47.1406 464.753 47.75 465.477C48.3594 466.201 48.6641 467.237 48.6641 468.586V469.188H42.9375C42.9583 470.021 43.2005 470.695 43.6641 471.211C44.1328 471.721 44.7266 471.977 45.4453 471.977C45.9557 471.977 46.388 471.872 46.7422 471.664C47.0964 471.456 47.4062 471.18 47.6719 470.836L48.5547 471.523C47.8464 472.612 46.7839 473.156 45.3672 473.156ZM45.1875 465.578C44.6042 465.578 44.1146 465.792 43.7188 466.219C43.3229 466.641 43.0781 467.234 42.9844 468H47.2188V467.891C47.1771 467.156 46.9792 466.589 46.625 466.188C46.2708 465.781 45.7917 465.578 45.1875 465.578ZM51.7031 464.547L51.7422 465.484C52.362 464.755 53.1979 464.391 54.25 464.391C55.4323 464.391 56.237 464.844 56.6641 465.75C56.9453 465.344 57.3099 465.016 57.7578 464.766C58.2109 464.516 58.7448 464.391 59.3594 464.391C61.2135 464.391 62.1562 465.372 62.1875 467.336V473H60.7422V467.422C60.7422 466.818 60.6042 466.367 60.3281 466.07C60.0521 465.768 59.5885 465.617 58.9375 465.617C58.401 465.617 57.9557 465.779 57.6016 466.102C57.2474 466.419 57.0417 466.849 56.9844 467.391V473H55.5312V467.461C55.5312 466.232 54.9297 465.617 53.7266 465.617C52.7786 465.617 52.1302 466.021 51.7812 466.828V473H50.3359V464.547H51.7031ZM71.5156 468.867C71.5156 470.154 71.2214 471.19 70.6328 471.977C70.0443 472.763 69.2474 473.156 68.2422 473.156C67.2161 473.156 66.4089 472.831 65.8203 472.18V476.25H64.375V464.547H65.6953L65.7656 465.484C66.3542 464.755 67.1719 464.391 68.2188 464.391C69.2344 464.391 70.0365 464.773 70.625 465.539C71.2188 466.305 71.5156 467.37 71.5156 468.734V468.867ZM70.0703 468.703C70.0703 467.75 69.8672 466.997 69.4609 466.445C69.0547 465.893 68.4974 465.617 67.7891 465.617C66.9141 465.617 66.2578 466.005 65.8203 466.781V470.82C66.2526 471.591 66.9141 471.977 67.8047 471.977C68.4974 471.977 69.0469 471.703 69.4531 471.156C69.8646 470.604 70.0703 469.786 70.0703 468.703ZM76.8672 473.156C75.7214 473.156 74.7891 472.781 74.0703 472.031C73.3516 471.276 72.9922 470.268 72.9922 469.008V468.742C72.9922 467.904 73.151 467.156 73.4688 466.5C73.7917 465.839 74.2396 465.323 74.8125 464.953C75.3906 464.578 76.0156 464.391 76.6875 464.391C77.7865 464.391 78.6406 464.753 79.25 465.477C79.8594 466.201 80.1641 467.237 80.1641 468.586V469.188H74.4375C74.4583 470.021 74.7005 470.695 75.1641 471.211C75.6328 471.721 76.2266 471.977 76.9453 471.977C77.4557 471.977 77.888 471.872 78.2422 471.664C78.5964 471.456 78.9062 471.18 79.1719 470.836L80.0547 471.523C79.3464 472.612 78.2839 473.156 76.8672 473.156ZM76.6875 465.578C76.1042 465.578 75.6146 465.792 75.2188 466.219C74.8229 466.641 74.5781 467.234 74.4844 468H78.7188V467.891C78.6771 467.156 78.4792 466.589 78.125 466.188C77.7708 465.781 77.2917 465.578 76.6875 465.578ZM85.9297 465.844C85.7109 465.807 85.474 465.789 85.2188 465.789C84.2708 465.789 83.6276 466.193 83.2891 467V473H81.8438V464.547H83.25L83.2734 465.523C83.7474 464.768 84.4193 464.391 85.2891 464.391C85.5703 464.391 85.7839 464.427 85.9297 464.5V465.844ZM92.1719 473C92.0885 472.833 92.0208 472.536 91.9688 472.109C91.2969 472.807 90.4948 473.156 89.5625 473.156C88.7292 473.156 88.0443 472.922 87.5078 472.453C86.9766 471.979 86.7109 471.38 86.7109 470.656C86.7109 469.776 87.0443 469.094 87.7109 468.609C88.3828 468.12 89.3255 467.875 90.5391 467.875H91.9453V467.211C91.9453 466.706 91.7943 466.305 91.4922 466.008C91.1901 465.706 90.7448 465.555 90.1562 465.555C89.6406 465.555 89.2083 465.685 88.8594 465.945C88.5104 466.206 88.3359 466.521 88.3359 466.891H86.8828C86.8828 466.469 87.0312 466.062 87.3281 465.672C87.6302 465.276 88.0365 464.964 88.5469 464.734C89.0625 464.505 89.6276 464.391 90.2422 464.391C91.2161 464.391 91.9792 464.635 92.5312 465.125C93.0833 465.609 93.3698 466.279 93.3906 467.133V471.023C93.3906 471.799 93.4896 472.417 93.6875 472.875V473H92.1719ZM89.7734 471.898C90.2266 471.898 90.6562 471.781 91.0625 471.547C91.4688 471.312 91.763 471.008 91.9453 470.633V468.898H90.8125C89.0417 468.898 88.1562 469.417 88.1562 470.453C88.1562 470.906 88.3073 471.26 88.6094 471.516C88.9115 471.771 89.2995 471.898 89.7734 471.898ZM97.6172 462.5V464.547H99.1953V465.664H97.6172V470.906C97.6172 471.245 97.6875 471.5 97.8281 471.672C97.9688 471.839 98.2083 471.922 98.5469 471.922C98.7135 471.922 98.9427 471.891 99.2344 471.828V473C98.8542 473.104 98.4844 473.156 98.125 473.156C97.4792 473.156 96.9922 472.961 96.6641 472.57C96.3359 472.18 96.1719 471.625 96.1719 470.906V465.664H94.6328V464.547H96.1719V462.5H97.6172ZM106.109 472.164C105.547 472.826 104.721 473.156 103.633 473.156C102.732 473.156 102.044 472.896 101.57 472.375C101.102 471.849 100.865 471.073 100.859 470.047V464.547H102.305V470.008C102.305 471.289 102.826 471.93 103.867 471.93C104.971 471.93 105.706 471.518 106.07 470.695V464.547H107.516V473H106.141L106.109 472.164ZM113.805 465.844C113.586 465.807 113.349 465.789 113.094 465.789C112.146 465.789 111.503 466.193 111.164 467V473H109.719V464.547H111.125L111.148 465.523C111.622 464.768 112.294 464.391 113.164 464.391C113.445 464.391 113.659 464.427 113.805 464.5V465.844ZM118.492 473.156C117.346 473.156 116.414 472.781 115.695 472.031C114.977 471.276 114.617 470.268 114.617 469.008V468.742C114.617 467.904 114.776 467.156 115.094 466.5C115.417 465.839 115.865 465.323 116.438 464.953C117.016 464.578 117.641 464.391 118.312 464.391C119.411 464.391 120.266 464.753 120.875 465.477C121.484 466.201 121.789 467.237 121.789 468.586V469.188H116.062C116.083 470.021 116.326 470.695 116.789 471.211C117.258 471.721 117.852 471.977 118.57 471.977C119.081 471.977 119.513 471.872 119.867 471.664C120.221 471.456 120.531 471.18 120.797 470.836L121.68 471.523C120.971 472.612 119.909 473.156 118.492 473.156ZM118.312 465.578C117.729 465.578 117.24 465.792 116.844 466.219C116.448 466.641 116.203 467.234 116.109 468H120.344V467.891C120.302 467.156 120.104 466.589 119.75 466.188C119.396 465.781 118.917 465.578 118.312 465.578Z" fill="#021449"/>
<path fill-rule="evenodd" clip-rule="evenodd" d="M314 478L321.966 455.374H326.216L323.87 462.038H331.308L335.546 450H339.796L331.831 472.626H327.58L330.148 465.333H322.71L318.25 478H314Z" fill="#1D213C"/>
</g>
<rect x="16" y="524" width="343" height="132" rx="20" fill="#3456F7"/>
<path d="M286.688 554.742H281.758V558.773H287.484V560H280.258V548.625H287.406V549.859H281.758V553.516H286.688V554.742ZM291.961 554.633L293.836 551.547H295.523L292.758 555.727L295.609 560H293.938L291.984 556.836L290.031 560H288.352L291.203 555.727L288.438 551.547H290.109L291.961 554.633ZM300.297 558.977C300.812 558.977 301.263 558.82 301.648 558.508C302.034 558.195 302.247 557.805 302.289 557.336H303.656C303.63 557.82 303.464 558.281 303.156 558.719C302.849 559.156 302.438 559.505 301.922 559.766C301.411 560.026 300.87 560.156 300.297 560.156C299.146 560.156 298.229 559.773 297.547 559.008C296.87 558.237 296.531 557.185 296.531 555.852V555.609C296.531 554.786 296.682 554.055 296.984 553.414C297.286 552.773 297.719 552.276 298.281 551.922C298.849 551.568 299.518 551.391 300.289 551.391C301.237 551.391 302.023 551.674 302.648 552.242C303.279 552.81 303.615 553.547 303.656 554.453H302.289C302.247 553.906 302.039 553.458 301.664 553.109C301.294 552.755 300.836 552.578 300.289 552.578C299.555 552.578 298.984 552.844 298.578 553.375C298.177 553.901 297.977 554.664 297.977 555.664V555.938C297.977 556.911 298.177 557.661 298.578 558.188C298.979 558.714 299.552 558.977 300.297 558.977ZM308.789 560.156C307.643 560.156 306.711 559.781 305.992 559.031C305.273 558.276 304.914 557.268 304.914 556.008V555.742C304.914 554.904 305.073 554.156 305.391 553.5C305.714 552.839 306.161 552.323 306.734 551.953C307.312 551.578 307.938 551.391 308.609 551.391C309.708 551.391 310.562 551.753 311.172 552.477C311.781 553.201 312.086 554.237 312.086 555.586V556.188H306.359C306.38 557.021 306.622 557.695 307.086 558.211C307.555 558.721 308.148 558.977 308.867 558.977C309.378 558.977 309.81 558.872 310.164 558.664C310.518 558.456 310.828 558.18 311.094 557.836L311.977 558.523C311.268 559.612 310.206 560.156 308.789 560.156ZM308.609 552.578C308.026 552.578 307.536 552.792 307.141 553.219C306.745 553.641 306.5 554.234 306.406 555H310.641V554.891C310.599 554.156 310.401 553.589 310.047 553.188C309.693 552.781 309.214 552.578 308.609 552.578ZM315.336 560H313.891V548H315.336V560ZM319.227 560H317.781V548H319.227V560ZM325.055 560.156C323.909 560.156 322.977 559.781 322.258 559.031C321.539 558.276 321.18 557.268 321.18 556.008V555.742C321.18 554.904 321.339 554.156 321.656 553.5C321.979 552.839 322.427 552.323 323 551.953C323.578 551.578 324.203 551.391 324.875 551.391C325.974 551.391 326.828 551.753 327.438 552.477C328.047 553.201 328.352 554.237 328.352 555.586V556.188H322.625C322.646 557.021 322.888 557.695 323.352 558.211C323.82 558.721 324.414 558.977 325.133 558.977C325.643 558.977 326.076 558.872 326.43 558.664C326.784 558.456 327.094 558.18 327.359 557.836L328.242 558.523C327.534 559.612 326.471 560.156 325.055 560.156ZM324.875 552.578C324.292 552.578 323.802 552.792 323.406 553.219C323.01 553.641 322.766 554.234 322.672 555H326.906V554.891C326.865 554.156 326.667 553.589 326.312 553.188C325.958 552.781 325.479 552.578 324.875 552.578ZM331.398 551.547L331.445 552.609C332.091 551.797 332.935 551.391 333.977 551.391C335.763 551.391 336.664 552.398 336.68 554.414V560H335.234V554.406C335.229 553.797 335.089 553.346 334.812 553.055C334.542 552.763 334.117 552.617 333.539 552.617C333.07 552.617 332.659 552.742 332.305 552.992C331.951 553.242 331.674 553.57 331.477 553.977V560H330.031V551.547H331.398ZM340.82 549.5V551.547H342.398V552.664H340.82V557.906C340.82 558.245 340.891 558.5 341.031 558.672C341.172 558.839 341.411 558.922 341.75 558.922C341.917 558.922 342.146 558.891 342.438 558.828V560C342.057 560.104 341.688 560.156 341.328 560.156C340.682 560.156 340.195 559.961 339.867 559.57C339.539 559.18 339.375 558.625 339.375 557.906V552.664H337.836V551.547H339.375V549.5H340.82Z" fill="#22FFD0"/>
<path d="M51.8211 557.619V545.688C51.8211 544.675 51.4185 543.703 50.7019 542.986C49.9852 542.269 49.0132 541.867 47.9998 541.867C46.9863 541.867 46.0143 542.269 45.2977 542.986C44.581 543.703 44.1784 544.675 44.1784 545.688V557.619C42.962 558.437 42.0406 559.625 41.5501 561.007C41.0595 562.389 41.0258 563.892 41.4538 565.294C41.8818 566.697 42.7489 567.925 43.9274 568.797C45.1059 569.67 46.5334 570.141 47.9998 570.141C49.4661 570.141 50.8936 569.67 52.0721 568.797C53.2506 567.925 54.1177 566.697 54.5457 565.294C54.9737 563.892 54.94 562.389 54.4495 561.007C53.9589 559.625 53.0376 558.437 51.8211 557.619ZM47.9998 568.533C46.8462 568.534 45.7248 568.153 44.8095 567.451C43.8941 566.749 43.236 565.765 42.9371 564.651C42.6383 563.537 42.7154 562.355 43.1566 561.289C43.5977 560.224 44.3783 559.333 45.3771 558.756C45.4988 558.686 45.5998 558.585 45.67 558.463C45.7403 558.341 45.7772 558.203 45.7771 558.063V545.688C45.7778 545.099 46.0122 544.534 46.429 544.118C46.8457 543.701 47.4106 543.467 47.9998 543.467C48.2899 543.465 48.5775 543.521 48.846 543.631C49.1144 543.741 49.3584 543.903 49.5638 544.108C49.7724 544.315 49.938 544.561 50.0508 544.832C50.1636 545.103 50.2215 545.394 50.2211 545.688V558.063C50.221 558.203 50.2579 558.341 50.3281 558.463C50.3984 558.585 50.4994 558.686 50.6211 558.756C51.6198 559.333 52.4003 560.223 52.8415 561.289C53.2827 562.355 53.3599 563.536 53.0612 564.65C52.7626 565.764 52.1046 566.749 51.1895 567.451C50.2744 568.153 49.1532 568.533 47.9998 568.533ZM51.9998 563.305C51.9999 564.062 51.7852 564.804 51.3808 565.443C50.9763 566.083 50.3986 566.595 49.7149 566.92C49.0311 567.244 48.2693 567.368 47.5179 567.277C46.7665 567.186 46.0564 566.883 45.4701 566.404C44.8838 565.926 44.4454 565.291 44.2057 564.573C43.966 563.855 43.9349 563.084 44.116 562.349C44.2971 561.614 44.683 560.945 45.2289 560.421C45.7748 559.897 46.4582 559.538 47.1998 559.387V550C47.1998 549.788 47.284 549.584 47.4341 549.434C47.5841 549.284 47.7876 549.2 47.9998 549.2C48.2119 549.2 48.4154 549.284 48.5654 549.434C48.7155 549.584 48.7998 549.788 48.7998 550V559.387C49.703 559.571 50.5149 560.062 51.098 560.776C51.6811 561.49 51.9996 562.383 51.9998 563.305Z" fill="white"/>
<g clip-path="url(#clip4_3298_18432)">
<path d="M44.1172 591.246L36.8281 607.5H35.3633L42.6055 591.633H32.9023V590.438H44.1172V591.246ZM57.6055 607.5H46.918V606.422L52.7656 599.789C53.7344 598.672 54.4062 597.75 54.7812 597.023C55.1562 596.297 55.3438 595.59 55.3438 594.902C55.3438 593.824 55.0273 592.973 54.3945 592.348C53.7617 591.715 52.8906 591.398 51.7812 591.398C50.6328 591.398 49.7031 591.766 48.9922 592.5C48.2891 593.234 47.9375 594.188 47.9375 595.359H46.543C46.543 594.398 46.7578 593.523 47.1875 592.734C47.625 591.945 48.2422 591.328 49.0391 590.883C49.8438 590.43 50.7578 590.203 51.7812 590.203C53.3438 590.203 54.5625 590.613 55.4375 591.434C56.3203 592.254 56.7617 593.371 56.7617 594.785C56.7617 595.582 56.5117 596.453 56.0117 597.398C55.5195 598.344 54.6484 599.523 53.3984 600.938L48.6406 606.316H57.6055V607.5ZM60.3242 606.656C60.3242 606.383 60.4102 606.152 60.582 605.965C60.7617 605.77 61.0078 605.672 61.3203 605.672C61.6328 605.672 61.8789 605.77 62.0586 605.965C62.2383 606.152 62.3281 606.383 62.3281 606.656C62.3281 606.93 62.2383 607.156 62.0586 607.336C61.8789 607.508 61.6328 607.594 61.3203 607.594C61.0078 607.594 60.7617 607.508 60.582 607.336C60.4102 607.156 60.3242 606.93 60.3242 606.656ZM66.9219 598.758L67.7539 590.438H76.2852V591.738H68.9609L68.3633 597.504C69.2773 596.879 70.3477 596.566 71.5742 596.566C73.1133 596.566 74.3398 597.066 75.2539 598.066C76.168 599.066 76.625 600.398 76.625 602.062C76.625 603.859 76.1797 605.254 75.2891 606.246C74.3984 607.238 73.1445 607.734 71.5273 607.734C70.043 607.734 68.8398 607.32 67.918 606.492C66.9961 605.664 66.4688 604.504 66.3359 603.012H67.6836C67.8164 604.176 68.2109 605.059 68.8672 605.66C69.5234 606.254 70.4102 606.551 71.5273 606.551C72.7461 606.551 73.6641 606.164 74.2812 605.391C74.9062 604.617 75.2188 603.516 75.2188 602.086C75.2188 600.836 74.8711 599.816 74.1758 599.027C73.4805 598.238 72.5312 597.844 71.3281 597.844C70.6641 597.844 70.0859 597.93 69.5938 598.102C69.1016 598.266 68.582 598.59 68.0352 599.074L66.9219 598.758ZM85.0625 593.133C85.0625 593.945 84.7852 594.629 84.2305 595.184C83.6758 595.738 83.0078 596.016 82.2266 596.016C81.4375 596.016 80.7617 595.738 80.1992 595.184C79.6367 594.621 79.3555 593.938 79.3555 593.133C79.3555 592.328 79.6406 591.641 80.2109 591.07C80.7812 590.492 81.4531 590.203 82.2266 590.203C83 590.203 83.6641 590.492 84.2188 591.07C84.7812 591.641 85.0625 592.328 85.0625 593.133ZM80.4102 593.133C80.4102 593.656 80.582 594.09 80.9258 594.434C81.2773 594.777 81.7109 594.949 82.2266 594.949C82.7422 594.949 83.168 594.777 83.5039 594.434C83.8398 594.09 84.0078 593.656 84.0078 593.133C84.0078 592.594 83.8398 592.148 83.5039 591.797C83.168 591.445 82.7422 591.27 82.2266 591.27C81.7188 591.27 81.2891 591.445 80.9375 591.797C80.5859 592.148 80.4102 592.594 80.4102 593.133Z" fill="white"/>
<path opacity="0.7" d="M93.6445 603.104H89.4678V607.5H88.1553V597.547H94.3213V598.627H89.4678V602.031H93.6445V603.104Z" fill="white" fill-opacity="0.7"/>
</g>
<path d="M41.1797 618.859H37.5234V629H36.0312V618.859H32.3828V617.625H41.1797V618.859ZM45.3672 629.156C44.2214 629.156 43.2891 628.781 42.5703 628.031C41.8516 627.276 41.4922 626.268 41.4922 625.008V624.742C41.4922 623.904 41.651 623.156 41.9688 622.5C42.2917 621.839 42.7396 621.323 43.3125 620.953C43.8906 620.578 44.5156 620.391 45.1875 620.391C46.2865 620.391 47.1406 620.753 47.75 621.477C48.3594 622.201 48.6641 623.237 48.6641 624.586V625.188H42.9375C42.9583 626.021 43.2005 626.695 43.6641 627.211C44.1328 627.721 44.7266 627.977 45.4453 627.977C45.9557 627.977 46.388 627.872 46.7422 627.664C47.0964 627.456 47.4062 627.18 47.6719 626.836L48.5547 627.523C47.8464 628.612 46.7839 629.156 45.3672 629.156ZM45.1875 621.578C44.6042 621.578 44.1146 621.792 43.7188 622.219C43.3229 622.641 43.0781 623.234 42.9844 624H47.2188V623.891C47.1771 623.156 46.9792 622.589 46.625 622.188C46.2708 621.781 45.7917 621.578 45.1875 621.578ZM51.7031 620.547L51.7422 621.484C52.362 620.755 53.1979 620.391 54.25 620.391C55.4323 620.391 56.237 620.844 56.6641 621.75C56.9453 621.344 57.3099 621.016 57.7578 620.766C58.2109 620.516 58.7448 620.391 59.3594 620.391C61.2135 620.391 62.1562 621.372 62.1875 623.336V629H60.7422V623.422C60.7422 622.818 60.6042 622.367 60.3281 622.07C60.0521 621.768 59.5885 621.617 58.9375 621.617C58.401 621.617 57.9557 621.779 57.6016 622.102C57.2474 622.419 57.0417 622.849 56.9844 623.391V629H55.5312V623.461C55.5312 622.232 54.9297 621.617 53.7266 621.617C52.7786 621.617 52.1302 622.021 51.7812 622.828V629H50.3359V620.547H51.7031ZM71.5156 624.867C71.5156 626.154 71.2214 627.19 70.6328 627.977C70.0443 628.763 69.2474 629.156 68.2422 629.156C67.2161 629.156 66.4089 628.831 65.8203 628.18V632.25H64.375V620.547H65.6953L65.7656 621.484C66.3542 620.755 67.1719 620.391 68.2188 620.391C69.2344 620.391 70.0365 620.773 70.625 621.539C71.2188 622.305 71.5156 623.37 71.5156 624.734V624.867ZM70.0703 624.703C70.0703 623.75 69.8672 622.997 69.4609 622.445C69.0547 621.893 68.4974 621.617 67.7891 621.617C66.9141 621.617 66.2578 622.005 65.8203 622.781V626.82C66.2526 627.591 66.9141 627.977 67.8047 627.977C68.4974 627.977 69.0469 627.703 69.4531 627.156C69.8646 626.604 70.0703 625.786 70.0703 624.703ZM76.8672 629.156C75.7214 629.156 74.7891 628.781 74.0703 628.031C73.3516 627.276 72.9922 626.268 72.9922 625.008V624.742C72.9922 623.904 73.151 623.156 73.4688 622.5C73.7917 621.839 74.2396 621.323 74.8125 620.953C75.3906 620.578 76.0156 620.391 76.6875 620.391C77.7865 620.391 78.6406 620.753 79.25 621.477C79.8594 622.201 80.1641 623.237 80.1641 624.586V625.188H74.4375C74.4583 626.021 74.7005 626.695 75.1641 627.211C75.6328 627.721 76.2266 627.977 76.9453 627.977C77.4557 627.977 77.888 627.872 78.2422 627.664C78.5964 627.456 78.9062 627.18 79.1719 626.836L80.0547 627.523C79.3464 628.612 78.2839 629.156 76.8672 629.156ZM76.6875 621.578C76.1042 621.578 75.6146 621.792 75.2188 622.219C74.8229 622.641 74.5781 623.234 74.4844 624H78.7188V623.891C78.6771 623.156 78.4792 622.589 78.125 622.188C77.7708 621.781 77.2917 621.578 76.6875 621.578ZM85.9297 621.844C85.7109 621.807 85.474 621.789 85.2188 621.789C84.2708 621.789 83.6276 622.193 83.2891 623V629H81.8438V620.547H83.25L83.2734 621.523C83.7474 620.768 84.4193 620.391 85.2891 620.391C85.5703 620.391 85.7839 620.427 85.9297 620.5V621.844ZM92.1719 629C92.0885 628.833 92.0208 628.536 91.9688 628.109C91.2969 628.807 90.4948 629.156 89.5625 629.156C88.7292 629.156 88.0443 628.922 87.5078 628.453C86.9766 627.979 86.7109 627.38 86.7109 626.656C86.7109 625.776 87.0443 625.094 87.7109 624.609C88.3828 624.12 89.3255 623.875 90.5391 623.875H91.9453V623.211C91.9453 622.706 91.7943 622.305 91.4922 622.008C91.1901 621.706 90.7448 621.555 90.1562 621.555C89.6406 621.555 89.2083 621.685 88.8594 621.945C88.5104 622.206 88.3359 622.521 88.3359 622.891H86.8828C86.8828 622.469 87.0312 622.062 87.3281 621.672C87.6302 621.276 88.0365 620.964 88.5469 620.734C89.0625 620.505 89.6276 620.391 90.2422 620.391C91.2161 620.391 91.9792 620.635 92.5312 621.125C93.0833 621.609 93.3698 622.279 93.3906 623.133V627.023C93.3906 627.799 93.4896 628.417 93.6875 628.875V629H92.1719ZM89.7734 627.898C90.2266 627.898 90.6562 627.781 91.0625 627.547C91.4688 627.312 91.763 627.008 91.9453 626.633V624.898H90.8125C89.0417 624.898 88.1562 625.417 88.1562 626.453C88.1562 626.906 88.3073 627.26 88.6094 627.516C88.9115 627.771 89.2995 627.898 89.7734 627.898ZM97.6172 618.5V620.547H99.1953V621.664H97.6172V626.906C97.6172 627.245 97.6875 627.5 97.8281 627.672C97.9688 627.839 98.2083 627.922 98.5469 627.922C98.7135 627.922 98.9427 627.891 99.2344 627.828V629C98.8542 629.104 98.4844 629.156 98.125 629.156C97.4792 629.156 96.9922 628.961 96.6641 628.57C96.3359 628.18 96.1719 627.625 96.1719 626.906V621.664H94.6328V620.547H96.1719V618.5H97.6172ZM106.109 628.164C105.547 628.826 104.721 629.156 103.633 629.156C102.732 629.156 102.044 628.896 101.57 628.375C101.102 627.849 100.865 627.073 100.859 626.047V620.547H102.305V626.008C102.305 627.289 102.826 627.93 103.867 627.93C104.971 627.93 105.706 627.518 106.07 626.695V620.547H107.516V629H106.141L106.109 628.164ZM113.805 621.844C113.586 621.807 113.349 621.789 113.094 621.789C112.146 621.789 111.503 622.193 111.164 623V629H109.719V620.547H111.125L111.148 621.523C111.622 620.768 112.294 620.391 113.164 620.391C113.445 620.391 113.659 620.427 113.805 620.5V621.844ZM118.492 629.156C117.346 629.156 116.414 628.781 115.695 628.031C114.977 627.276 114.617 626.268 114.617 625.008V624.742C114.617 623.904 114.776 623.156 115.094 622.5C115.417 621.839 115.865 621.323 116.438 620.953C117.016 620.578 117.641 620.391 118.312 620.391C119.411 620.391 120.266 620.753 120.875 621.477C121.484 622.201 121.789 623.237 121.789 624.586V625.188H116.062C116.083 626.021 116.326 626.695 116.789 627.211C117.258 627.721 117.852 627.977 118.57 627.977C119.081 627.977 119.513 627.872 119.867 627.664C120.221 627.456 120.531 627.18 120.797 626.836L121.68 627.523C120.971 628.612 119.909 629.156 118.492 629.156ZM118.312 621.578C117.729 621.578 117.24 621.792 116.844 622.219C116.448 622.641 116.203 623.234 116.109 624H120.344V623.891C120.302 623.156 120.104 622.589 119.75 622.188C119.396 621.781 118.917 621.578 118.312 621.578Z" fill="white"/>
<path fill-rule="evenodd" clip-rule="evenodd" d="M314 634L321.966 611.374H326.216L323.87 618.038H331.308L335.546 606H339.796L331.831 628.626H327.58L330.148 621.333H322.71L318.25 634H314Z" fill="white"/>
</g>
<defs>
<filter id="filter0_dddddd_3298_18432" x="-64" y="368" width="503" height="312" filterUnits="userSpaceOnUse" color-interpolation-filters="sRGB">
<feFlood flood-opacity="0" result="BackgroundImageFix"/>
<feColorMatrix in="SourceAlpha" type="matrix" values="0 0 0 0 0 0 0 0 0 0 0 0 0 0 0 0 0 0 127 0" result="hardAlpha"/>
<feOffset dy="2.76726"/>
<feGaussianBlur stdDeviation="1.1069"/>
<feColorMatrix type="matrix" values="0 0 0 0 0.851562 0 0 0 0 0.86875 0 0 0 0 0.9375 0 0 0 0.0337375 0"/>
<feBlend mode="normal" in2="BackgroundImageFix" result="effect1_dropShadow_3298_18432"/>
<feColorMatrix in="SourceAlpha" type="matrix" values="0 0 0 0 0 0 0 0 0 0 0 0 0 0 0 0 0 0 127 0" result="hardAlpha"/>
<feOffset dy="6.6501"/>
<feGaussianBlur stdDeviation="2.66004"/>
<feColorMatrix type="matrix" values="0 0 0 0 0.85098 0 0 0 0 0.870588 0 0 0 0 0.937255 0 0 0 0.0484671 0"/>
<feBlend mode="normal" in2="effect1_dropShadow_3298_18432" result="effect2_dropShadow_3298_18432"/>
<feColorMatrix in="SourceAlpha" type="matrix" values="0 0 0 0 0 0 0 0 0 0 0 0 0 0 0 0 0 0 127 0" result="hardAlpha"/>
<feOffset dy="12.5216"/>
<feGaussianBlur stdDeviation="5.00862"/>
<feColorMatrix type="matrix" values="0 0 0 0 0.85098 0 0 0 0 0.870588 0 0 0 0 0.937255 0 0 0 0.06 0"/>
<feBlend mode="normal" in2="effect2_dropShadow_3298_18432" result="effect3_dropShadow_3298_18432"/>
<feColorMatrix in="SourceAlpha" type="matrix" values="0 0 0 0 0 0 0 0 0 0 0 0 0 0 0 0 0 0 127 0" result="hardAlpha"/>
<feOffset dy="22.3363"/>
<feGaussianBlur stdDeviation="8.93452"/>
<feColorMatrix type="matrix" values="0 0 0 0 0.85098 0 0 0 0 0.870588 0 0 0 0 0.937255 0 0 0 0.0715329 0"/>
<feBlend mode="normal" in2="effect3_dropShadow_3298_18432" result="effect4_dropShadow_3298_18432"/>
<feColorMatrix in="SourceAlpha" type="matrix" values="0 0 0 0 0 0 0 0 0 0 0 0 0 0 0 0 0 0 127 0" result="hardAlpha"/>
<feOffset dy="41.7776"/>
<feGaussianBlur stdDeviation="16.711"/>
<feColorMatrix type="matrix" values="0 0 0 0 0.85098 0 0 0 0 0.870588 0 0 0 0 0.937255 0 0 0 0.0862625 0"/>
<feBlend mode="normal" in2="effect4_dropShadow_3298_18432" result="effect5_dropShadow_3298_18432"/>
<feColorMatrix in="SourceAlpha" type="matrix" values="0 0 0 0 0 0 0 0 0 0 0 0 0 0 0 0 0 0 127 0" result="hardAlpha"/>
<feOffset dy="100"/>
<feGaussianBlur stdDeviation="40"/>
<feColorMatrix type="matrix" values="0 0 0 0 0.85098 0 0 0 0 0.870588 0 0 0 0 0.937255 0 0 0 0.12 0"/>
<feBlend mode="normal" in2="effect5_dropShadow_3298_18432" result="effect6_dropShadow_3298_18432"/>
<feBlend mode="normal" in="SourceGraphic" in2="effect6_dropShadow_3298_18432" result="shape"/>
</filter>
<clipPath id="clip0_3298_18432">
<rect width="375" height="812" fill="white"/>
</clipPath>
<clipPath id="clip1_3298_18432">
<rect width="64" height="39" fill="white" transform="translate(32 112)"/>
</clipPath>
<clipPath id="clip2_3298_18432">
<rect width="64" height="39" fill="white" transform="translate(32 268)"/>
</clipPath>
<clipPath id="clip3_3298_18432">
<rect width="64" height="39" fill="white" transform="translate(32 424)"/>
</clipPath>
<clipPath id="clip4_3298_18432">
<rect width="64" height="39" fill="white" transform="translate(32 580)"/>
</clipPath>
</defs>
</svg>
